<?xml version="1.0" encoding="UTF-8" standalone="no"?>
<svg
   height="271.99158"
   preserveAspectRatio="xMidYMid meet"
   version="1.0"
   viewBox="-4.7 -4.6 178.72811 271.99157"
   width="178.7281"
   zoomAndPan="magnify"
   id="svg273"
   sodipodi:docname="1student_2.svg"
   inkscape:version="1.1 (c68e22c387, 2021-05-23)"
   xmlns:inkscape="http://www.inkscape.org/namespaces/inkscape"
   xmlns:sodipodi="http://sodipodi.sourceforge.net/DTD/sodipodi-0.dtd"
   xmlns="http://www.w3.org/2000/svg"
   xmlns:svg="http://www.w3.org/2000/svg">
  <defs
     id="defs277" />
  <sodipodi:namedview
     id="namedview275"
     pagecolor="#ffffff"
     bordercolor="#666666"
     borderopacity="1.0"
     inkscape:pageshadow="2"
     inkscape:pageopacity="0.0"
     inkscape:pagecheckerboard="0"
     showgrid="false"
     inkscape:zoom="1.3036562"
     inkscape:cx="2.6847569"
     inkscape:cy="180.64579"
     inkscape:window-width="1841"
     inkscape:window-height="1057"
     inkscape:window-x="-8"
     inkscape:window-y="-8"
     inkscape:window-maximized="1"
     inkscape:current-layer="svg273"
     inkscape:snap-grids="true"
     fit-margin-top="0"
     fit-margin-left="0"
     fit-margin-right="0"
     fit-margin-bottom="0" />
  <g
     id="g221"
     transform="translate(-3.7621765,-27.868423)">
    <g
       id="change1_3"
       style="fill:#ffffff;fill-opacity:1">
      <path
         d="m 99.36,386.4 c 0,0 10.07,15.75 2.77,22.56 -5.61,5.23 -9.36,7.88 -16.32,14.7 -6.97,6.82 -30.14,12.12 -40.29,3.48 -10.15,-8.63 31.03,-40.36 31.03,-40.36 z m 40.39,-4.53 c 0,0 -10.07,15.75 -2.77,22.56 5.61,5.23 9.36,7.88 16.32,14.7 6.97,6.82 30.14,12.12 40.29,3.48 10.15,-8.63 -31.03,-40.36 -31.03,-40.36 z"
         fill="#EDE6DD"
         id="path185"
         style="fill:#ffffff;fill-opacity:1" />
    </g>
    <g
       id="change3_5"
       style="fill:#312e5f;fill-opacity:1">
      <path
         d="m 78,402.43 c -0.31,0 -0.62,-0.15 -0.82,-0.42 -4.03,-5.68 -11.57,-4.99 -11.64,-4.98 -0.55,0.05 -1.04,-0.34 -1.1,-0.89 -0.06,-0.55 0.34,-1.04 0.89,-1.1 0.35,-0.04 8.77,-0.83 13.48,5.82 0.32,0.45 0.21,1.07 -0.24,1.39 -0.16,0.13 -0.37,0.18 -0.57,0.18 z m -5.7,5.26 c 0.45,-0.32 0.56,-0.94 0.24,-1.39 -4.71,-6.65 -13.13,-5.86 -13.48,-5.82 -0.55,0.06 -0.95,0.55 -0.89,1.1 0.06,0.55 0.54,0.94 1.1,0.89 0.08,-0.01 7.62,-0.7 11.64,4.98 0.2,0.28 0.5,0.42 0.82,0.42 0.19,0 0.4,-0.06 0.57,-0.18 z m -5.54,5.75 c 0.45,-0.32 0.56,-0.94 0.24,-1.39 -4.71,-6.65 -13.13,-5.85 -13.48,-5.82 -0.55,0.06 -0.95,0.55 -0.89,1.1 0.06,0.55 0.54,0.95 1.1,0.89 0.08,0 7.6,-0.72 11.64,4.98 0.2,0.28 0.5,0.42 0.82,0.42 0.19,0.01 0.39,-0.05 0.57,-0.18 z m 95.16,-15.96 c 4.03,-5.68 11.57,-4.99 11.64,-4.98 0.55,0.04 1.04,-0.34 1.1,-0.89 0.06,-0.55 -0.34,-1.04 -0.89,-1.1 -0.36,-0.04 -8.77,-0.83 -13.48,5.82 -0.32,0.45 -0.21,1.07 0.24,1.39 0.18,0.13 0.38,0.18 0.58,0.18 0.3,0 0.61,-0.14 0.81,-0.42 z m 6.28,5.44 c 4.03,-5.68 11.57,-4.99 11.64,-4.98 0.55,0.04 1.04,-0.34 1.1,-0.89 0.06,-0.55 -0.34,-1.04 -0.89,-1.1 -0.35,-0.04 -8.77,-0.83 -13.48,5.82 -0.32,0.45 -0.21,1.07 0.24,1.39 0.18,0.13 0.38,0.18 0.58,0.18 0.3,0 0.61,-0.14 0.81,-0.42 z m 5.54,5.75 c 4.03,-5.68 11.57,-4.99 11.64,-4.98 0.55,0.05 1.04,-0.34 1.1,-0.89 0.06,-0.55 -0.34,-1.04 -0.89,-1.1 -0.35,-0.04 -8.77,-0.83 -13.48,5.82 -0.32,0.45 -0.21,1.07 0.24,1.39 0.18,0.13 0.38,0.18 0.58,0.18 0.31,0.01 0.62,-0.14 0.81,-0.42 z m -37.7,-176.91 c -8.51,-23.68 -83.84,-16.43 -85.13,4.64 -1.21,19.79 20.37,134.75 23.11,149.25 0.19,1 0.81,1.87 1.69,2.37 9.07,5.14 18.77,2.06 23.03,0.22 1.33,-0.58 2.16,-1.92 2.07,-3.37 -1.29,-22.03 -2.32,-96.47 -2.54,-112.59 -0.01,-0.74 1,-0.97 1.31,-0.3 13.44,28.79 34.38,99.68 37.84,111.53 0.32,1.09 1.15,1.97 2.24,2.32 10.15,3.31 17.7,-0.38 20.86,-2.45 1.02,-0.67 1.61,-1.83 1.55,-3.05 -2.76,-55.59 -24.76,-143.61 -25.92,-148.2 -0.02,-0.12 -0.06,-0.24 -0.11,-0.37 z"
         fill="inherit"
         id="path188"
         style="fill:#312e5f;fill-opacity:1" />
    </g>
    <g
       id="change4_4">
      <path
         d="m 62.6,192.4 c 0,0 8.23,51.49 -8.47,42.86 -16.7,-8.63 -14.04,-11.36 -12.22,-12.87 1.82,-1.51 6.06,2.25 6.06,2.25 C 44.64,214.77 45.7,202.2 45.7,202.2 Z m 74.35,-128.25 4.12,12.17 12.78,-4.3 -6.16,-12.59 c 1.55,-4.42 -1.02,-12.78 -1.02,-12.78 0,0 3.78,-8.9 3.11,-10.7 -1.35,-3.64 -7.61,8.86 -7.61,8.86 0,0 -0.95,-18.8 -4.23,-18.53 -3.28,0.27 -1.27,17.57 -1.27,17.57 0,0 -7.39,-21.96 -10.15,-19.77 -2.76,2.2 4.41,22.09 4.41,22.09 -11.34,-15.66 -13.91,-17.42 -13.76,-14.01 0.24,5.3 11.63,21.95 11.63,21.95 -10.78,-4.96 -13.32,-0.62 -11.75,1.58 1.57,2.2 4,1.88 12.71,5.33 3.16,1.28 5.48,2.79 7.19,3.13 z"
         fill="#f4bba8"
         id="path191" />
    </g>
    <g
       id="change5_3"
       style="fill:#f7b252;fill-opacity:1">
      <path
         d="m 152.55,62.9 c -0.9,-1.16 -2.28,-1.84 -3.74,-1.87 -5.06,-0.11 -9.37,1.93 -12.04,3.6 -1.77,1.11 -2.59,3.24 -2.08,5.26 l 4.57,18.16 c -16.14,1.32 -28.07,4.85 -34.62,7.26 -1.22,0.45 -2.13,1.32 -2.66,2.37 -8.7,-2.09 -12.32,0.66 -12.32,0.66 -34.19,1.65 -55.55,26.3 -55.55,26.3 0,0 -38.85,41.56 -33.63,56.67 5.23,15.11 38.62,20.11 38.62,20.11 l 3.55,4.97 c 1.28,1.79 3.73,2.27 5.59,1.09 0.93,-0.59 1.89,-1.26 2.85,-1.96 -0.06,0.7 -0.13,1.38 -0.18,2.03 -1.14,13.63 1.36,16.81 1.36,16.81 l -1.36,12.04 c 41.57,17.49 84.97,-3.63 85.19,-4.45 0.23,-0.81 -4.48,-12.82 -4.48,-12.82 3.7,-2.7 5.46,-50.15 6.18,-78.38 9.99,-6.62 37.11,-25.29 38.98,-33.98 C 178.79,97.5 158.01,69.94 152.55,62.9 Z M 39.1,167.34 l 12.63,-4.7 3.73,8.03 c 0,0 -0.58,3.92 -1.33,9.49 C 47.09,171.5 39.1,167.34 39.1,167.34 Z"
         fill="#F28F69"
         id="path194"
         style="fill:#f7b252;fill-opacity:1" />
    </g>
    <g
       id="change1_4"
       style="fill:#ffffff;fill-opacity:1">
      <path
         d="m 107.97,111.22 c -0.15,6.56 -4.9,19.11 -9.09,28.97 -3.35,7.88 -6.34,14.04 -6.34,14.04 -1.44,-1.35 -4.8,-6.3 -8.49,-12.13 -6.42,-10.12 -13.87,-22.89 -14.18,-24.15 -0.03,-0.14 -0.04,-0.28 -0.03,-0.42 1.91,-23.58 38.71,-30.62 38.13,-6.31 z"
         fill="#EDE6DD"
         id="path197"
         style="fill:#ffffff;fill-opacity:1" />
    </g>
    <g
       id="change2_3"
       style="fill:#d03372;fill-opacity:1">
      <path
         d="m 98.88,140.2 c -3.35,7.88 -6.34,14.04 -6.34,14.04 -1.44,-1.35 -4.8,-6.3 -8.49,-12.13 l 2.77,-14.79 c 0.04,-0.28 0.01,-0.55 -0.12,-0.8 l -4.56,-8.9 c -0.25,-0.49 -0.14,-1.1 0.27,-1.48 l 6.35,-5.94 c 0.44,-0.4 1.09,-0.44 1.57,-0.12 l 7.49,5.18 c 0.47,0.33 0.66,0.93 0.45,1.48 l -3.48,9.09 c -0.11,0.26 -0.12,0.54 -0.04,0.81 0.52,1.73 2.62,8.57 4.13,13.56 z"
         fill="#6E9692"
         id="path200"
         style="fill:#d03372;fill-opacity:1" />
    </g>
    <g
       id="change1_5"
       style="fill:#ffffff;fill-opacity:1">
      <path
         d="m 87.87,94.44 c 21.33,-7.93 22.2,16.2 21.88,24.66 -0.06,1.45 -1.47,2.47 -2.9,2.09 l -16.36,-4.34 c -0.52,-0.16 -1.08,-0.13 -1.58,0.06 l -15.96,6.21 c -1.45,0.56 -3.07,-0.36 -3.25,-1.87 -3.42,-27.47 13.89,-27 17.12,-26.67 0.35,0.05 0.71,-0.01 1.05,-0.14 z"
         fill="#EDE6DD"
         id="path203"
         style="fill:#ffffff;fill-opacity:1" />
    </g>
    <g
       id="change4_5">
      <path
         d="m 99.78,88.04 c -0.05,0.04 -0.1,0.08 -0.15,0.12 0.21,0.42 0.38,0.87 0.51,1.34 l 1.98,7.33 c 0.71,2.62 -0.09,5.41 -2.07,7.26 l -9.71,9.06 -10.82,-6.28 c -2.47,-1.44 -3.88,-4.18 -3.61,-7.03 l 0.79,-8.21 c 0.03,-0.26 0.09,-0.51 0.14,-0.76 C 76.81,90.86 76.77,90.84 76.73,90.83 76.38,90.69 76.04,90.55 75.71,90.39 68.8,87.35 64.02,79.89 63.19,71.46 61.86,58.01 71.82,45.61 83.78,44.43 c 11.96,-1.18 23.86,8.69 25.18,22.15 0.67,6.73 -0.78,13.66 -5.2,17.88 -1.37,1.32 -2.68,2.53 -3.98,3.58 z"
         fill="#f4bba8"
         id="path206" />
    </g>
    <g
       id="change3_6">
      <path
         d="m 66.44,60.49 -1.82,12.8 c 0,0 -12.87,-3.86 -6.06,-21.96 6.81,-18.1 14.99,-13.56 14.99,-13.56 3.79,-8.41 10.6,-7.19 29.61,0.15 19.01,7.34 7.66,31.98 3.63,34.16 -4.03,2.19 -5.3,-19.02 -5.3,-19.02 -18.25,-0.23 -21.36,-6.05 -21.36,-6.05 0.53,3.56 8.41,10.83 3.71,10.3 -4.7,-0.53 -9.31,-10.45 -9.31,-10.45 -1.71,6.36 -8.09,13.63 -8.09,13.63 z"
         fill="inherit"
         id="path209" />
    </g>
    <g
       id="change4_6">
      <path
         d="m 115.41,73.16 c -1.38,4.53 -5.41,7.32 -9.01,6.23 -3.6,-1.09 -5.41,-5.65 -4.03,-10.19 1.38,-4.53 5.41,-7.32 9.01,-6.23 3.6,1.09 5.4,5.66 4.03,10.19 z m -55.82,9.99 c 2.62,3.95 7.29,5.45 10.42,3.37 3.14,-2.08 3.55,-6.97 0.93,-10.91 -2.62,-3.94 -7.29,-5.45 -10.42,-3.37 -3.13,2.08 -3.55,6.97 -0.93,10.91 z"
         fill="#f4bba8"
         id="path212" />
    </g>
    <g
       id="change3_7">
      <path
         d="m 99.78,88.04 c -1.21,5.51 -6.13,9.65 -12.01,9.65 -4.84,0 -9.03,-2.79 -11.03,-6.86 3.67,1.52 7.79,2.73 11.87,2.33 4.32,-0.44 7.71,-2.29 11.17,-5.12 z M 95.1,61.24 c -1.76,0 -3.18,1.42 -3.18,3.18 0,1.76 1.42,3.18 3.18,3.18 1.76,0 3.18,-1.42 3.18,-3.18 0.01,-1.75 -1.42,-3.18 -3.18,-3.18 z M 79.83,69.4 c 0.34,-0.24 0.42,-0.71 0.18,-1.05 -0.03,-0.04 -3.14,-4.27 -9.31,-0.98 -0.37,0.2 -0.5,0.65 -0.31,1.02 0.2,0.37 0.65,0.5 1.02,0.31 4.96,-2.65 7.27,0.38 7.38,0.52 0.15,0.2 0.38,0.31 0.61,0.31 0.14,0.01 0.29,-0.04 0.43,-0.13 z M 98.28,56.11 c -0.21,0 -0.42,-0.06 -0.59,-0.2 -4.84,-3.59 -9.81,-0.85 -9.86,-0.82 -0.48,0.27 -1.09,0.1 -1.36,-0.38 -0.27,-0.48 -0.1,-1.09 0.38,-1.36 0.25,-0.14 6.16,-3.39 12.03,0.96 0.44,0.33 0.54,0.96 0.21,1.4 -0.2,0.26 -0.5,0.4 -0.81,0.4 z m -29,6.05 c 1.7,-4.98 7.24,-5.02 7.44,-5 v 0 c 0.56,0.03 1,-0.44 1.01,-0.99 0.01,-0.55 -0.44,-1.01 -0.99,-1.01 -2.44,-0.06 -7.61,1.26 -9.35,6.36 -0.18,0.52 0.1,1.09 0.62,1.27 0.11,0.04 0.22,0.05 0.32,0.05 0.42,-0.01 0.81,-0.27 0.95,-0.68 z m 37.89,6.13 c 0.89,-1.54 1.82,-2.33 2.78,-2.36 0.02,0 0.03,0 0.05,0 1.48,0 2.66,1.81 2.68,1.82 0.15,0.23 0.46,0.3 0.69,0.15 0.23,-0.15 0.3,-0.46 0.15,-0.69 -0.06,-0.1 -1.5,-2.33 -3.58,-2.28 -1.34,0.03 -2.56,0.99 -3.63,2.86 -0.14,0.24 -0.06,0.55 0.18,0.68 0.08,0.04 0.16,0.07 0.25,0.07 0.17,0 0.34,-0.09 0.43,-0.25 z m -47.75,9.76 c -0.07,0 -0.14,-0.01 -0.21,-0.04 -0.25,-0.11 -0.36,-0.41 -0.25,-0.66 0.05,-0.1 1.16,-2.53 3.21,-2.78 1.33,-0.16 2.67,0.61 4.01,2.3 0.17,0.22 0.13,0.53 -0.08,0.7 -0.22,0.17 -0.53,0.13 -0.7,-0.08 -1.1,-1.4 -2.14,-2.04 -3.1,-1.93 -1.49,0.18 -2.42,2.18 -2.43,2.2 -0.08,0.18 -0.26,0.29 -0.45,0.29 z M 83.1,74.47 c -0.25,0 -0.46,-0.18 -0.5,-0.43 -0.25,-1.84 0.08,-3.13 0.99,-3.81 1.48,-1.12 3.85,-0.09 3.95,-0.05 0.25,0.11 0.37,0.41 0.26,0.66 -0.11,0.25 -0.4,0.37 -0.66,0.26 -0.54,-0.23 -2.11,-0.7 -2.95,-0.07 -0.74,0.56 -0.73,1.87 -0.59,2.87 0.04,0.27 -0.15,0.53 -0.43,0.56 -0.02,0 -0.05,0.01 -0.07,0.01 z M 71.34,123.8 c 0.05,0 0.11,-0.01 0.16,-0.03 l 19,-6.4 16.22,4.3 c 0.27,0.07 0.54,-0.09 0.61,-0.36 0.07,-0.27 -0.09,-0.54 -0.36,-0.61 l -16.36,-4.34 c -0.09,-0.02 -0.19,-0.02 -0.29,0.01 l -19.15,6.44 c -0.26,0.09 -0.4,0.37 -0.31,0.63 0.07,0.23 0.27,0.36 0.48,0.36 z m 23.78,2.52 c -0.05,0.27 -0.31,0.45 -0.58,0.4 -0.04,-0.01 -4.58,-0.8 -7.43,0.62 -0.07,0.04 -0.15,0.05 -0.22,0.05 -0.18,0 -0.36,-0.1 -0.45,-0.28 -0.12,-0.25 -0.02,-0.55 0.22,-0.67 3.14,-1.57 7.85,-0.74 8.05,-0.71 0.28,0.06 0.46,0.32 0.41,0.59 z m -49.88,24.2 c -0.12,-0.25 -0.02,-0.55 0.23,-0.67 0.25,-0.12 0.55,-0.02 0.67,0.23 l 6.57,13.48 c 0.12,0.25 0.02,0.55 -0.23,0.67 -0.07,0.03 -0.15,0.05 -0.22,0.05 -0.19,0 -0.36,-0.1 -0.45,-0.28 z m -5.72,17.09 c -0.15,0.23 -0.46,0.3 -0.69,0.14 -0.23,-0.15 -5.67,-3.58 -13.44,2.03 -0.09,0.06 -0.19,0.09 -0.29,0.09 -0.16,0 -0.31,-0.07 -0.41,-0.21 -0.16,-0.22 -0.11,-0.54 0.11,-0.7 8.36,-6.04 14.33,-2.22 14.58,-2.06 0.23,0.17 0.29,0.48 0.14,0.71 z m 92.56,51.3 c 0.12,0.25 0.02,0.55 -0.23,0.67 -0.14,0.07 -14.34,6.93 -31.78,8.29 -0.01,0 -0.03,0 -0.04,0 -0.05,0 -0.11,-0.01 -0.16,-0.03 l 0.66,15.44 c 0.01,0.28 -0.2,0.51 -0.48,0.52 -0.01,0 -0.01,0 -0.02,0 -0.27,0 -0.49,-0.21 -0.5,-0.48 l -3.59,-84.38 c -0.01,-0.12 0.03,-0.24 0.11,-0.33 22.49,-28.47 17.35,-64.94 17.3,-65.31 -0.04,-0.27 0.15,-0.53 0.42,-0.57 0.27,-0.04 0.53,0.15 0.57,0.42 0.06,0.37 5.24,37.14 -17.39,65.93 l 2.88,67.83 c 0.05,-0.02 0.1,-0.04 0.16,-0.04 17.24,-1.35 31.27,-8.13 31.41,-8.2 0.26,-0.1 0.56,0 0.68,0.24 z M 93.16,168.04 c -0.72,0.03 -1.38,0.34 -1.87,0.87 -0.49,0.53 -0.74,1.22 -0.71,1.93 0.06,1.44 1.25,2.57 2.68,2.57 0.04,0 0.08,0 0.12,0 0.72,-0.03 1.38,-0.34 1.87,-0.87 0.49,-0.53 0.74,-1.22 0.7,-1.93 -0.05,-1.49 -1.31,-2.63 -2.79,-2.57 z m 1.36,3.82 c -0.31,0.33 -0.72,0.53 -1.17,0.54 -0.44,0.02 -0.88,-0.14 -1.21,-0.44 -0.33,-0.3 -0.53,-0.72 -0.54,-1.17 -0.02,-0.45 0.14,-0.88 0.44,-1.21 0.3,-0.33 0.72,-0.53 1.17,-0.55 0.02,0 0.05,0 0.07,0 0.42,0 0.83,0.16 1.14,0.44 0.33,0.31 0.53,0.72 0.54,1.17 0.01,0.45 -0.14,0.89 -0.44,1.22 z m -0.88,7.4 c -0.72,0.03 -1.38,0.34 -1.86,0.87 -0.49,0.53 -0.74,1.22 -0.71,1.93 0.03,0.71 0.34,1.38 0.87,1.87 0.5,0.46 1.14,0.71 1.81,0.71 0.04,0 0.08,0 0.12,0 1.48,-0.06 2.63,-1.32 2.57,-2.8 -0.06,-1.49 -1.31,-2.63 -2.8,-2.58 z m 0.19,4.37 c -0.45,0.02 -0.88,-0.14 -1.21,-0.44 -0.33,-0.3 -0.53,-0.72 -0.54,-1.17 -0.02,-0.45 0.14,-0.88 0.44,-1.21 0.3,-0.33 0.72,-0.53 1.17,-0.55 0.02,0 0.05,0 0.07,0 0.9,0 1.65,0.71 1.69,1.62 0.03,0.92 -0.69,1.71 -1.62,1.75 z m 0.29,6.85 c -0.72,0.03 -1.38,0.34 -1.87,0.87 -0.49,0.53 -0.74,1.22 -0.71,1.93 0.06,1.44 1.25,2.57 2.68,2.57 0.04,0 0.08,0 0.12,0 1.48,-0.06 2.63,-1.32 2.57,-2.8 -0.05,-1.48 -1.3,-2.62 -2.79,-2.57 z m 1.36,3.82 c -0.3,0.33 -0.72,0.53 -1.17,0.54 -0.92,0.04 -1.72,-0.68 -1.76,-1.61 -0.02,-0.45 0.14,-0.88 0.44,-1.21 0.31,-0.33 0.72,-0.53 1.17,-0.55 0.02,0 0.05,0 0.07,0 0.9,0 1.65,0.71 1.69,1.62 0.02,0.45 -0.13,0.88 -0.44,1.21 z m -0.88,7.4 c -1.48,0.06 -2.63,1.32 -2.57,2.8 0.03,0.72 0.34,1.38 0.87,1.87 0.5,0.46 1.14,0.71 1.81,0.71 0.04,0 0.08,0 0.12,0 1.48,-0.06 2.63,-1.32 2.57,-2.8 -0.03,-0.72 -0.34,-1.38 -0.87,-1.87 -0.52,-0.49 -1.21,-0.74 -1.93,-0.71 z m 1.36,3.83 c -0.3,0.33 -0.72,0.53 -1.17,0.54 -0.44,0.02 -0.88,-0.14 -1.21,-0.44 -0.33,-0.3 -0.53,-0.72 -0.55,-1.17 -0.02,-0.45 0.14,-0.88 0.44,-1.21 0.31,-0.33 0.72,-0.53 1.17,-0.54 0.02,0 0.05,0 0.07,0 0.42,0 0.83,0.16 1.14,0.44 0.33,0.31 0.53,0.72 0.54,1.17 0.03,0.44 -0.12,0.87 -0.43,1.21 z m -2.74,8.26 c -0.49,0.53 -0.74,1.22 -0.71,1.93 0.06,1.44 1.25,2.57 2.68,2.57 0.04,0 0.08,0 0.12,0 1.48,-0.06 2.63,-1.32 2.57,-2.8 -0.03,-0.72 -0.34,-1.38 -0.87,-1.86 -0.53,-0.49 -1.21,-0.74 -1.93,-0.71 -0.71,0.03 -1.37,0.34 -1.86,0.87 z m 1.98,0.13 c 0.42,0 0.83,0.16 1.14,0.44 0.33,0.3 0.53,0.72 0.55,1.17 0.02,0.45 -0.14,0.88 -0.44,1.21 -0.3,0.33 -0.72,0.53 -1.17,0.54 -0.44,0.02 -0.88,-0.14 -1.21,-0.44 -0.33,-0.3 -0.53,-0.72 -0.55,-1.17 -0.02,-0.45 0.14,-0.88 0.44,-1.21 0.3,-0.33 0.72,-0.53 1.17,-0.54 0.02,0 0.05,0 0.07,0 z m 0.37,10.22 c -0.72,0.03 -1.38,0.34 -1.87,0.87 -0.49,0.53 -0.74,1.21 -0.71,1.93 0.06,1.44 1.25,2.57 2.68,2.57 0.04,0 0.08,0 0.12,0 1.48,-0.06 2.63,-1.32 2.57,-2.8 -0.06,-1.48 -1.3,-2.6 -2.79,-2.57 z m 1.36,3.83 c -0.31,0.33 -0.72,0.53 -1.17,0.54 -0.91,0.08 -1.72,-0.68 -1.76,-1.61 -0.02,-0.45 0.14,-0.88 0.44,-1.21 0.3,-0.33 0.72,-0.53 1.17,-0.54 0.02,0 0.05,0 0.07,0 0.42,0 0.83,0.16 1.14,0.44 0.33,0.31 0.53,0.72 0.55,1.17 0.02,0.45 -0.14,0.88 -0.44,1.21 z m -7.53,-68.15 4.04,83.47 c 0.01,0.28 -0.2,0.51 -0.48,0.52 -0.01,0 -0.02,0 -0.02,0 -0.27,0 -0.49,-0.21 -0.5,-0.48 l -0.76,-15.75 c -0.08,0.16 -0.24,0.28 -0.43,0.29 -2.48,0.09 -4.86,0.13 -7.13,0.13 -17.46,0 -28.83,-2.42 -31.41,-3.03 l -1.3,11.48 c -0.03,0.25 -0.25,0.44 -0.5,0.44 -0.02,0 -0.04,0 -0.06,0 -0.27,-0.03 -0.47,-0.28 -0.44,-0.55 l 1.35,-11.91 c -1.7,-3.53 -1.83,-10.83 -1.34,-18.51 l -4.11,-7.22 c -0.14,-0.24 -0.05,-0.55 0.19,-0.68 0.24,-0.14 0.54,-0.05 0.68,0.19 l 3.37,5.91 c 0.86,-11.48 2.93,-23.22 3.08,-24.05 0.05,-0.27 0.3,-0.46 0.58,-0.4 0.27,0.05 0.45,0.31 0.4,0.58 -0.06,0.35 -6.14,34.82 -1.99,43.69 1.92,0.47 16.25,3.77 38.59,2.95 0.19,0 0.35,0.1 0.45,0.26 L 88.41,160.03 C 63.32,126.78 58.97,107.08 58.93,106.89 c -0.06,-0.27 0.12,-0.54 0.39,-0.59 0.27,-0.06 0.54,0.12 0.59,0.39 0.04,0.19 4.38,19.75 29.4,52.87 0.05,0.06 0.09,0.16 0.09,0.26 z m -41.61,47.8 c 0.15,0.23 0.08,0.54 -0.15,0.69 -0.08,0.05 -0.18,0.08 -0.27,0.08 -0.17,0 -0.33,-0.08 -0.42,-0.23 l -4.25,-6.7 c -0.15,-0.23 -0.08,-0.54 0.15,-0.69 0.23,-0.15 0.54,-0.08 0.69,0.15 z m 110.59,-90.64 c -0.06,0.22 -0.26,0.37 -0.48,0.37 -0.04,0 -0.08,-0.01 -0.13,-0.02 -15.98,-4.2 -18.89,-28.22 -19.01,-29.24 -0.03,-0.27 0.17,-0.52 0.44,-0.55 0.27,-0.03 0.52,0.17 0.55,0.44 0.03,0.24 2.96,24.36 18.27,28.39 0.27,0.07 0.43,0.35 0.36,0.61 z M 147.37,61.49 c -0.13,-0.24 -0.05,-0.55 0.19,-0.68 0.24,-0.13 0.55,-0.05 0.68,0.19 l 3.7,6.67 c 0.13,0.24 0.05,0.55 -0.19,0.68 -0.08,0.04 -0.16,0.06 -0.24,0.06 -0.18,0 -0.35,-0.09 -0.44,-0.26 z m -4.58,0.43 c -0.1,-0.26 0.02,-0.55 0.28,-0.65 0.26,-0.1 0.55,0.02 0.65,0.28 l 3.03,7.61 c 0.1,0.26 -0.02,0.55 -0.28,0.65 -0.06,0.02 -0.12,0.04 -0.18,0.04 -0.2,0 -0.39,-0.12 -0.46,-0.32 z m -2.09,9.42 -2.56,-7.61 c -0.09,-0.26 0.05,-0.55 0.31,-0.63 0.26,-0.09 0.54,0.05 0.63,0.31 l 2.56,7.61 c 0.09,0.26 -0.05,0.55 -0.31,0.63 -0.05,0.02 -0.11,0.03 -0.16,0.03 -0.21,0 -0.4,-0.13 -0.47,-0.34 z m -3.39,-16.97 c -0.13,0.24 -0.44,0.33 -0.68,0.2 -3.75,-2.07 -7.56,-0.02 -7.59,0 -0.08,0.04 -0.16,0.06 -0.24,0.06 -0.18,0 -0.35,-0.09 -0.44,-0.26 -0.13,-0.24 -0.04,-0.55 0.2,-0.68 0.17,-0.1 4.33,-2.33 8.56,0 0.24,0.14 0.33,0.44 0.19,0.68 z"
         fill="inherit"
         id="path215" />
    </g>
    <g
       id="change1_6"
       style="fill:#ffffff;fill-opacity:1">
      <path
         d="m 99.6,272.49 c -0.06,0 -0.12,-0.01 -0.18,-0.03 l -18.31,-7.04 c -0.26,-0.1 -0.39,-0.39 -0.29,-0.65 0.1,-0.26 0.39,-0.39 0.65,-0.29 l 18.31,7.04 c 0.26,0.1 0.39,0.39 0.29,0.65 -0.08,0.2 -0.27,0.32 -0.47,0.32 z M 96.78,74.25 76.58,78.04 c -0.72,0.14 -1.1,0.93 -0.76,1.58 1.15,2.13 4.11,6.03 10.27,5.66 8.79,-0.53 11.26,-6.75 11.94,-9.73 0.18,-0.76 -0.49,-1.44 -1.25,-1.3 z"
         fill="#EDE6DD"
         id="path218"
         style="fill:#ffffff;fill-opacity:1" />
    </g>
  </g>
  <rect
     style="fill:#ffffff;fill-opacity:1;stroke-width:0.844131"
     id="rect3408"
     width="407.74292"
     height="150.87816"
     x="16.27516"
     y="267.77982"
     transform="matrix(1,0,-0.00718994,0.99997415,0,0)" />
  <rect
     style="fill:#ffffff;fill-opacity:1"
     id="rect3410"
     width="14.644876"
     height="3.7968197"
     x="85.373512"
     y="290.26123" />
</svg>
