<?xml version="1.0" encoding="UTF-8" standalone="no"?>
<svg
   height="270.77692"
   preserveAspectRatio="xMidYMid meet"
   version="1.0"
   viewBox="-4.7 -4.6 205.27621 270.77691"
   width="205.2762"
   zoomAndPan="magnify"
   id="svg273"
   sodipodi:docname="1student.svg"
   inkscape:version="1.1 (c68e22c387, 2021-05-23)"
   xmlns:inkscape="http://www.inkscape.org/namespaces/inkscape"
   xmlns:sodipodi="http://sodipodi.sourceforge.net/DTD/sodipodi-0.dtd"
   xmlns="http://www.w3.org/2000/svg"
   xmlns:svg="http://www.w3.org/2000/svg">
  <defs
     id="defs277" />
  <sodipodi:namedview
     id="namedview275"
     pagecolor="#ffffff"
     bordercolor="#666666"
     borderopacity="1.0"
     inkscape:pageshadow="2"
     inkscape:pageopacity="0.0"
     inkscape:pagecheckerboard="0"
     showgrid="false"
     inkscape:zoom="1.8436483"
     inkscape:cx="1.356007"
     inkscape:cy="122.31183"
     inkscape:window-width="1841"
     inkscape:window-height="1057"
     inkscape:window-x="-8"
     inkscape:window-y="-8"
     inkscape:window-maximized="1"
     inkscape:current-layer="svg273"
     inkscape:snap-grids="true"
     fit-margin-top="0"
     fit-margin-left="0"
     fit-margin-right="0"
     fit-margin-bottom="0" />
  <g
     id="g271"
     transform="translate(-122.19095,-26.781877)">
    <g
       id="change1_7"
       style="fill:#ffffff;fill-opacity:1">
      <path
         d="m 268.37,396.17 c 0,0 2.97,7.79 19.29,27.63 16.32,19.85 8.16,25.41 -3.34,28.75 -11.5,3.34 -23.55,1.66 -26.89,-6.49 -3.21,-7.84 -5.38,-16.88 -11.31,-26.15 -5.93,-9.27 -1.12,-22.07 -1.12,-22.07 8.9,-14.09 23.37,-1.67 23.37,-1.67 z m -102.21,8.9 c -2.73,2.52 -5.83,4.6 -9.22,6.11 -14.2,6.29 -38.89,17.18 -20.71,29.09 14.64,9.59 35.89,-1.81 42.22,-6.52 2.02,-1.51 4.29,-2.66 6.7,-3.4 5.82,-1.78 9.77,-3.94 12.29,-5.68 2.44,-1.69 4.12,-4.32 4.56,-7.26 1.7,-11.16 -2.4,-19.49 -2.4,-19.49 -9.76,-12.08 -25.99,0.27 -33.44,7.15 z"
         fill="#EDE6DD"
         id="path223"
         style="fill:#ffffff;fill-opacity:1" />
    </g>
    <g
       id="change3_8"
       style="fill:#312e5f;fill-opacity:1">
      <path
         d="m 171.82,234.79 c 21.04,-37.52 84.82,-21.91 89.67,4.11 4.49,24.1 9.6,136.63 10.42,155.22 0.08,1.73 -0.7,3.41 -2.12,4.41 -8.72,6.1 -19.02,3.3 -23.87,1.38 -1.72,-0.68 -2.93,-2.24 -3.18,-4.07 C 240.03,376.37 223.88,262.2 218.17,266 c -5.68,3.78 -16.02,111.91 -17.83,131.29 -0.18,1.9 -1.39,3.54 -3.14,4.28 -11.35,4.76 -19.45,2.42 -23.46,0.45 -1.76,-0.87 -2.86,-2.67 -2.86,-4.64 l 0.32,-160.11 c -0.01,-0.87 0.2,-1.73 0.62,-2.48 z"
         fill="inherit"
         id="path226"
         style="fill:#312e5f;fill-opacity:1" />
    </g>
    <g
       id="change5_4"
       style="fill:#f7b252;fill-opacity:1">
      <path
         d="m 265.21,238.82 c 0,0 -50.5,6.71 -94.93,-1.28 l 18.97,-131.15 h 61.26 z"
         fill="#F28F69"
         id="path229"
         style="fill:#f7b252;fill-opacity:1" />
    </g>
    <g
       id="change2_4"
       style="fill:#d03372;fill-opacity:1">
      <path
         d="m 200.29,116.89 6.96,111.05 c 0.11,1.83 -0.95,3.52 -2.65,4.21 -9.23,3.72 -37.86,15.07 -40.07,13.47 -2.64,-1.92 5.11,-56.33 5.11,-56.33 0,0 -17.58,10.87 -37.48,0 -20.28,-11.08 -16.54,-25.25 -1.2,-42.03 15.34,-16.78 25.89,-30.12 34.04,-30.74 0,0 18.89,-14.01 28.74,-16.4 9.86,-2.41 6.55,16.77 6.55,16.77 z m 38.94,0.15 -6.96,111.05 c -0.11,1.83 0.95,3.52 2.65,4.21 9.23,3.72 37.86,15.07 40.07,13.47 2.64,-1.92 -5.11,-56.33 -5.11,-56.33 0,0 17.58,10.87 37.48,0 20.28,-11.08 16.54,-25.25 1.2,-42.03 -15.34,-16.78 -28.49,-32.8 -36.64,-33.42 0,0 -16.29,-11.33 -26.14,-13.73 -9.86,-2.4 -6.55,16.78 -6.55,16.78 z"
         fill="#6E9692"
         id="path232"
         style="fill:#d03372;fill-opacity:1" />
    </g>
    <g
       id="change3_9">
      <path
         d="m 238.37,170.81 c -0.11,0 -0.22,-0.04 -0.32,-0.11 -0.21,-0.18 -0.24,-0.49 -0.07,-0.7 12.55,-15.3 15.18,-26.72 15.52,-28.45 l -10.1,-11.23 c -0.1,-0.11 -0.14,-0.25 -0.12,-0.39 0.02,-0.14 0.1,-0.27 0.21,-0.35 l 10.79,-7.34 -10.23,-17.36 c -0.14,-0.24 -0.06,-0.54 0.18,-0.68 0.24,-0.14 0.54,-0.06 0.68,0.18 l 10.47,17.76 c 0.13,0.23 0.07,0.52 -0.15,0.67 l -10.7,7.28 9.88,10.99 c 0.1,0.11 0.14,0.26 0.12,0.41 -0.08,0.5 -2,12.37 -15.78,29.16 -0.09,0.09 -0.23,0.16 -0.38,0.16 z m -39.36,2.57 c 0.21,-0.18 0.24,-0.49 0.07,-0.7 -12.55,-15.3 -15.18,-26.72 -15.52,-28.45 L 193.66,133 c 0.1,-0.11 0.14,-0.25 0.13,-0.39 -0.02,-0.14 -0.1,-0.27 -0.22,-0.35 l -10.79,-7.34 10.23,-17.36 c 0.14,-0.24 0.06,-0.54 -0.18,-0.68 -0.24,-0.14 -0.54,-0.06 -0.68,0.18 l -10.47,17.76 c -0.13,0.23 -0.07,0.52 0.15,0.67 l 10.7,7.29 -9.88,10.99 c -0.1,0.11 -0.15,0.26 -0.12,0.41 0.08,0.5 2,12.37 15.78,29.16 0.1,0.12 0.24,0.18 0.39,0.18 0.11,-0.03 0.22,-0.07 0.31,-0.14 z m 72.89,39.44 c 0.11,-0.25 -0.01,-0.55 -0.27,-0.65 L 254,204.8 c -1.56,-0.65 -2.6,-2.11 -2.71,-3.8 l -0.56,-8.91 18.76,8.25 c 0.25,0.11 0.55,0 0.66,-0.26 0.11,-0.25 0,-0.55 -0.26,-0.66 l -19.51,-8.58 c -0.16,-0.07 -0.34,-0.05 -0.49,0.05 -0.14,0.1 -0.22,0.27 -0.21,0.44 l 0.61,9.73 c 0.13,2.08 1.4,3.86 3.32,4.67 l 17.63,7.37 c 0.06,0.03 0.13,0.04 0.19,0.04 0.21,-0.01 0.39,-0.13 0.47,-0.32 z m -104.92,1.68 17.63,-7.37 c 1.92,-0.8 3.19,-2.59 3.32,-4.67 l 0.61,-9.73 c 0.01,-0.17 -0.07,-0.34 -0.21,-0.44 -0.14,-0.1 -0.33,-0.12 -0.49,-0.05 l -19.51,8.58 c -0.25,0.11 -0.37,0.41 -0.26,0.66 0.11,0.25 0.41,0.37 0.66,0.26 l 18.75,-8.25 -0.56,8.91 c -0.11,1.69 -1.14,3.15 -2.71,3.81 l -17.63,7.37 c -0.25,0.11 -0.38,0.4 -0.27,0.65 0.08,0.19 0.27,0.31 0.46,0.31 0.08,0 0.15,-0.02 0.21,-0.04 z"
         fill="inherit"
         id="path235" />
    </g>
    <g
       id="change5_5"
       style="fill:#f7b252;fill-opacity:1">
      <path
         d="m 251.48,102.7 c -3.23,15.2 -15.41,30.84 -34.42,30.84 -19.01,0 -31.19,-15.2 -34.42,-30.84 -3.19,-15.47 15.41,-28.61 34.42,-28.61 19.01,0 37.7,13.16 34.42,28.61 z"
         fill="#F28F69"
         id="path238"
         style="fill:#f7b252;fill-opacity:1" />
    </g>
    <g
       id="change1_8"
       style="fill:#ffffff;fill-opacity:1">
      <path
         d="m 235.53,103.22 c -1.5,7.04 -6.57,14.25 -14.49,16.09 -1.25,0.29 -2.58,0.45 -3.97,0.45 -1.28,0 -2.51,-0.13 -3.67,-0.37 -8.09,-1.69 -13.28,-8.84 -14.79,-16.18 -1.72,-8.29 8.26,-15.34 18.46,-15.34 10.19,0.01 20.21,7.07 18.46,15.35 z M 219.75,266.9 c 0.16,-0.22 0.11,-0.54 -0.12,-0.7 l -12.08,-8.61 c -0.23,-0.16 -0.54,-0.11 -0.7,0.12 -0.16,0.22 -0.11,0.54 0.12,0.7 l 12.08,8.61 c 0.09,0.06 0.19,0.09 0.29,0.09 0.16,0 0.32,-0.07 0.41,-0.21 z"
         fill="#EDE6DD"
         id="path241"
         style="fill:#ffffff;fill-opacity:1" />
    </g>
    <g
       id="change4_7">
      <path
         d="m 239.73,63.02 c 0,8.89 -3.68,17.73 -10.4,21.73 -0.49,0.3 -0.98,0.58 -1.47,0.85 l 1.07,10.42 c 0.15,1.51 -0.55,2.97 -1.82,3.8 l -10.03,6.5 v 0.07 l -0.06,-0.04 -0.06,0.04 v -0.07 l -10.03,-6.5 c -1.27,-0.82 -1.98,-2.29 -1.82,-3.8 l 1.04,-10.1 c -0.53,-0.29 -1.06,-0.58 -1.61,-0.89 -6.92,-3.94 -10.79,-12.94 -10.79,-22.01 0,-14.03 10.29,-25.4 22.99,-25.4 12.69,0 22.99,11.37 22.99,25.4 z"
         fill="#f4bba8"
         id="path244" />
    </g>
    <g
       id="change3_10">
      <path
         d="m 230.15,55.2 c -0.25,0 -0.5,-0.1 -0.7,-0.29 -0.13,-0.12 -2.86,-2.67 -7.7,-1.37 -0.53,0.15 -1.08,-0.17 -1.22,-0.71 -0.14,-0.53 0.17,-1.08 0.71,-1.22 6,-1.61 9.47,1.74 9.62,1.88 0.39,0.39 0.4,1.02 0.01,1.41 -0.21,0.2 -0.47,0.3 -0.72,0.3 z m -26.36,0.34 c 0.03,-0.03 3.23,-3.14 7.98,-2.95 0.54,0.03 1.02,-0.41 1.04,-0.96 0.02,-0.55 -0.41,-1.02 -0.96,-1.04 -5.65,-0.2 -9.31,3.38 -9.46,3.53 -0.39,0.39 -0.39,1.02 0,1.41 0.2,0.2 0.45,0.29 0.71,0.29 0.24,0.01 0.5,-0.09 0.69,-0.28 z m 23.22,3.19 c -1.66,0 -3.01,1.35 -3.01,3.01 0,1.66 1.35,3.01 3.01,3.01 1.66,0 3.01,-1.35 3.01,-3.01 0,-1.67 -1.35,-3.01 -3.01,-3.01 z m -19.87,0 c -1.66,0 -3.01,1.35 -3.01,3.01 0,1.66 1.35,3.01 3.01,3.01 1.66,0 3.01,-1.35 3.01,-3.01 0,-1.67 -1.35,-3.01 -3.01,-3.01 z m 16.62,-28.29 c 0,0 -1.14,-5.12 -8.33,-5.12 -8.03,0 -23.54,5.97 -27.75,11.09 -4.21,5.12 5.12,1.22 5.12,1.22 0,0 -6,3.9 -6.21,8.1 -0.21,4.2 4.22,17.81 5.37,18.12 0.38,0.1 1.72,0.77 2.33,-0.82 2.72,-7.11 6.79,-15.1 13.24,-19.15 3.62,-2.28 7.63,-4.14 11.26,-4.33 0,0 2.6,4.19 6.73,5.04 4.13,0.85 0,-4.96 0,-4.96 l 1.68,1.62 c 4.68,4.51 7.94,10.28 9.47,16.6 0.61,2.5 1.24,4.55 1.69,4.64 4.66,0.9 6.11,-14.9 5.58,-19.26 -0.54,-4.36 -6.11,-7.96 -6.11,-7.96 0,0 4.35,1.62 5.27,-0.75 0.92,-2.4 -13.84,-7.9 -19.34,-4.08 z m -7.02,58.66 c -3.72,0 -6.76,-1.14 -10.11,-2.91 1.31,4.22 5.47,7.3 10.39,7.3 5.07,0 9.32,-3.27 10.49,-7.69 -3.51,1.97 -6.8,3.3 -10.77,3.3 z m 8.35,43.97 c 7.61,-1.93 12.82,-6.5 13.03,-6.69 0.21,-0.18 0.22,-0.5 0.04,-0.71 -0.18,-0.21 -0.5,-0.23 -0.71,-0.04 -0.05,0.05 -5.25,4.6 -12.62,6.47 -0.27,0.07 -0.43,0.34 -0.36,0.61 0.06,0.23 0.26,0.38 0.48,0.38 0.06,0 0.1,-0.01 0.14,-0.02 z m -17.16,-0.8 c 0.07,-0.27 -0.08,-0.54 -0.35,-0.61 -1.63,-0.45 -6.44,-2.79 -6.49,-2.81 -0.25,-0.12 -0.55,-0.02 -0.67,0.23 -0.12,0.25 -0.02,0.55 0.23,0.67 0.2,0.1 4.94,2.41 6.66,2.88 0.04,0.01 0.09,0.02 0.13,0.02 0.23,-0.01 0.43,-0.15 0.49,-0.38 z"
         fill="inherit"
         id="path247" />
    </g>
    <g
       id="change4_8">
      <path
         d="m 200.29,67.75 c 0,4.17 -1.84,7.94 -5.62,7.94 -3.78,0 -8.08,-3.77 -8.08,-7.94 0,-4.17 3.07,-7.54 6.85,-7.54 3.78,0 6.85,3.38 6.85,7.54 z m 33.46,0 c 0,4.17 1.84,7.94 5.62,7.94 3.78,0 8.08,-3.77 8.08,-7.94 0,-4.17 -3.07,-7.54 -6.85,-7.54 -3.79,0 -6.85,3.38 -6.85,7.54 z"
         fill="#f4bba8"
         id="path250" />
    </g>
    <g
       id="change2_5"
       style="fill:#d03372;fill-opacity:1">
      <path
         d="m 222.88,113.72 -1.84,5.59 c -1.25,0.29 -2.58,0.45 -3.97,0.45 -1.28,0 -2.51,-0.13 -3.67,-0.37 l -2.3,-5.47 c -0.36,-0.85 -0.07,-1.83 0.7,-2.35 l 5.23,-3.56 5.12,3.49 c 0.7,0.5 1.01,1.4 0.73,2.22 z"
         fill="#6E9692"
         id="path253"
         style="fill:#d03372;fill-opacity:1" />
    </g>
    <g
       id="change3_11">
      <path
         d="m 216.62,72.89 c -0.14,0 -0.28,-0.06 -0.38,-0.18 -0.2,-0.23 -1.92,-2.3 -2.17,-3.36 -0.28,-1.17 1.77,-2.8 2.66,-3.44 0.22,-0.16 0.54,-0.11 0.7,0.11 0.16,0.22 0.11,0.54 -0.11,0.7 -1.35,0.98 -2.33,2.1 -2.27,2.4 0.15,0.62 1.28,2.14 1.96,2.94 0.18,0.21 0.15,0.53 -0.06,0.7 -0.1,0.09 -0.22,0.13 -0.33,0.13 z m 12.11,0.68 c 0.2,-0.19 0.2,-0.51 0,-0.71 -0.2,-0.2 -0.51,-0.2 -0.71,0 -0.35,0.35 -8.74,8.48 -19.5,2.2 -0.24,-0.14 -0.54,-0.06 -0.68,0.18 -0.14,0.24 -0.06,0.54 0.18,0.68 3.11,1.81 6.04,2.47 8.68,2.47 7.07,0 11.96,-4.76 12.03,-4.82 z m -38.98,-5.61 c 0.19,-1.77 0.76,-2.99 1.69,-3.62 1.12,-0.76 2.44,-0.4 2.45,-0.39 v 0 c 0.27,0.07 0.54,-0.07 0.62,-0.34 0.08,-0.27 -0.07,-0.54 -0.34,-0.62 -0.07,-0.02 -1.76,-0.5 -3.28,0.51 -1.19,0.8 -1.91,2.26 -2.14,4.35 -0.03,0.27 0.17,0.52 0.44,0.55 0.02,0 0.04,0 0.05,0 0.27,0.01 0.48,-0.18 0.51,-0.44 z m 55.09,0.45 c 0.27,-0.03 0.47,-0.28 0.44,-0.55 -0.23,-2.09 -0.95,-3.55 -2.14,-4.35 -1.52,-1.01 -3.21,-0.53 -3.28,-0.51 -0.26,0.08 -0.42,0.35 -0.34,0.62 0.08,0.26 0.35,0.42 0.62,0.34 0.01,0 1.33,-0.37 2.45,0.39 0.93,0.63 1.5,1.84 1.69,3.62 0.03,0.26 0.24,0.45 0.5,0.45 0.02,-0.01 0.04,-0.01 0.06,-0.01 z m -38.9,47.56 11.08,-7.36 11.08,7.36 c 0.23,0.15 0.54,0.09 0.69,-0.14 0.15,-0.23 0.09,-0.54 -0.14,-0.69 L 217.3,107.6 c -0.17,-0.11 -0.38,-0.11 -0.55,0 l -11.36,7.54 c -0.23,0.15 -0.29,0.46 -0.14,0.69 0.1,0.15 0.25,0.22 0.42,0.22 0.09,0 0.18,-0.02 0.27,-0.08 z M 162.9,164.4 c 0.15,-0.23 0.08,-0.54 -0.15,-0.69 -19.87,-12.9 -31.67,-3.19 -31.79,-3.09 -0.21,0.18 -0.24,0.49 -0.06,0.7 0.18,0.21 0.49,0.24 0.7,0.06 0.11,-0.09 11.39,-9.31 30.6,3.17 0.08,0.05 0.18,0.08 0.27,0.08 0.17,0 0.34,-0.08 0.43,-0.23 z m 10.53,-9.47 c 0.27,-0.06 0.44,-0.33 0.38,-0.6 L 165.5,116.4 c -0.06,-0.27 -0.33,-0.44 -0.6,-0.38 -0.27,0.06 -0.44,0.33 -0.38,0.6 l 8.31,37.93 c 0.05,0.23 0.26,0.39 0.49,0.39 0.03,0 0.07,0 0.11,-0.01 z m 94.18,0.46 4.33,-39.78 c 0.03,-0.27 -0.17,-0.52 -0.44,-0.55 -0.25,-0.02 -0.52,0.17 -0.55,0.44 l -4.33,39.78 c -0.03,0.27 0.17,0.52 0.44,0.55 0.02,0 0.04,0 0.05,0 0.26,0 0.47,-0.19 0.5,-0.44 z m 6.86,8.5 c 11.69,-8.76 32.61,-5.95 32.82,-5.92 0.27,0.04 0.53,-0.15 0.56,-0.43 0.04,-0.27 -0.15,-0.53 -0.43,-0.56 -0.87,-0.12 -21.53,-2.9 -33.56,6.11 -0.22,0.17 -0.27,0.48 -0.1,0.7 0.1,0.13 0.25,0.2 0.4,0.2 0.12,0 0.22,-0.03 0.31,-0.1 z"
         fill="inherit"
         id="path256" />
    </g>
    <g
       id="change3_12">
      <path
         d="m 169.17,195.71 c -0.2,0 -0.4,-0.02 -0.6,-0.06 -1.62,-0.33 -2.67,-1.91 -2.34,-3.54 6.91,-34.07 9.75,-85.36 9.78,-85.88 0.09,-1.65 1.49,-2.92 3.16,-2.83 1.65,0.09 2.92,1.5 2.83,3.16 -0.03,0.52 -2.89,52.24 -9.89,86.75 -0.29,1.41 -1.54,2.4 -2.94,2.4 z m 101.55,-0.06 c 1.62,-0.33 2.67,-1.91 2.34,-3.54 -6.91,-34.07 -9.75,-85.36 -9.78,-85.88 -0.09,-1.65 -1.53,-2.92 -3.16,-2.83 -1.65,0.09 -2.92,1.5 -2.83,3.16 0.03,0.52 2.89,52.24 9.89,86.75 0.29,1.42 1.54,2.4 2.94,2.4 0.2,0 0.4,-0.02 0.6,-0.06 z m -7.7,215.9 c 5.39,-5.19 12.05,-3.72 12.12,-3.71 0.4,0.09 0.81,-0.16 0.9,-0.56 0.09,-0.4 -0.16,-0.81 -0.56,-0.9 -0.3,-0.07 -7.5,-1.68 -13.5,4.09 -0.3,0.29 -0.31,0.76 -0.02,1.06 0.15,0.15 0.34,0.23 0.54,0.23 0.19,0 0.38,-0.07 0.52,-0.21 z m 4.8,6.4 c 5.39,-5.19 12.05,-3.72 12.12,-3.71 0.4,0.09 0.81,-0.16 0.9,-0.56 0.09,-0.4 -0.16,-0.81 -0.56,-0.9 -0.3,-0.07 -7.51,-1.68 -13.5,4.09 -0.3,0.29 -0.31,0.76 -0.02,1.06 0.15,0.15 0.34,0.23 0.54,0.23 0.19,0 0.37,-0.07 0.52,-0.21 z m 4.47,8.26 c 5.39,-5.19 12.05,-3.72 12.12,-3.71 0.4,0.09 0.81,-0.16 0.9,-0.56 0.09,-0.4 -0.16,-0.81 -0.56,-0.9 -0.3,-0.07 -7.5,-1.68 -13.5,4.09 -0.3,0.29 -0.31,0.76 -0.02,1.06 0.15,0.15 0.34,0.23 0.54,0.23 0.19,0 0.37,-0.07 0.52,-0.21 z m -98.17,-10.93 c 0.39,-0.13 0.61,-0.55 0.48,-0.94 -2.29,-7.04 -8.5,-8.5 -8.76,-8.56 -0.4,-0.08 -0.8,0.17 -0.89,0.57 -0.09,0.4 0.16,0.8 0.57,0.9 0.23,0.05 5.65,1.35 7.66,7.56 0.1,0.32 0.4,0.52 0.71,0.52 0.07,-0.01 0.15,-0.02 0.23,-0.05 z m -6.22,3.37 c 0.39,-0.13 0.61,-0.55 0.48,-0.94 -2.29,-7.04 -8.5,-8.5 -8.76,-8.56 -0.4,-0.09 -0.8,0.17 -0.89,0.57 -0.09,0.4 0.16,0.8 0.57,0.9 0.23,0.05 5.65,1.35 7.66,7.56 0.1,0.32 0.4,0.52 0.71,0.52 0.08,-0.01 0.15,-0.02 0.23,-0.05 z m -7.65,4.07 c 0.39,-0.13 0.61,-0.55 0.48,-0.94 -2.29,-7.04 -8.5,-8.5 -8.76,-8.56 -0.41,-0.09 -0.8,0.17 -0.89,0.57 -0.09,0.4 0.17,0.81 0.57,0.9 0.06,0.01 5.64,1.32 7.66,7.55 0.1,0.32 0.4,0.52 0.71,0.52 0.08,0 0.15,-0.01 0.23,-0.04 z"
         fill="inherit"
         id="path259" />
    </g>
    <g
       id="change1_9"
       style="fill:#ffffff;fill-opacity:1">
      <path
         d="m 150.8,174.76 c 1.37,-6.88 6.6,-11.64 11.68,-10.63 5.08,1.01 8.09,7.41 6.72,14.29 -1.37,6.88 -6.6,11.64 -11.68,10.63 -5.08,-1.01 -8.09,-7.41 -6.72,-14.29 z m 138.27,-0.54 c -1.37,-6.88 -6.6,-11.64 -11.68,-10.63 -5.08,1.01 -8.09,7.41 -6.72,14.29 1.37,6.88 6.6,11.64 11.68,10.63 5.09,-1.01 8.09,-7.41 6.72,-14.29 z"
         fill="#EDE6DD"
         id="path262"
         style="fill:#ffffff;fill-opacity:1" />
    </g>
    <g
       id="change4_9">
      <path
         d="m 156.26,180.97 c -0.61,-2.42 -0.9,-5.94 0.71,-9.85 0.42,-1.03 1.07,-1.94 1.84,-2.75 2.98,-3.1 11.37,-11.67 13.95,-12.51 3.16,-1.02 12.2,4.56 12.09,6.73 -0.11,2.16 -3.37,3.45 -3.37,3.45 0,0 1.8,1.3 1.24,3.9 -0.56,2.6 -2.87,2.34 -2.87,2.34 0,0 2.75,4.88 -1.5,6.3 0,0 2.44,4.38 -1.58,5.13 -2.9,0.54 -11.59,0.62 -16.23,0.62 -2.02,0 -3.78,-1.38 -4.28,-3.36 z m 127.35,-0.54 c 0.61,-2.42 0.9,-5.94 -0.71,-9.85 -0.42,-1.03 -1.07,-1.94 -1.84,-2.75 -2.98,-3.1 -11.37,-11.67 -13.95,-12.51 -3.16,-1.02 -12.2,4.56 -12.09,6.73 0.11,2.16 3.37,3.45 3.37,3.45 0,0 -1.8,1.3 -1.24,3.9 0.56,2.6 2.87,2.34 2.87,2.34 0,0 -2.75,4.88 1.5,6.3 0,0 -2.44,4.38 1.58,5.13 2.9,0.54 11.59,0.62 16.23,0.62 2.03,0 3.78,-1.39 4.28,-3.36 z"
         fill="#f4bba8"
         id="path265" />
    </g>
    <g
       id="change3_13">
      <path
         d="m 182.48,166.44 c -0.09,0 -0.18,-0.02 -0.26,-0.07 -0.05,-0.03 -4.63,-2.78 -7.65,-3.78 -0.26,-0.09 -0.4,-0.37 -0.32,-0.63 0.09,-0.26 0.37,-0.4 0.63,-0.32 3.12,1.04 7.66,3.76 7.85,3.88 0.24,0.14 0.31,0.45 0.17,0.69 -0.08,0.15 -0.25,0.23 -0.42,0.23 z m -1.33,5.85 c 0.09,-0.26 -0.05,-0.55 -0.31,-0.63 -0.23,-0.08 -5.72,-1.95 -8.42,-2.38 -0.28,-0.05 -0.53,0.14 -0.57,0.41 -0.04,0.27 0.14,0.53 0.41,0.57 2.62,0.42 8.2,2.32 8.26,2.34 0.05,0.02 0.11,0.03 0.16,0.03 0.2,0 0.4,-0.13 0.47,-0.34 z m -1.66,6.2 c 0.06,-0.27 -0.11,-0.54 -0.37,-0.6 -0.24,-0.06 -6.02,-1.39 -8.16,-1.24 -0.28,0.02 -0.48,0.26 -0.46,0.53 0.02,0.28 0.26,0.49 0.53,0.46 2.01,-0.14 7.81,1.2 7.86,1.21 0.04,0.01 0.08,0.01 0.11,0.01 0.23,0.02 0.43,-0.13 0.49,-0.37 z m 78.16,-12.66 c 0.05,-0.03 4.63,-2.78 7.65,-3.78 0.26,-0.09 0.4,-0.37 0.32,-0.63 -0.09,-0.26 -0.37,-0.41 -0.63,-0.32 -3.13,1.04 -7.66,3.76 -7.85,3.88 -0.24,0.14 -0.31,0.45 -0.17,0.69 0.09,0.16 0.26,0.24 0.43,0.24 0.08,-0.01 0.17,-0.03 0.25,-0.08 z m 1.71,6.23 c 0.06,-0.02 5.64,-1.92 8.26,-2.34 0.27,-0.04 0.46,-0.3 0.42,-0.57 -0.04,-0.27 -0.31,-0.46 -0.57,-0.41 -2.7,0.43 -8.19,2.3 -8.42,2.38 -0.26,0.09 -0.4,0.37 -0.31,0.63 0.07,0.21 0.27,0.34 0.47,0.34 0.05,0 0.1,-0.01 0.15,-0.03 z m 1.63,6.27 c 0.06,-0.01 5.87,-1.35 7.86,-1.21 0.27,0.01 0.51,-0.19 0.53,-0.46 0.02,-0.28 -0.19,-0.51 -0.46,-0.53 -2.15,-0.15 -7.91,1.18 -8.16,1.24 -0.27,0.06 -0.44,0.33 -0.38,0.6 0.05,0.23 0.26,0.39 0.49,0.39 0.05,-0.02 0.08,-0.02 0.12,-0.03 z"
         fill="inherit"
         id="path268" />
    </g>
  </g>
  <rect
     style="fill:#ffffff;fill-opacity:1;stroke-width:0.844131"
     id="rect3408"
     width="407.74292"
     height="150.87816"
     x="-102.14581"
     y="268.86639"
     transform="matrix(1,0,-0.00718994,0.99997415,0,0)" />
  <rect
     style="fill:#ffffff;fill-opacity:1"
     id="rect3410"
     width="14.644876"
     height="3.7968197"
     x="-33.055264"
     y="291.34778" />
</svg>
