<?xml version="1.0" encoding="UTF-8" standalone="no"?>
<svg
   height="292.32166"
   preserveAspectRatio="xMidYMid meet"
   version="1.0"
   viewBox="-4.7 -4.6 426.47814 292.32165"
   width="426.47812"
   zoomAndPan="magnify"
   id="svg273"
   sodipodi:docname="3students_1.svg"
   inkscape:version="1.1 (c68e22c387, 2021-05-23)"
   xmlns:inkscape="http://www.inkscape.org/namespaces/inkscape"
   xmlns:sodipodi="http://sodipodi.sourceforge.net/DTD/sodipodi-0.dtd"
   xmlns="http://www.w3.org/2000/svg"
   xmlns:svg="http://www.w3.org/2000/svg">
  <defs
     id="defs277" />
  <sodipodi:namedview
     id="namedview275"
     pagecolor="#ffffff"
     bordercolor="#666666"
     borderopacity="1.0"
     inkscape:pageshadow="2"
     inkscape:pageopacity="0.0"
     inkscape:pagecheckerboard="0"
     showgrid="false"
     inkscape:zoom="1.3036562"
     inkscape:cx="2.3012202"
     inkscape:cy="202.89092"
     inkscape:window-width="1842"
     inkscape:window-height="1057"
     inkscape:window-x="-8"
     inkscape:window-y="-8"
     inkscape:window-maximized="1"
     inkscape:current-layer="svg273"
     inkscape:snap-grids="true"
     fit-margin-top="0"
     fit-margin-left="0"
     fit-margin-right="0"
     fit-margin-bottom="0" />
  <g
     id="g183"
     transform="translate(-4.5292499,-5.3038217)">
    <g
       id="change1_1"
       style="fill:#ffffff;fill-opacity:1">
      <path
         d="m 392.61,385.57 c 2.84,2.84 4.79,10.53 5.83,15.67 0.63,3.12 1.68,6.13 3.12,8.97 4.73,9.29 13.48,31.6 -9.45,35.33 -21.76,3.54 -21.3,-17.14 -19.68,-27.79 0.56,-3.67 0.41,-7.39 -0.21,-11.05 -1.13,-6.65 -0.25,-14.4 -0.25,-14.4 0.32,-8.14 16.23,-11.15 20.64,-6.73 z m -124.04,-9.48 c -5.49,1.54 -18.54,11.52 -32.11,15.95 -16.42,5.36 -20.96,15.06 -18.21,19.49 5.62,9.08 32.48,1.89 38.3,1.7 5.82,-0.19 26.3,3.41 30.53,-4.13 4.23,-7.54 0.62,-22.5 0.62,-22.5 -0.25,-10.4 -12.67,-12.32 -19.13,-10.51 z"
         fill="#EDE6DD"
         id="path144"
         style="fill:#ffffff;fill-opacity:1" />
    </g>
    <g
       id="change2_1"
       style="fill:#d03372;fill-opacity:1">
      <path
         d="m 376.18,219.84 -46.21,12.1 -31.95,-10.79 17.15,-116.6 24.03,-10.18 35.62,15.51 z"
         fill="#6E9692"
         id="path147"
         style="fill:#d03372;fill-opacity:1" />
    </g>
    <g
       id="change3_1"
       style="fill:#312e5f;fill-opacity:1">
      <path
         d="m 372.62,212.59 c 18.69,5.54 18.38,38.64 17.94,47.65 -0.07,1.41 -0.26,2.8 -0.57,4.17 -0.46,2.02 -1.18,5.22 -1.7,7.32 -2.07,8.41 5.41,111.28 5.94,116.79 -6.81,8.79 -15.04,7.76 -19.1,6.5 -1.54,-0.48 -2.73,-1.72 -3.18,-3.28 L 337.93,266.71 c 0,0 -47.6,123.36 -49.41,124.24 -10.85,5.25 -26.01,-7.42 -26.01,-7.42 13.8,-83.61 33.47,-164.87 33.25,-167.24 0,-0.03 0.02,-0.05 0.04,-0.05 2.18,-0.1 76.26,-3.62 76.81,-3.65 0,0 0,0 0.01,0 z m 29.17,221.27 c -0.14,0.17 -0.38,0.22 -0.58,0.13 -0.13,-0.06 -13.11,-5.54 -20.98,4.31 -0.1,0.12 -0.24,0.19 -0.39,0.19 -0.05,0 -0.1,-0.01 -0.14,-0.02 -0.29,-0.09 -7.2,-2.31 -8.35,-14.94 -0.03,-0.28 0.18,-0.52 0.45,-0.54 0.27,-0.02 0.52,0.18 0.54,0.45 0.95,10.42 6.04,13.36 7.34,13.95 7.6,-9.12 19.34,-5.29 21.56,-4.46 0.9,-1.25 4.27,-6.73 2.58,-16.51 -0.05,-0.27 0.14,-0.53 0.41,-0.58 0.27,-0.04 0.53,0.14 0.58,0.41 2.01,11.67 -2.81,17.37 -3.02,17.61 z M 378.7,406.79 c 0.23,0 0.45,-0.08 0.64,-0.23 5.44,-4.55 11.53,-2.33 11.79,-2.23 0.52,0.2 1.09,-0.06 1.29,-0.58 0.2,-0.52 -0.06,-1.09 -0.58,-1.29 -0.3,-0.11 -7.42,-2.75 -13.78,2.56 -0.42,0.35 -0.48,0.99 -0.13,1.41 0.2,0.24 0.48,0.36 0.77,0.36 z m 0.41,2.91 c -0.42,0.35 -0.48,0.99 -0.13,1.41 0.2,0.24 0.48,0.36 0.77,0.36 0.23,0 0.45,-0.08 0.64,-0.23 5.44,-4.55 11.53,-2.33 11.79,-2.23 0.51,0.2 1.09,-0.06 1.29,-0.58 0.2,-0.52 -0.06,-1.09 -0.58,-1.29 -0.29,-0.12 -7.41,-2.76 -13.78,2.56 z m 0.54,4.67 c -0.42,0.35 -0.48,0.99 -0.13,1.41 0.2,0.24 0.48,0.36 0.77,0.36 0.23,0 0.45,-0.08 0.64,-0.23 5.44,-4.54 11.53,-2.33 11.79,-2.23 0.52,0.2 1.09,-0.06 1.29,-0.58 0.2,-0.52 -0.06,-1.09 -0.58,-1.29 -0.29,-0.12 -7.41,-2.76 -13.78,2.56 z m -91.25,-9.68 c -29.16,6.53 -50.84,2.07 -53.63,1.44 -1.71,-8.1 -9.32,-9.22 -9.4,-9.23 -0.27,-0.05 -0.52,0.15 -0.56,0.43 -0.04,0.28 0.15,0.53 0.43,0.56 0.29,0.04 7.17,1.07 8.62,8.75 0.04,0.19 0.18,0.34 0.37,0.39 0.14,0.04 8.84,2.17 22.83,2.17 8.73,0 19.52,-0.83 31.57,-3.53 0.27,-0.06 0.44,-0.33 0.38,-0.6 -0.07,-0.27 -0.33,-0.44 -0.61,-0.38 z"
         fill="inherit"
         id="path150"
         style="fill:#312e5f;fill-opacity:1" />
    </g>
    <g
       id="change4_1">
      <path
         d="m 358.33,80.47 c -1,0.77 -1.98,1.5 -2.96,2.17 l 3.51,15.86 c 0,0 -1.69,11.38 -16.88,11.38 C 331.79,109.64 327.98,98.5 327.98,98.5 l 3.49,-15.8 c -0.79,-0.53 -1.57,-1.07 -2.34,-1.64 -5.94,-4.38 -8.88,-12.71 -8.88,-20.86 0,-14.08 10.38,-25.51 23.18,-25.51 12.8,0 23.17,11.43 23.17,25.51 -0.01,7.84 -2.64,15.9 -8.27,20.27 z"
         fill="#f4bba8"
         id="path153" />
    </g>
    <g
       id="change3_2">
      <path
         d="m 355.14,82.8 c -1.57,4.76 -6.22,8.2 -11.71,8.2 -5.45,0 -10.09,-3.41 -11.7,-8.12 3.58,2.34 7.37,4.09 11.7,4.09 4.39,0 8.07,-1.7 11.71,-4.17 z m -3.07,-33.79 c -2.7,0.74 -4.63,2.24 -4.33,3.35 0.3,1.11 2.74,1.42 5.43,0.69 2.7,-0.74 4.63,-2.24 4.33,-3.35 -0.3,-1.12 -2.74,-1.43 -5.43,-0.69 z m -22.73,0.68 c -0.3,1.12 1.63,2.62 4.33,3.35 2.7,0.74 5.13,0.43 5.43,-0.69 0.3,-1.12 -1.63,-2.62 -4.33,-3.35 -2.69,-0.73 -5.13,-0.42 -5.43,0.69 z"
         fill="inherit"
         id="path156" />
    </g>
    <g
       id="change5_1"
       style="fill:#f7b252;fill-opacity:1">
      <path
         d="m 376.26,52.72 c -1.83,1.75 -5.94,-0.3 -5.94,-0.3 0,0 0.15,3.58 -5.71,4.24 -5.86,0.67 -5.74,-9.04 -5.74,-9.04 -11.83,-1.97 -14.57,-10.96 -14.57,-10.96 2.33,4.11 5.17,12.1 2.59,12.48 -2.59,0.38 -7.38,-6.85 -7.38,-6.85 0,0 5.17,8.22 1.75,8.14 -3.42,-0.08 -8.83,-9.87 -8.83,-9.87 0,0 3.41,8.78 1.79,10.03 -0.85,0.65 -4.45,-1.21 -7,-4.89 -1.43,10.34 -5.23,21.62 -8.39,17.68 -5.07,-6.32 -2.12,-13.28 -2.12,-13.28 0,0 -4.79,4.34 -6.85,1.83 -2.05,-2.51 3.5,-4.98 5.94,-12.44 1.79,-5.48 8.62,-8.95 9.86,-9.06 10.27,-17.96 42.31,-2.59 44.48,1.18 0.93,1.61 -4.33,1.81 -6.96,1.26 6.67,2.03 14.24,9.82 12.25,11.95 -2.13,2.28 -6.54,-1.83 -6.54,-1.83 0.92,3.8 9.2,7.98 7.37,9.73 z"
         fill="#F28F69"
         id="path159"
         style="fill:#f7b252;fill-opacity:1" />
    </g>
    <g
       id="change4_2">
      <path
         d="m 327.14,60.26 c 2.19,4.86 1.19,10.04 -2.23,11.59 -3.42,1.54 -8.8,-1.14 -10.99,-6 -2.19,-4.86 -0.36,-10.05 3.05,-11.59 3.43,-1.54 7.98,1.15 10.17,6 z m 32.57,0 c -2.19,4.86 -1.19,10.04 2.23,11.59 3.42,1.54 8.8,-1.14 10.99,-6 2.19,-4.86 0.36,-10.05 -3.05,-11.59 -3.41,-1.54 -7.98,1.15 -10.17,6 z"
         fill="#f4bba8"
         id="path162" />
    </g>
    <g
       id="change3_3"
       style="fill:#312e5f;fill-opacity:1">
      <path
         d="m 348.56,107.29 -1.77,-12.57 c -0.17,-1.19 0.52,-2.33 1.66,-2.73 l 12.48,-4.45 c 0.94,-0.34 1.96,0.24 2.16,1.22 l 1.45,7.17 c 0,0 23.74,9.99 30.36,15.01 6.62,5.02 24.66,78.76 23.74,85.16 -0.92,6.4 -4.68,69.63 -34.63,45.89 l -3.5,-2.89 -24.64,5.49 c -2.23,0.22 -4.17,-1.51 -4.23,-3.75 z m -13.99,2.53 -2.84,-4.28 1.69,-10.85 c 0.21,-1.34 -0.45,-2.67 -1.65,-3.31 l -8.22,-4.44 c -1.52,-0.82 -3.42,-0.07 -3.98,1.57 l -1.2,3.53 c -4.22,-1.48 -9.86,-2.94 -16.62,-3.49 -8.89,-0.71 -22.62,0.09 -38.37,0 l -35.86,-46.67 -16.57,13.32 31.45,59.55 5.1,-5.51 46.44,24.98 c -0.18,21.89 -0.1,49.08 -0.1,49.08 l -10.11,26.49 -11.53,28.68 c -1.2,2.98 1.17,6.18 4.37,5.9 l 31.59,-2.08 c 2.83,-0.18 5.17,-2.28 5.66,-5.07 l 21.57,-122.99 c 0.34,-1.51 0.05,-3.11 -0.82,-4.41 z"
         fill="inherit"
         id="path165"
         style="fill:#312e5f;fill-opacity:1" />
    </g>
    <g
       id="change5_2">
      <path
         d="m 330.89,118.93 c -0.4,1.74 -2.13,2.83 -3.87,2.43 -1.74,-0.4 -2.83,-2.13 -2.43,-3.87 0.4,-1.74 2.13,-2.83 3.87,-2.43 1.74,0.4 2.83,2.13 2.43,3.87 z m -6.46,13.78 c -1.74,-0.4 -3.47,0.69 -3.87,2.43 -0.4,1.74 0.69,3.47 2.43,3.87 1.74,0.4 3.47,-0.69 3.87,-2.43 0.39,-1.74 -0.69,-3.47 -2.43,-3.87 z m -4.04,17.65 c -1.74,-0.4 -3.47,0.69 -3.87,2.43 -0.4,1.74 0.69,3.47 2.43,3.87 1.74,0.4 3.47,-0.69 3.87,-2.43 0.4,-1.74 -0.69,-3.47 -2.43,-3.87 z m -4.03,17.65 c -1.74,-0.4 -3.47,0.69 -3.87,2.43 -0.4,1.74 0.69,3.47 2.43,3.87 1.74,0.4 3.47,-0.69 3.87,-2.43 0.4,-1.74 -0.7,-3.47 -2.43,-3.87 z m -2.42,20.68 c -0.82,-1.58 -2.76,-2.21 -4.35,-1.39 -1.59,0.82 -2.21,2.76 -1.39,4.35 0.82,1.58 2.76,2.21 4.35,1.39 1.59,-0.82 2.21,-2.77 1.39,-4.35 z"
         fill="#f28f69"
         id="path168" />
    </g>
    <g
       id="change2_2"
       style="fill:#d03372;fill-opacity:1">
      <path
         d="m 400.9,237.12 c -1.22,2.1 -3.43,3.37 -6.05,3.73 -2.77,0.39 -5.99,-0.23 -8.97,-1.95 -4.16,-2.41 -6.71,-6.29 -6.89,-9.89 -0.08,-1.36 0.19,-2.67 0.84,-3.86 0.03,-0.05 0.05,-0.1 0.08,-0.15 0.83,-1.43 2.13,-2.49 3.7,-3.11 3.17,-1.29 7.45,-0.9 11.32,1.33 1.92,1.11 3.5,2.54 4.66,4.1 0.5,0.68 0.93,1.39 1.27,2.1 1.25,2.63 1.36,5.43 0.04,7.7 z"
         fill="#6E9692"
         id="path171"
         style="fill:#d03372;fill-opacity:1" />
    </g>
    <g
       id="change3_4">
      <path
         d="m 341.79,69.05 c -0.21,0 -0.41,-0.14 -0.48,-0.35 -0.35,-1.13 -0.29,-2.14 0.2,-3 0.83,-1.49 2.59,-1.95 2.67,-1.97 0.27,-0.07 0.54,0.09 0.61,0.36 0.07,0.27 -0.09,0.54 -0.36,0.61 -0.01,0 -1.43,0.39 -2.05,1.49 -0.34,0.61 -0.38,1.36 -0.11,2.21 0.08,0.26 -0.07,0.54 -0.33,0.63 -0.05,0.02 -0.1,0.02 -0.15,0.02 z M 366.5,58.7 c 0.73,-1.18 1.5,-1.77 2.28,-1.77 0,0 0,0 0,0 1.37,0 2.48,1.76 2.5,1.77 0.15,0.23 0.45,0.31 0.69,0.16 0.24,-0.15 0.31,-0.45 0.16,-0.69 -0.06,-0.09 -1.42,-2.25 -3.34,-2.25 -1.15,0 -2.21,0.76 -3.14,2.25 -0.15,0.23 -0.07,0.54 0.16,0.69 0.08,0.05 0.17,0.08 0.26,0.08 0.17,-0.01 0.33,-0.09 0.43,-0.24 z m -45.44,0.16 c 0.23,-0.15 0.31,-0.45 0.16,-0.69 -0.93,-1.49 -1.98,-2.25 -3.14,-2.25 v 0 c -1.92,0 -3.29,2.15 -3.35,2.25 -0.15,0.23 -0.07,0.54 0.16,0.69 0.23,0.15 0.54,0.07 0.69,-0.16 0.01,-0.02 1.13,-1.77 2.5,-1.77 0,0 0,0 0,0 0.78,0 1.55,0.6 2.28,1.77 0.09,0.15 0.26,0.24 0.42,0.24 0.11,-0.01 0.2,-0.03 0.28,-0.08 z m 18.24,155.51 c 0.09,-0.26 -0.04,-0.55 -0.3,-0.64 l -12.49,-4.46 c -0.26,-0.09 -0.55,0.04 -0.64,0.3 -0.09,0.26 0.04,0.55 0.3,0.64 l 12.49,4.46 c 0.06,0.02 0.11,0.03 0.17,0.03 0.2,0 0.39,-0.13 0.47,-0.33 z m 9.65,-152.66 c 0.02,-0.02 1.73,-2.39 4.34,-2.77 1.51,-0.22 3.05,0.27 4.57,1.45 0.33,0.26 0.8,0.19 1.05,-0.13 0.25,-0.33 0.19,-0.8 -0.13,-1.05 -1.86,-1.45 -3.79,-2.04 -5.71,-1.75 -3.24,0.48 -5.26,3.27 -5.34,3.38 -0.24,0.34 -0.16,0.81 0.18,1.05 0.13,0.09 0.28,0.14 0.43,0.14 0.24,-0.01 0.47,-0.12 0.61,-0.32 z m -10.02,0.17 c 0.34,-0.24 0.42,-0.71 0.18,-1.04 -0.08,-0.12 -2.11,-2.91 -5.34,-3.38 -1.92,-0.28 -3.85,0.31 -5.71,1.75 -0.33,0.25 -0.39,0.73 -0.13,1.05 0.25,0.33 0.72,0.39 1.05,0.13 1.52,-1.18 3.06,-1.67 4.56,-1.46 2.6,0.38 4.34,2.75 4.35,2.77 0.15,0.2 0.38,0.31 0.61,0.31 0.15,0.01 0.3,-0.04 0.43,-0.13 z"
         fill="inherit"
         id="path174" />
    </g>
    <g
       id="change1_2"
       style="fill:#ffffff;fill-opacity:1">
      <path
         d="m 348.73,107.76 c -0.06,0.02 -0.11,0.03 -0.17,0.03 -0.21,0 -0.4,-0.13 -0.47,-0.33 -0.09,-0.26 0.04,-0.55 0.3,-0.64 12.72,-4.54 15.66,-11.02 15.69,-11.09 0.11,-0.25 0.4,-0.37 0.66,-0.26 0.25,0.11 0.37,0.4 0.26,0.66 -0.12,0.28 -3.09,6.92 -16.27,11.63 z m -17,-1.72 c 0.21,0 0.41,-0.14 0.48,-0.35 0.08,-0.26 -0.07,-0.54 -0.33,-0.62 -10.7,-3.24 -14.35,-9.32 -14.39,-9.38 -0.14,-0.24 -0.44,-0.32 -0.68,-0.18 -0.24,0.14 -0.32,0.44 -0.18,0.68 0.15,0.26 3.85,6.48 14.96,9.84 0.04,0 0.09,0.01 0.14,0.01 z m 72.81,75.93 c -0.01,0.27 -0.22,0.48 -0.52,0.47 -0.13,-0.01 -12.74,-0.4 -19.6,18.39 l -0.12,0.33 c -7.01,19.22 -10.87,29.81 -1.33,40.49 0.18,0.21 0.17,0.52 -0.04,0.71 -0.09,0.08 -0.21,0.13 -0.33,0.13 -0.14,0 -0.27,-0.06 -0.37,-0.17 -8.55,-9.56 -6.66,-19.36 -1.57,-33.96 l -0.91,0.22 c -0.65,0.16 -1.3,0.23 -1.94,0.23 -3.78,0 -7.22,-2.58 -8.16,-6.4 l -0.79,-3.23 c -0.06,-0.26 0.09,-0.53 0.35,-0.6 l 13.25,-3.78 -2.25,-13.33 c -0.13,-0.76 -0.11,-1.52 0.04,-2.27 l 11.43,-55.58 c 0.06,-0.27 0.32,-0.44 0.59,-0.39 0.27,0.06 0.44,0.32 0.39,0.59 l -11.43,55.58 c -0.13,0.63 -0.14,1.27 -0.04,1.91 l 2.95,17.47 c 7.25,-17.78 19.81,-17.34 19.93,-17.34 0.27,0.02 0.48,0.25 0.47,0.53 z m -21.18,18.86 0.08,-0.21 -0.81,-4.81 -12.68,3.61 0.67,2.76 c 0.96,3.94 4.96,6.37 8.89,5.43 l 1.54,-0.37 c 0.71,-2.04 1.49,-4.17 2.31,-6.41 z m -26.58,-67.54 22.79,1.34 c 0.13,0.01 0.26,0.07 0.34,0.17 0.08,0.1 0.13,0.23 0.13,0.36 l -0.36,6.15 c -0.02,0.27 -0.24,0.47 -0.5,0.47 -0.01,0 -0.02,0 -0.03,0 l -22.79,-1.34 c -0.28,-0.02 -0.49,-0.25 -0.47,-0.53 l 0.36,-6.15 c 0.01,-0.13 0.07,-0.26 0.17,-0.34 0.1,-0.08 0.23,-0.14 0.36,-0.13 z m 0.14,6.18 21.79,1.29 0.3,-5.15 -21.79,-1.29 z m -39.16,75.24 c -0.26,-0.05 -0.53,0.14 -0.58,0.41 l -4.05,23.69 c -0.27,1.59 -1.59,2.78 -3.2,2.88 l -19.19,1.25 c -0.28,0.02 -0.48,0.26 -0.47,0.53 0.02,0.26 0.24,0.47 0.5,0.47 0.01,0 0.02,0 0.03,0 l 19.19,-1.25 c 2.08,-0.14 3.77,-1.66 4.12,-3.71 l 4.05,-23.69 c 0.05,-0.28 -0.13,-0.53 -0.4,-0.58 z m 55.45,25.76 -17.54,3.39 c -1.02,0.2 -2.07,-0.07 -2.87,-0.73 -0.8,-0.66 -1.26,-1.64 -1.26,-2.68 v -26.82 c 0,-0.28 -0.22,-0.5 -0.5,-0.5 -0.28,0 -0.5,0.22 -0.5,0.5 v 26.82 c 0,1.34 0.59,2.6 1.63,3.45 0.81,0.67 1.81,1.03 2.85,1.03 0.28,0 0.57,-0.03 0.85,-0.08 l 17.54,-3.39 c 0.27,-0.05 0.45,-0.31 0.4,-0.59 -0.07,-0.28 -0.34,-0.45 -0.6,-0.4 z M 325.85,70.57 c 0.23,1.01 1.23,1.63 2.23,1.41 l 4.88,-1.11 c 1.01,-0.23 1.63,-1.23 1.41,-2.23 l -0.29,-1.26 c -0.23,-1.01 -1.23,-1.63 -2.23,-1.41 l -4.88,1.11 c -1.01,0.23 -1.63,1.23 -1.41,2.23 z m 31.82,8.07 c 0.67,0.79 1.84,0.89 2.63,0.22 l 0.99,-0.83 c 0.79,-0.67 0.89,-1.84 0.22,-2.63 l -3.23,-3.83 c -0.67,-0.79 -1.84,-0.89 -2.63,-0.22 l -0.99,0.83 c -0.79,0.67 -0.89,1.84 -0.22,2.63 z M 326.7,254.77 c -0.19,-0.2 -0.51,-0.2 -0.71,-0.01 -0.2,0.19 -0.2,0.51 -0.01,0.71 l 11.73,12.13 c 0.1,0.1 0.23,0.15 0.36,0.15 0.13,0 0.25,-0.05 0.35,-0.14 0.2,-0.19 0.2,-0.51 0.01,-0.71 z M 353.48,72.09 c 0.35,-0.82 -0.29,-1.71 -1.18,-1.63 l -17.35,1.68 c -0.8,0.08 -1.28,0.92 -0.95,1.65 0.9,1.95 3.29,5.08 9.42,5.08 6.26,0 8.99,-4.26 10.06,-6.78 z"
         fill="#EDE6DD"
         id="path177"
         style="fill:#ffffff;fill-opacity:1" />
    </g>
    <g
       id="change4_3">
      <path
         d="m 396.73,234.82 -0.53,1.03 c 0,0 -0.35,2.99 -1.35,6.9 -0.97,3.77 -2.52,8.4 -4.94,12.06 -1.91,2.88 -5.91,3.44 -8.55,1.2 -2.26,-1.94 -5.02,-5.53 -7.93,-12.13 -0.52,-1.18 -0.45,-2.54 0.2,-3.66 l 5.37,-9.32 2.75,-4.01 h 0.01 c 7.35,-1.27 12.13,2.07 14.39,4.28 0.97,0.97 1.2,2.44 0.58,3.65 z M 229.31,42.1 v -0.01 0 c 0,0 0,0 0,0 l -0.26,-2.84 c -0.42,-4.61 -2.21,-9 -5.17,-12.56 -0.12,-0.15 -0.19,-0.23 -0.19,-0.23 0,0 -3.86,-20.74 -8.82,-25.88 -4.96,-5.14 2.29,25.66 2.29,25.66 0,0 -14.86,-19.41 -18.7,-18.99 -3.84,0.42 12.9,22.44 12.9,22.44 0,0 -6.41,0.01 -3.53,5.34 0,0 -4.89,1.08 -0.72,6.49 2.05,2.65 5.13,5.39 8.47,6.98 l -0.75,3.96 c -0.56,2.96 1.36,5.8 4.31,6.43 1.43,0.3 3.1,0.43 4.9,0.14 3.43,-0.55 5.85,-3.67 5.7,-7.14 l -0.38,-9.04 c 0.07,-0.29 -0.03,-0.7 -0.05,-0.75 z"
         fill="#f4bba8"
         id="path180" />
    </g>
  </g>
  <g
     id="g221"
     transform="translate(-4.5292499,-5.3038217)">
    <g
       id="change1_3"
       style="fill:#ffffff;fill-opacity:1">
      <path
         d="m 99.36,386.4 c 0,0 10.07,15.75 2.77,22.56 -5.61,5.23 -9.36,7.88 -16.32,14.7 -6.97,6.82 -30.14,12.12 -40.29,3.48 -10.15,-8.63 31.03,-40.36 31.03,-40.36 z m 40.39,-4.53 c 0,0 -10.07,15.75 -2.77,22.56 5.61,5.23 9.36,7.88 16.32,14.7 6.97,6.82 30.14,12.12 40.29,3.48 10.15,-8.63 -31.03,-40.36 -31.03,-40.36 z"
         fill="#EDE6DD"
         id="path185"
         style="fill:#ffffff;fill-opacity:1" />
    </g>
    <g
       id="change3_5"
       style="fill:#312e5f;fill-opacity:1">
      <path
         d="m 78,402.43 c -0.31,0 -0.62,-0.15 -0.82,-0.42 -4.03,-5.68 -11.57,-4.99 -11.64,-4.98 -0.55,0.05 -1.04,-0.34 -1.1,-0.89 -0.06,-0.55 0.34,-1.04 0.89,-1.1 0.35,-0.04 8.77,-0.83 13.48,5.82 0.32,0.45 0.21,1.07 -0.24,1.39 -0.16,0.13 -0.37,0.18 -0.57,0.18 z m -5.7,5.26 c 0.45,-0.32 0.56,-0.94 0.24,-1.39 -4.71,-6.65 -13.13,-5.86 -13.48,-5.82 -0.55,0.06 -0.95,0.55 -0.89,1.1 0.06,0.55 0.54,0.94 1.1,0.89 0.08,-0.01 7.62,-0.7 11.64,4.98 0.2,0.28 0.5,0.42 0.82,0.42 0.19,0 0.4,-0.06 0.57,-0.18 z m -5.54,5.75 c 0.45,-0.32 0.56,-0.94 0.24,-1.39 -4.71,-6.65 -13.13,-5.85 -13.48,-5.82 -0.55,0.06 -0.95,0.55 -0.89,1.1 0.06,0.55 0.54,0.95 1.1,0.89 0.08,0 7.6,-0.72 11.64,4.98 0.2,0.28 0.5,0.42 0.82,0.42 0.19,0.01 0.39,-0.05 0.57,-0.18 z m 95.16,-15.96 c 4.03,-5.68 11.57,-4.99 11.64,-4.98 0.55,0.04 1.04,-0.34 1.1,-0.89 0.06,-0.55 -0.34,-1.04 -0.89,-1.1 -0.36,-0.04 -8.77,-0.83 -13.48,5.82 -0.32,0.45 -0.21,1.07 0.24,1.39 0.18,0.13 0.38,0.18 0.58,0.18 0.3,0 0.61,-0.14 0.81,-0.42 z m 6.28,5.44 c 4.03,-5.68 11.57,-4.99 11.64,-4.98 0.55,0.04 1.04,-0.34 1.1,-0.89 0.06,-0.55 -0.34,-1.04 -0.89,-1.1 -0.35,-0.04 -8.77,-0.83 -13.48,5.82 -0.32,0.45 -0.21,1.07 0.24,1.39 0.18,0.13 0.38,0.18 0.58,0.18 0.3,0 0.61,-0.14 0.81,-0.42 z m 5.54,5.75 c 4.03,-5.68 11.57,-4.99 11.64,-4.98 0.55,0.05 1.04,-0.34 1.1,-0.89 0.06,-0.55 -0.34,-1.04 -0.89,-1.1 -0.35,-0.04 -8.77,-0.83 -13.48,5.82 -0.32,0.45 -0.21,1.07 0.24,1.39 0.18,0.13 0.38,0.18 0.58,0.18 0.31,0.01 0.62,-0.14 0.81,-0.42 z m -37.7,-176.91 c -8.51,-23.68 -83.84,-16.43 -85.13,4.64 -1.21,19.79 20.37,134.75 23.11,149.25 0.19,1 0.81,1.87 1.69,2.37 9.07,5.14 18.77,2.06 23.03,0.22 1.33,-0.58 2.16,-1.92 2.07,-3.37 -1.29,-22.03 -2.32,-96.47 -2.54,-112.59 -0.01,-0.74 1,-0.97 1.31,-0.3 13.44,28.79 34.38,99.68 37.84,111.53 0.32,1.09 1.15,1.97 2.24,2.32 10.15,3.31 17.7,-0.38 20.86,-2.45 1.02,-0.67 1.61,-1.83 1.55,-3.05 -2.76,-55.59 -24.76,-143.61 -25.92,-148.2 -0.02,-0.12 -0.06,-0.24 -0.11,-0.37 z"
         fill="inherit"
         id="path188"
         style="fill:#312e5f;fill-opacity:1" />
    </g>
    <g
       id="change4_4">
      <path
         d="m 62.6,192.4 c 0,0 8.23,51.49 -8.47,42.86 -16.7,-8.63 -14.04,-11.36 -12.22,-12.87 1.82,-1.51 6.06,2.25 6.06,2.25 C 44.64,214.77 45.7,202.2 45.7,202.2 Z m 74.35,-128.25 4.12,12.17 12.78,-4.3 -6.16,-12.59 c 1.55,-4.42 -1.02,-12.78 -1.02,-12.78 0,0 3.78,-8.9 3.11,-10.7 -1.35,-3.64 -7.61,8.86 -7.61,8.86 0,0 -0.95,-18.8 -4.23,-18.53 -3.28,0.27 -1.27,17.57 -1.27,17.57 0,0 -7.39,-21.96 -10.15,-19.77 -2.76,2.2 4.41,22.09 4.41,22.09 -11.34,-15.66 -13.91,-17.42 -13.76,-14.01 0.24,5.3 11.63,21.95 11.63,21.95 -10.78,-4.96 -13.32,-0.62 -11.75,1.58 1.57,2.2 4,1.88 12.71,5.33 3.16,1.28 5.48,2.79 7.19,3.13 z"
         fill="#f4bba8"
         id="path191" />
    </g>
    <g
       id="change5_3"
       style="fill:#f7b252;fill-opacity:1">
      <path
         d="m 152.55,62.9 c -0.9,-1.16 -2.28,-1.84 -3.74,-1.87 -5.06,-0.11 -9.37,1.93 -12.04,3.6 -1.77,1.11 -2.59,3.24 -2.08,5.26 l 4.57,18.16 c -16.14,1.32 -28.07,4.85 -34.62,7.26 -1.22,0.45 -2.13,1.32 -2.66,2.37 -8.7,-2.09 -12.32,0.66 -12.32,0.66 -34.19,1.65 -55.55,26.3 -55.55,26.3 0,0 -38.85,41.56 -33.63,56.67 5.23,15.11 38.62,20.11 38.62,20.11 l 3.55,4.97 c 1.28,1.79 3.73,2.27 5.59,1.09 0.93,-0.59 1.89,-1.26 2.85,-1.96 -0.06,0.7 -0.13,1.38 -0.18,2.03 -1.14,13.63 1.36,16.81 1.36,16.81 l -1.36,12.04 c 41.57,17.49 84.97,-3.63 85.19,-4.45 0.23,-0.81 -4.48,-12.82 -4.48,-12.82 3.7,-2.7 5.46,-50.15 6.18,-78.38 9.99,-6.62 37.11,-25.29 38.98,-33.98 C 178.79,97.5 158.01,69.94 152.55,62.9 Z M 39.1,167.34 l 12.63,-4.7 3.73,8.03 c 0,0 -0.58,3.92 -1.33,9.49 C 47.09,171.5 39.1,167.34 39.1,167.34 Z"
         fill="#F28F69"
         id="path194"
         style="fill:#f7b252;fill-opacity:1" />
    </g>
    <g
       id="change1_4"
       style="fill:#ffffff;fill-opacity:1">
      <path
         d="m 107.97,111.22 c -0.15,6.56 -4.9,19.11 -9.09,28.97 -3.35,7.88 -6.34,14.04 -6.34,14.04 -1.44,-1.35 -4.8,-6.3 -8.49,-12.13 -6.42,-10.12 -13.87,-22.89 -14.18,-24.15 -0.03,-0.14 -0.04,-0.28 -0.03,-0.42 1.91,-23.58 38.71,-30.62 38.13,-6.31 z"
         fill="#EDE6DD"
         id="path197"
         style="fill:#ffffff;fill-opacity:1" />
    </g>
    <g
       id="change2_3"
       style="fill:#d03372;fill-opacity:1">
      <path
         d="m 98.88,140.2 c -3.35,7.88 -6.34,14.04 -6.34,14.04 -1.44,-1.35 -4.8,-6.3 -8.49,-12.13 l 2.77,-14.79 c 0.04,-0.28 0.01,-0.55 -0.12,-0.8 l -4.56,-8.9 c -0.25,-0.49 -0.14,-1.1 0.27,-1.48 l 6.35,-5.94 c 0.44,-0.4 1.09,-0.44 1.57,-0.12 l 7.49,5.18 c 0.47,0.33 0.66,0.93 0.45,1.48 l -3.48,9.09 c -0.11,0.26 -0.12,0.54 -0.04,0.81 0.52,1.73 2.62,8.57 4.13,13.56 z"
         fill="#6E9692"
         id="path200"
         style="fill:#d03372;fill-opacity:1" />
    </g>
    <g
       id="change1_5"
       style="fill:#ffffff;fill-opacity:1">
      <path
         d="m 87.87,94.44 c 21.33,-7.93 22.2,16.2 21.88,24.66 -0.06,1.45 -1.47,2.47 -2.9,2.09 l -16.36,-4.34 c -0.52,-0.16 -1.08,-0.13 -1.58,0.06 l -15.96,6.21 c -1.45,0.56 -3.07,-0.36 -3.25,-1.87 -3.42,-27.47 13.89,-27 17.12,-26.67 0.35,0.05 0.71,-0.01 1.05,-0.14 z"
         fill="#EDE6DD"
         id="path203"
         style="fill:#ffffff;fill-opacity:1" />
    </g>
    <g
       id="change4_5">
      <path
         d="m 99.78,88.04 c -0.05,0.04 -0.1,0.08 -0.15,0.12 0.21,0.42 0.38,0.87 0.51,1.34 l 1.98,7.33 c 0.71,2.62 -0.09,5.41 -2.07,7.26 l -9.71,9.06 -10.82,-6.28 c -2.47,-1.44 -3.88,-4.18 -3.61,-7.03 l 0.79,-8.21 c 0.03,-0.26 0.09,-0.51 0.14,-0.76 C 76.81,90.86 76.77,90.84 76.73,90.83 76.38,90.69 76.04,90.55 75.71,90.39 68.8,87.35 64.02,79.89 63.19,71.46 61.86,58.01 71.82,45.61 83.78,44.43 c 11.96,-1.18 23.86,8.69 25.18,22.15 0.67,6.73 -0.78,13.66 -5.2,17.88 -1.37,1.32 -2.68,2.53 -3.98,3.58 z"
         fill="#f4bba8"
         id="path206" />
    </g>
    <g
       id="change3_6">
      <path
         d="m 66.44,60.49 -1.82,12.8 c 0,0 -12.87,-3.86 -6.06,-21.96 6.81,-18.1 14.99,-13.56 14.99,-13.56 3.79,-8.41 10.6,-7.19 29.61,0.15 19.01,7.34 7.66,31.98 3.63,34.16 -4.03,2.19 -5.3,-19.02 -5.3,-19.02 -18.25,-0.23 -21.36,-6.05 -21.36,-6.05 0.53,3.56 8.41,10.83 3.71,10.3 -4.7,-0.53 -9.31,-10.45 -9.31,-10.45 -1.71,6.36 -8.09,13.63 -8.09,13.63 z"
         fill="inherit"
         id="path209" />
    </g>
    <g
       id="change4_6">
      <path
         d="m 115.41,73.16 c -1.38,4.53 -5.41,7.32 -9.01,6.23 -3.6,-1.09 -5.41,-5.65 -4.03,-10.19 1.38,-4.53 5.41,-7.32 9.01,-6.23 3.6,1.09 5.4,5.66 4.03,10.19 z m -55.82,9.99 c 2.62,3.95 7.29,5.45 10.42,3.37 3.14,-2.08 3.55,-6.97 0.93,-10.91 -2.62,-3.94 -7.29,-5.45 -10.42,-3.37 -3.13,2.08 -3.55,6.97 -0.93,10.91 z"
         fill="#f4bba8"
         id="path212" />
    </g>
    <g
       id="change3_7">
      <path
         d="m 99.78,88.04 c -1.21,5.51 -6.13,9.65 -12.01,9.65 -4.84,0 -9.03,-2.79 -11.03,-6.86 3.67,1.52 7.79,2.73 11.87,2.33 4.32,-0.44 7.71,-2.29 11.17,-5.12 z M 95.1,61.24 c -1.76,0 -3.18,1.42 -3.18,3.18 0,1.76 1.42,3.18 3.18,3.18 1.76,0 3.18,-1.42 3.18,-3.18 0.01,-1.75 -1.42,-3.18 -3.18,-3.18 z M 79.83,69.4 c 0.34,-0.24 0.42,-0.71 0.18,-1.05 -0.03,-0.04 -3.14,-4.27 -9.31,-0.98 -0.37,0.2 -0.5,0.65 -0.31,1.02 0.2,0.37 0.65,0.5 1.02,0.31 4.96,-2.65 7.27,0.38 7.38,0.52 0.15,0.2 0.38,0.31 0.61,0.31 0.14,0.01 0.29,-0.04 0.43,-0.13 z M 98.28,56.11 c -0.21,0 -0.42,-0.06 -0.59,-0.2 -4.84,-3.59 -9.81,-0.85 -9.86,-0.82 -0.48,0.27 -1.09,0.1 -1.36,-0.38 -0.27,-0.48 -0.1,-1.09 0.38,-1.36 0.25,-0.14 6.16,-3.39 12.03,0.96 0.44,0.33 0.54,0.96 0.21,1.4 -0.2,0.26 -0.5,0.4 -0.81,0.4 z m -29,6.05 c 1.7,-4.98 7.24,-5.02 7.44,-5 v 0 c 0.56,0.03 1,-0.44 1.01,-0.99 0.01,-0.55 -0.44,-1.01 -0.99,-1.01 -2.44,-0.06 -7.61,1.26 -9.35,6.36 -0.18,0.52 0.1,1.09 0.62,1.27 0.11,0.04 0.22,0.05 0.32,0.05 0.42,-0.01 0.81,-0.27 0.95,-0.68 z m 37.89,6.13 c 0.89,-1.54 1.82,-2.33 2.78,-2.36 0.02,0 0.03,0 0.05,0 1.48,0 2.66,1.81 2.68,1.82 0.15,0.23 0.46,0.3 0.69,0.15 0.23,-0.15 0.3,-0.46 0.15,-0.69 -0.06,-0.1 -1.5,-2.33 -3.58,-2.28 -1.34,0.03 -2.56,0.99 -3.63,2.86 -0.14,0.24 -0.06,0.55 0.18,0.68 0.08,0.04 0.16,0.07 0.25,0.07 0.17,0 0.34,-0.09 0.43,-0.25 z m -47.75,9.76 c -0.07,0 -0.14,-0.01 -0.21,-0.04 -0.25,-0.11 -0.36,-0.41 -0.25,-0.66 0.05,-0.1 1.16,-2.53 3.21,-2.78 1.33,-0.16 2.67,0.61 4.01,2.3 0.17,0.22 0.13,0.53 -0.08,0.7 -0.22,0.17 -0.53,0.13 -0.7,-0.08 -1.1,-1.4 -2.14,-2.04 -3.1,-1.93 -1.49,0.18 -2.42,2.18 -2.43,2.2 -0.08,0.18 -0.26,0.29 -0.45,0.29 z M 83.1,74.47 c -0.25,0 -0.46,-0.18 -0.5,-0.43 -0.25,-1.84 0.08,-3.13 0.99,-3.81 1.48,-1.12 3.85,-0.09 3.95,-0.05 0.25,0.11 0.37,0.41 0.26,0.66 -0.11,0.25 -0.4,0.37 -0.66,0.26 -0.54,-0.23 -2.11,-0.7 -2.95,-0.07 -0.74,0.56 -0.73,1.87 -0.59,2.87 0.04,0.27 -0.15,0.53 -0.43,0.56 -0.02,0 -0.05,0.01 -0.07,0.01 z M 71.34,123.8 c 0.05,0 0.11,-0.01 0.16,-0.03 l 19,-6.4 16.22,4.3 c 0.27,0.07 0.54,-0.09 0.61,-0.36 0.07,-0.27 -0.09,-0.54 -0.36,-0.61 l -16.36,-4.34 c -0.09,-0.02 -0.19,-0.02 -0.29,0.01 l -19.15,6.44 c -0.26,0.09 -0.4,0.37 -0.31,0.63 0.07,0.23 0.27,0.36 0.48,0.36 z m 23.78,2.52 c -0.05,0.27 -0.31,0.45 -0.58,0.4 -0.04,-0.01 -4.58,-0.8 -7.43,0.62 -0.07,0.04 -0.15,0.05 -0.22,0.05 -0.18,0 -0.36,-0.1 -0.45,-0.28 -0.12,-0.25 -0.02,-0.55 0.22,-0.67 3.14,-1.57 7.85,-0.74 8.05,-0.71 0.28,0.06 0.46,0.32 0.41,0.59 z m -49.88,24.2 c -0.12,-0.25 -0.02,-0.55 0.23,-0.67 0.25,-0.12 0.55,-0.02 0.67,0.23 l 6.57,13.48 c 0.12,0.25 0.02,0.55 -0.23,0.67 -0.07,0.03 -0.15,0.05 -0.22,0.05 -0.19,0 -0.36,-0.1 -0.45,-0.28 z m -5.72,17.09 c -0.15,0.23 -0.46,0.3 -0.69,0.14 -0.23,-0.15 -5.67,-3.58 -13.44,2.03 -0.09,0.06 -0.19,0.09 -0.29,0.09 -0.16,0 -0.31,-0.07 -0.41,-0.21 -0.16,-0.22 -0.11,-0.54 0.11,-0.7 8.36,-6.04 14.33,-2.22 14.58,-2.06 0.23,0.17 0.29,0.48 0.14,0.71 z m 92.56,51.3 c 0.12,0.25 0.02,0.55 -0.23,0.67 -0.14,0.07 -14.34,6.93 -31.78,8.29 -0.01,0 -0.03,0 -0.04,0 -0.05,0 -0.11,-0.01 -0.16,-0.03 l 0.66,15.44 c 0.01,0.28 -0.2,0.51 -0.48,0.52 -0.01,0 -0.01,0 -0.02,0 -0.27,0 -0.49,-0.21 -0.5,-0.48 l -3.59,-84.38 c -0.01,-0.12 0.03,-0.24 0.11,-0.33 22.49,-28.47 17.35,-64.94 17.3,-65.31 -0.04,-0.27 0.15,-0.53 0.42,-0.57 0.27,-0.04 0.53,0.15 0.57,0.42 0.06,0.37 5.24,37.14 -17.39,65.93 l 2.88,67.83 c 0.05,-0.02 0.1,-0.04 0.16,-0.04 17.24,-1.35 31.27,-8.13 31.41,-8.2 0.26,-0.1 0.56,0 0.68,0.24 z M 93.16,168.04 c -0.72,0.03 -1.38,0.34 -1.87,0.87 -0.49,0.53 -0.74,1.22 -0.71,1.93 0.06,1.44 1.25,2.57 2.68,2.57 0.04,0 0.08,0 0.12,0 0.72,-0.03 1.38,-0.34 1.87,-0.87 0.49,-0.53 0.74,-1.22 0.7,-1.93 -0.05,-1.49 -1.31,-2.63 -2.79,-2.57 z m 1.36,3.82 c -0.31,0.33 -0.72,0.53 -1.17,0.54 -0.44,0.02 -0.88,-0.14 -1.21,-0.44 -0.33,-0.3 -0.53,-0.72 -0.54,-1.17 -0.02,-0.45 0.14,-0.88 0.44,-1.21 0.3,-0.33 0.72,-0.53 1.17,-0.55 0.02,0 0.05,0 0.07,0 0.42,0 0.83,0.16 1.14,0.44 0.33,0.31 0.53,0.72 0.54,1.17 0.01,0.45 -0.14,0.89 -0.44,1.22 z m -0.88,7.4 c -0.72,0.03 -1.38,0.34 -1.86,0.87 -0.49,0.53 -0.74,1.22 -0.71,1.93 0.03,0.71 0.34,1.38 0.87,1.87 0.5,0.46 1.14,0.71 1.81,0.71 0.04,0 0.08,0 0.12,0 1.48,-0.06 2.63,-1.32 2.57,-2.8 -0.06,-1.49 -1.31,-2.63 -2.8,-2.58 z m 0.19,4.37 c -0.45,0.02 -0.88,-0.14 -1.21,-0.44 -0.33,-0.3 -0.53,-0.72 -0.54,-1.17 -0.02,-0.45 0.14,-0.88 0.44,-1.21 0.3,-0.33 0.72,-0.53 1.17,-0.55 0.02,0 0.05,0 0.07,0 0.9,0 1.65,0.71 1.69,1.62 0.03,0.92 -0.69,1.71 -1.62,1.75 z m 0.29,6.85 c -0.72,0.03 -1.38,0.34 -1.87,0.87 -0.49,0.53 -0.74,1.22 -0.71,1.93 0.06,1.44 1.25,2.57 2.68,2.57 0.04,0 0.08,0 0.12,0 1.48,-0.06 2.63,-1.32 2.57,-2.8 -0.05,-1.48 -1.3,-2.62 -2.79,-2.57 z m 1.36,3.82 c -0.3,0.33 -0.72,0.53 -1.17,0.54 -0.92,0.04 -1.72,-0.68 -1.76,-1.61 -0.02,-0.45 0.14,-0.88 0.44,-1.21 0.31,-0.33 0.72,-0.53 1.17,-0.55 0.02,0 0.05,0 0.07,0 0.9,0 1.65,0.71 1.69,1.62 0.02,0.45 -0.13,0.88 -0.44,1.21 z m -0.88,7.4 c -1.48,0.06 -2.63,1.32 -2.57,2.8 0.03,0.72 0.34,1.38 0.87,1.87 0.5,0.46 1.14,0.71 1.81,0.71 0.04,0 0.08,0 0.12,0 1.48,-0.06 2.63,-1.32 2.57,-2.8 -0.03,-0.72 -0.34,-1.38 -0.87,-1.87 -0.52,-0.49 -1.21,-0.74 -1.93,-0.71 z m 1.36,3.83 c -0.3,0.33 -0.72,0.53 -1.17,0.54 -0.44,0.02 -0.88,-0.14 -1.21,-0.44 -0.33,-0.3 -0.53,-0.72 -0.55,-1.17 -0.02,-0.45 0.14,-0.88 0.44,-1.21 0.31,-0.33 0.72,-0.53 1.17,-0.54 0.02,0 0.05,0 0.07,0 0.42,0 0.83,0.16 1.14,0.44 0.33,0.31 0.53,0.72 0.54,1.17 0.03,0.44 -0.12,0.87 -0.43,1.21 z m -2.74,8.26 c -0.49,0.53 -0.74,1.22 -0.71,1.93 0.06,1.44 1.25,2.57 2.68,2.57 0.04,0 0.08,0 0.12,0 1.48,-0.06 2.63,-1.32 2.57,-2.8 -0.03,-0.72 -0.34,-1.38 -0.87,-1.86 -0.53,-0.49 -1.21,-0.74 -1.93,-0.71 -0.71,0.03 -1.37,0.34 -1.86,0.87 z m 1.98,0.13 c 0.42,0 0.83,0.16 1.14,0.44 0.33,0.3 0.53,0.72 0.55,1.17 0.02,0.45 -0.14,0.88 -0.44,1.21 -0.3,0.33 -0.72,0.53 -1.17,0.54 -0.44,0.02 -0.88,-0.14 -1.21,-0.44 -0.33,-0.3 -0.53,-0.72 -0.55,-1.17 -0.02,-0.45 0.14,-0.88 0.44,-1.21 0.3,-0.33 0.72,-0.53 1.17,-0.54 0.02,0 0.05,0 0.07,0 z m 0.37,10.22 c -0.72,0.03 -1.38,0.34 -1.87,0.87 -0.49,0.53 -0.74,1.21 -0.71,1.93 0.06,1.44 1.25,2.57 2.68,2.57 0.04,0 0.08,0 0.12,0 1.48,-0.06 2.63,-1.32 2.57,-2.8 -0.06,-1.48 -1.3,-2.6 -2.79,-2.57 z m 1.36,3.83 c -0.31,0.33 -0.72,0.53 -1.17,0.54 -0.91,0.08 -1.72,-0.68 -1.76,-1.61 -0.02,-0.45 0.14,-0.88 0.44,-1.21 0.3,-0.33 0.72,-0.53 1.17,-0.54 0.02,0 0.05,0 0.07,0 0.42,0 0.83,0.16 1.14,0.44 0.33,0.31 0.53,0.72 0.55,1.17 0.02,0.45 -0.14,0.88 -0.44,1.21 z m -7.53,-68.15 4.04,83.47 c 0.01,0.28 -0.2,0.51 -0.48,0.52 -0.01,0 -0.02,0 -0.02,0 -0.27,0 -0.49,-0.21 -0.5,-0.48 l -0.76,-15.75 c -0.08,0.16 -0.24,0.28 -0.43,0.29 -2.48,0.09 -4.86,0.13 -7.13,0.13 -17.46,0 -28.83,-2.42 -31.41,-3.03 l -1.3,11.48 c -0.03,0.25 -0.25,0.44 -0.5,0.44 -0.02,0 -0.04,0 -0.06,0 -0.27,-0.03 -0.47,-0.28 -0.44,-0.55 l 1.35,-11.91 c -1.7,-3.53 -1.83,-10.83 -1.34,-18.51 l -4.11,-7.22 c -0.14,-0.24 -0.05,-0.55 0.19,-0.68 0.24,-0.14 0.54,-0.05 0.68,0.19 l 3.37,5.91 c 0.86,-11.48 2.93,-23.22 3.08,-24.05 0.05,-0.27 0.3,-0.46 0.58,-0.4 0.27,0.05 0.45,0.31 0.4,0.58 -0.06,0.35 -6.14,34.82 -1.99,43.69 1.92,0.47 16.25,3.77 38.59,2.95 0.19,0 0.35,0.1 0.45,0.26 L 88.41,160.03 C 63.32,126.78 58.97,107.08 58.93,106.89 c -0.06,-0.27 0.12,-0.54 0.39,-0.59 0.27,-0.06 0.54,0.12 0.59,0.39 0.04,0.19 4.38,19.75 29.4,52.87 0.05,0.06 0.09,0.16 0.09,0.26 z m -41.61,47.8 c 0.15,0.23 0.08,0.54 -0.15,0.69 -0.08,0.05 -0.18,0.08 -0.27,0.08 -0.17,0 -0.33,-0.08 -0.42,-0.23 l -4.25,-6.7 c -0.15,-0.23 -0.08,-0.54 0.15,-0.69 0.23,-0.15 0.54,-0.08 0.69,0.15 z m 110.59,-90.64 c -0.06,0.22 -0.26,0.37 -0.48,0.37 -0.04,0 -0.08,-0.01 -0.13,-0.02 -15.98,-4.2 -18.89,-28.22 -19.01,-29.24 -0.03,-0.27 0.17,-0.52 0.44,-0.55 0.27,-0.03 0.52,0.17 0.55,0.44 0.03,0.24 2.96,24.36 18.27,28.39 0.27,0.07 0.43,0.35 0.36,0.61 z M 147.37,61.49 c -0.13,-0.24 -0.05,-0.55 0.19,-0.68 0.24,-0.13 0.55,-0.05 0.68,0.19 l 3.7,6.67 c 0.13,0.24 0.05,0.55 -0.19,0.68 -0.08,0.04 -0.16,0.06 -0.24,0.06 -0.18,0 -0.35,-0.09 -0.44,-0.26 z m -4.58,0.43 c -0.1,-0.26 0.02,-0.55 0.28,-0.65 0.26,-0.1 0.55,0.02 0.65,0.28 l 3.03,7.61 c 0.1,0.26 -0.02,0.55 -0.28,0.65 -0.06,0.02 -0.12,0.04 -0.18,0.04 -0.2,0 -0.39,-0.12 -0.46,-0.32 z m -2.09,9.42 -2.56,-7.61 c -0.09,-0.26 0.05,-0.55 0.31,-0.63 0.26,-0.09 0.54,0.05 0.63,0.31 l 2.56,7.61 c 0.09,0.26 -0.05,0.55 -0.31,0.63 -0.05,0.02 -0.11,0.03 -0.16,0.03 -0.21,0 -0.4,-0.13 -0.47,-0.34 z m -3.39,-16.97 c -0.13,0.24 -0.44,0.33 -0.68,0.2 -3.75,-2.07 -7.56,-0.02 -7.59,0 -0.08,0.04 -0.16,0.06 -0.24,0.06 -0.18,0 -0.35,-0.09 -0.44,-0.26 -0.13,-0.24 -0.04,-0.55 0.2,-0.68 0.17,-0.1 4.33,-2.33 8.56,0 0.24,0.14 0.33,0.44 0.19,0.68 z"
         fill="inherit"
         id="path215" />
    </g>
    <g
       id="change1_6"
       style="fill:#ffffff;fill-opacity:1">
      <path
         d="m 99.6,272.49 c -0.06,0 -0.12,-0.01 -0.18,-0.03 l -18.31,-7.04 c -0.26,-0.1 -0.39,-0.39 -0.29,-0.65 0.1,-0.26 0.39,-0.39 0.65,-0.29 l 18.31,7.04 c 0.26,0.1 0.39,0.39 0.29,0.65 -0.08,0.2 -0.27,0.32 -0.47,0.32 z M 96.78,74.25 76.58,78.04 c -0.72,0.14 -1.1,0.93 -0.76,1.58 1.15,2.13 4.11,6.03 10.27,5.66 8.79,-0.53 11.26,-6.75 11.94,-9.73 0.18,-0.76 -0.49,-1.44 -1.25,-1.3 z"
         fill="#EDE6DD"
         id="path218"
         style="fill:#ffffff;fill-opacity:1" />
    </g>
  </g>
  <g
     id="g271"
     transform="translate(-4.5292499,-5.3038217)">
    <g
       id="change1_7"
       style="fill:#ffffff;fill-opacity:1">
      <path
         d="m 268.37,396.17 c 0,0 2.97,7.79 19.29,27.63 16.32,19.85 8.16,25.41 -3.34,28.75 -11.5,3.34 -23.55,1.66 -26.89,-6.49 -3.21,-7.84 -5.38,-16.88 -11.31,-26.15 -5.93,-9.27 -1.12,-22.07 -1.12,-22.07 8.9,-14.09 23.37,-1.67 23.37,-1.67 z m -102.21,8.9 c -2.73,2.52 -5.83,4.6 -9.22,6.11 -14.2,6.29 -38.89,17.18 -20.71,29.09 14.64,9.59 35.89,-1.81 42.22,-6.52 2.02,-1.51 4.29,-2.66 6.7,-3.4 5.82,-1.78 9.77,-3.94 12.29,-5.68 2.44,-1.69 4.12,-4.32 4.56,-7.26 1.7,-11.16 -2.4,-19.49 -2.4,-19.49 -9.76,-12.08 -25.99,0.27 -33.44,7.15 z"
         fill="#EDE6DD"
         id="path223"
         style="fill:#ffffff;fill-opacity:1" />
    </g>
    <g
       id="change3_8"
       style="fill:#312e5f;fill-opacity:1">
      <path
         d="m 171.82,234.79 c 21.04,-37.52 84.82,-21.91 89.67,4.11 4.49,24.1 9.6,136.63 10.42,155.22 0.08,1.73 -0.7,3.41 -2.12,4.41 -8.72,6.1 -19.02,3.3 -23.87,1.38 -1.72,-0.68 -2.93,-2.24 -3.18,-4.07 C 240.03,376.37 223.88,262.2 218.17,266 c -5.68,3.78 -16.02,111.91 -17.83,131.29 -0.18,1.9 -1.39,3.54 -3.14,4.28 -11.35,4.76 -19.45,2.42 -23.46,0.45 -1.76,-0.87 -2.86,-2.67 -2.86,-4.64 l 0.32,-160.11 c -0.01,-0.87 0.2,-1.73 0.62,-2.48 z"
         fill="inherit"
         id="path226"
         style="fill:#312e5f;fill-opacity:1" />
    </g>
    <g
       id="change5_4"
       style="fill:#f7b252;fill-opacity:1">
      <path
         d="m 265.21,238.82 c 0,0 -50.5,6.71 -94.93,-1.28 l 18.97,-131.15 h 61.26 z"
         fill="#F28F69"
         id="path229"
         style="fill:#f7b252;fill-opacity:1" />
    </g>
    <g
       id="change2_4"
       style="fill:#d03372;fill-opacity:1">
      <path
         d="m 200.29,116.89 6.96,111.05 c 0.11,1.83 -0.95,3.52 -2.65,4.21 -9.23,3.72 -37.86,15.07 -40.07,13.47 -2.64,-1.92 5.11,-56.33 5.11,-56.33 0,0 -17.58,10.87 -37.48,0 -20.28,-11.08 -16.54,-25.25 -1.2,-42.03 15.34,-16.78 25.89,-30.12 34.04,-30.74 0,0 18.89,-14.01 28.74,-16.4 9.86,-2.41 6.55,16.77 6.55,16.77 z m 38.94,0.15 -6.96,111.05 c -0.11,1.83 0.95,3.52 2.65,4.21 9.23,3.72 37.86,15.07 40.07,13.47 2.64,-1.92 -5.11,-56.33 -5.11,-56.33 0,0 17.58,10.87 37.48,0 20.28,-11.08 16.54,-25.25 1.2,-42.03 -15.34,-16.78 -28.49,-32.8 -36.64,-33.42 0,0 -16.29,-11.33 -26.14,-13.73 -9.86,-2.4 -6.55,16.78 -6.55,16.78 z"
         fill="#6E9692"
         id="path232"
         style="fill:#d03372;fill-opacity:1" />
    </g>
    <g
       id="change3_9">
      <path
         d="m 238.37,170.81 c -0.11,0 -0.22,-0.04 -0.32,-0.11 -0.21,-0.18 -0.24,-0.49 -0.07,-0.7 12.55,-15.3 15.18,-26.72 15.52,-28.45 l -10.1,-11.23 c -0.1,-0.11 -0.14,-0.25 -0.12,-0.39 0.02,-0.14 0.1,-0.27 0.21,-0.35 l 10.79,-7.34 -10.23,-17.36 c -0.14,-0.24 -0.06,-0.54 0.18,-0.68 0.24,-0.14 0.54,-0.06 0.68,0.18 l 10.47,17.76 c 0.13,0.23 0.07,0.52 -0.15,0.67 l -10.7,7.28 9.88,10.99 c 0.1,0.11 0.14,0.26 0.12,0.41 -0.08,0.5 -2,12.37 -15.78,29.16 -0.09,0.09 -0.23,0.16 -0.38,0.16 z m -39.36,2.57 c 0.21,-0.18 0.24,-0.49 0.07,-0.7 -12.55,-15.3 -15.18,-26.72 -15.52,-28.45 L 193.66,133 c 0.1,-0.11 0.14,-0.25 0.13,-0.39 -0.02,-0.14 -0.1,-0.27 -0.22,-0.35 l -10.79,-7.34 10.23,-17.36 c 0.14,-0.24 0.06,-0.54 -0.18,-0.68 -0.24,-0.14 -0.54,-0.06 -0.68,0.18 l -10.47,17.76 c -0.13,0.23 -0.07,0.52 0.15,0.67 l 10.7,7.29 -9.88,10.99 c -0.1,0.11 -0.15,0.26 -0.12,0.41 0.08,0.5 2,12.37 15.78,29.16 0.1,0.12 0.24,0.18 0.39,0.18 0.11,-0.03 0.22,-0.07 0.31,-0.14 z m 72.89,39.44 c 0.11,-0.25 -0.01,-0.55 -0.27,-0.65 L 254,204.8 c -1.56,-0.65 -2.6,-2.11 -2.71,-3.8 l -0.56,-8.91 18.76,8.25 c 0.25,0.11 0.55,0 0.66,-0.26 0.11,-0.25 0,-0.55 -0.26,-0.66 l -19.51,-8.58 c -0.16,-0.07 -0.34,-0.05 -0.49,0.05 -0.14,0.1 -0.22,0.27 -0.21,0.44 l 0.61,9.73 c 0.13,2.08 1.4,3.86 3.32,4.67 l 17.63,7.37 c 0.06,0.03 0.13,0.04 0.19,0.04 0.21,-0.01 0.39,-0.13 0.47,-0.32 z m -104.92,1.68 17.63,-7.37 c 1.92,-0.8 3.19,-2.59 3.32,-4.67 l 0.61,-9.73 c 0.01,-0.17 -0.07,-0.34 -0.21,-0.44 -0.14,-0.1 -0.33,-0.12 -0.49,-0.05 l -19.51,8.58 c -0.25,0.11 -0.37,0.41 -0.26,0.66 0.11,0.25 0.41,0.37 0.66,0.26 l 18.75,-8.25 -0.56,8.91 c -0.11,1.69 -1.14,3.15 -2.71,3.81 l -17.63,7.37 c -0.25,0.11 -0.38,0.4 -0.27,0.65 0.08,0.19 0.27,0.31 0.46,0.31 0.08,0 0.15,-0.02 0.21,-0.04 z"
         fill="inherit"
         id="path235" />
    </g>
    <g
       id="change5_5"
       style="fill:#f7b252;fill-opacity:1">
      <path
         d="m 251.48,102.7 c -3.23,15.2 -15.41,30.84 -34.42,30.84 -19.01,0 -31.19,-15.2 -34.42,-30.84 -3.19,-15.47 15.41,-28.61 34.42,-28.61 19.01,0 37.7,13.16 34.42,28.61 z"
         fill="#F28F69"
         id="path238"
         style="fill:#f7b252;fill-opacity:1" />
    </g>
    <g
       id="change1_8"
       style="fill:#ffffff;fill-opacity:1">
      <path
         d="m 235.53,103.22 c -1.5,7.04 -6.57,14.25 -14.49,16.09 -1.25,0.29 -2.58,0.45 -3.97,0.45 -1.28,0 -2.51,-0.13 -3.67,-0.37 -8.09,-1.69 -13.28,-8.84 -14.79,-16.18 -1.72,-8.29 8.26,-15.34 18.46,-15.34 10.19,0.01 20.21,7.07 18.46,15.35 z M 219.75,266.9 c 0.16,-0.22 0.11,-0.54 -0.12,-0.7 l -12.08,-8.61 c -0.23,-0.16 -0.54,-0.11 -0.7,0.12 -0.16,0.22 -0.11,0.54 0.12,0.7 l 12.08,8.61 c 0.09,0.06 0.19,0.09 0.29,0.09 0.16,0 0.32,-0.07 0.41,-0.21 z"
         fill="#EDE6DD"
         id="path241"
         style="fill:#ffffff;fill-opacity:1" />
    </g>
    <g
       id="change4_7">
      <path
         d="m 239.73,63.02 c 0,8.89 -3.68,17.73 -10.4,21.73 -0.49,0.3 -0.98,0.58 -1.47,0.85 l 1.07,10.42 c 0.15,1.51 -0.55,2.97 -1.82,3.8 l -10.03,6.5 v 0.07 l -0.06,-0.04 -0.06,0.04 v -0.07 l -10.03,-6.5 c -1.27,-0.82 -1.98,-2.29 -1.82,-3.8 l 1.04,-10.1 c -0.53,-0.29 -1.06,-0.58 -1.61,-0.89 -6.92,-3.94 -10.79,-12.94 -10.79,-22.01 0,-14.03 10.29,-25.4 22.99,-25.4 12.69,0 22.99,11.37 22.99,25.4 z"
         fill="#f4bba8"
         id="path244" />
    </g>
    <g
       id="change3_10">
      <path
         d="m 230.15,55.2 c -0.25,0 -0.5,-0.1 -0.7,-0.29 -0.13,-0.12 -2.86,-2.67 -7.7,-1.37 -0.53,0.15 -1.08,-0.17 -1.22,-0.71 -0.14,-0.53 0.17,-1.08 0.71,-1.22 6,-1.61 9.47,1.74 9.62,1.88 0.39,0.39 0.4,1.02 0.01,1.41 -0.21,0.2 -0.47,0.3 -0.72,0.3 z m -26.36,0.34 c 0.03,-0.03 3.23,-3.14 7.98,-2.95 0.54,0.03 1.02,-0.41 1.04,-0.96 0.02,-0.55 -0.41,-1.02 -0.96,-1.04 -5.65,-0.2 -9.31,3.38 -9.46,3.53 -0.39,0.39 -0.39,1.02 0,1.41 0.2,0.2 0.45,0.29 0.71,0.29 0.24,0.01 0.5,-0.09 0.69,-0.28 z m 23.22,3.19 c -1.66,0 -3.01,1.35 -3.01,3.01 0,1.66 1.35,3.01 3.01,3.01 1.66,0 3.01,-1.35 3.01,-3.01 0,-1.67 -1.35,-3.01 -3.01,-3.01 z m -19.87,0 c -1.66,0 -3.01,1.35 -3.01,3.01 0,1.66 1.35,3.01 3.01,3.01 1.66,0 3.01,-1.35 3.01,-3.01 0,-1.67 -1.35,-3.01 -3.01,-3.01 z m 16.62,-28.29 c 0,0 -1.14,-5.12 -8.33,-5.12 -8.03,0 -23.54,5.97 -27.75,11.09 -4.21,5.12 5.12,1.22 5.12,1.22 0,0 -6,3.9 -6.21,8.1 -0.21,4.2 4.22,17.81 5.37,18.12 0.38,0.1 1.72,0.77 2.33,-0.82 2.72,-7.11 6.79,-15.1 13.24,-19.15 3.62,-2.28 7.63,-4.14 11.26,-4.33 0,0 2.6,4.19 6.73,5.04 4.13,0.85 0,-4.96 0,-4.96 l 1.68,1.62 c 4.68,4.51 7.94,10.28 9.47,16.6 0.61,2.5 1.24,4.55 1.69,4.64 4.66,0.9 6.11,-14.9 5.58,-19.26 -0.54,-4.36 -6.11,-7.96 -6.11,-7.96 0,0 4.35,1.62 5.27,-0.75 0.92,-2.4 -13.84,-7.9 -19.34,-4.08 z m -7.02,58.66 c -3.72,0 -6.76,-1.14 -10.11,-2.91 1.31,4.22 5.47,7.3 10.39,7.3 5.07,0 9.32,-3.27 10.49,-7.69 -3.51,1.97 -6.8,3.3 -10.77,3.3 z m 8.35,43.97 c 7.61,-1.93 12.82,-6.5 13.03,-6.69 0.21,-0.18 0.22,-0.5 0.04,-0.71 -0.18,-0.21 -0.5,-0.23 -0.71,-0.04 -0.05,0.05 -5.25,4.6 -12.62,6.47 -0.27,0.07 -0.43,0.34 -0.36,0.61 0.06,0.23 0.26,0.38 0.48,0.38 0.06,0 0.1,-0.01 0.14,-0.02 z m -17.16,-0.8 c 0.07,-0.27 -0.08,-0.54 -0.35,-0.61 -1.63,-0.45 -6.44,-2.79 -6.49,-2.81 -0.25,-0.12 -0.55,-0.02 -0.67,0.23 -0.12,0.25 -0.02,0.55 0.23,0.67 0.2,0.1 4.94,2.41 6.66,2.88 0.04,0.01 0.09,0.02 0.13,0.02 0.23,-0.01 0.43,-0.15 0.49,-0.38 z"
         fill="inherit"
         id="path247" />
    </g>
    <g
       id="change4_8">
      <path
         d="m 200.29,67.75 c 0,4.17 -1.84,7.94 -5.62,7.94 -3.78,0 -8.08,-3.77 -8.08,-7.94 0,-4.17 3.07,-7.54 6.85,-7.54 3.78,0 6.85,3.38 6.85,7.54 z m 33.46,0 c 0,4.17 1.84,7.94 5.62,7.94 3.78,0 8.08,-3.77 8.08,-7.94 0,-4.17 -3.07,-7.54 -6.85,-7.54 -3.79,0 -6.85,3.38 -6.85,7.54 z"
         fill="#f4bba8"
         id="path250" />
    </g>
    <g
       id="change2_5"
       style="fill:#d03372;fill-opacity:1">
      <path
         d="m 222.88,113.72 -1.84,5.59 c -1.25,0.29 -2.58,0.45 -3.97,0.45 -1.28,0 -2.51,-0.13 -3.67,-0.37 l -2.3,-5.47 c -0.36,-0.85 -0.07,-1.83 0.7,-2.35 l 5.23,-3.56 5.12,3.49 c 0.7,0.5 1.01,1.4 0.73,2.22 z"
         fill="#6E9692"
         id="path253"
         style="fill:#d03372;fill-opacity:1" />
    </g>
    <g
       id="change3_11">
      <path
         d="m 216.62,72.89 c -0.14,0 -0.28,-0.06 -0.38,-0.18 -0.2,-0.23 -1.92,-2.3 -2.17,-3.36 -0.28,-1.17 1.77,-2.8 2.66,-3.44 0.22,-0.16 0.54,-0.11 0.7,0.11 0.16,0.22 0.11,0.54 -0.11,0.7 -1.35,0.98 -2.33,2.1 -2.27,2.4 0.15,0.62 1.28,2.14 1.96,2.94 0.18,0.21 0.15,0.53 -0.06,0.7 -0.1,0.09 -0.22,0.13 -0.33,0.13 z m 12.11,0.68 c 0.2,-0.19 0.2,-0.51 0,-0.71 -0.2,-0.2 -0.51,-0.2 -0.71,0 -0.35,0.35 -8.74,8.48 -19.5,2.2 -0.24,-0.14 -0.54,-0.06 -0.68,0.18 -0.14,0.24 -0.06,0.54 0.18,0.68 3.11,1.81 6.04,2.47 8.68,2.47 7.07,0 11.96,-4.76 12.03,-4.82 z m -38.98,-5.61 c 0.19,-1.77 0.76,-2.99 1.69,-3.62 1.12,-0.76 2.44,-0.4 2.45,-0.39 v 0 c 0.27,0.07 0.54,-0.07 0.62,-0.34 0.08,-0.27 -0.07,-0.54 -0.34,-0.62 -0.07,-0.02 -1.76,-0.5 -3.28,0.51 -1.19,0.8 -1.91,2.26 -2.14,4.35 -0.03,0.27 0.17,0.52 0.44,0.55 0.02,0 0.04,0 0.05,0 0.27,0.01 0.48,-0.18 0.51,-0.44 z m 55.09,0.45 c 0.27,-0.03 0.47,-0.28 0.44,-0.55 -0.23,-2.09 -0.95,-3.55 -2.14,-4.35 -1.52,-1.01 -3.21,-0.53 -3.28,-0.51 -0.26,0.08 -0.42,0.35 -0.34,0.62 0.08,0.26 0.35,0.42 0.62,0.34 0.01,0 1.33,-0.37 2.45,0.39 0.93,0.63 1.5,1.84 1.69,3.62 0.03,0.26 0.24,0.45 0.5,0.45 0.02,-0.01 0.04,-0.01 0.06,-0.01 z m -38.9,47.56 11.08,-7.36 11.08,7.36 c 0.23,0.15 0.54,0.09 0.69,-0.14 0.15,-0.23 0.09,-0.54 -0.14,-0.69 L 217.3,107.6 c -0.17,-0.11 -0.38,-0.11 -0.55,0 l -11.36,7.54 c -0.23,0.15 -0.29,0.46 -0.14,0.69 0.1,0.15 0.25,0.22 0.42,0.22 0.09,0 0.18,-0.02 0.27,-0.08 z M 162.9,164.4 c 0.15,-0.23 0.08,-0.54 -0.15,-0.69 -19.87,-12.9 -31.67,-3.19 -31.79,-3.09 -0.21,0.18 -0.24,0.49 -0.06,0.7 0.18,0.21 0.49,0.24 0.7,0.06 0.11,-0.09 11.39,-9.31 30.6,3.17 0.08,0.05 0.18,0.08 0.27,0.08 0.17,0 0.34,-0.08 0.43,-0.23 z m 10.53,-9.47 c 0.27,-0.06 0.44,-0.33 0.38,-0.6 L 165.5,116.4 c -0.06,-0.27 -0.33,-0.44 -0.6,-0.38 -0.27,0.06 -0.44,0.33 -0.38,0.6 l 8.31,37.93 c 0.05,0.23 0.26,0.39 0.49,0.39 0.03,0 0.07,0 0.11,-0.01 z m 94.18,0.46 4.33,-39.78 c 0.03,-0.27 -0.17,-0.52 -0.44,-0.55 -0.25,-0.02 -0.52,0.17 -0.55,0.44 l -4.33,39.78 c -0.03,0.27 0.17,0.52 0.44,0.55 0.02,0 0.04,0 0.05,0 0.26,0 0.47,-0.19 0.5,-0.44 z m 6.86,8.5 c 11.69,-8.76 32.61,-5.95 32.82,-5.92 0.27,0.04 0.53,-0.15 0.56,-0.43 0.04,-0.27 -0.15,-0.53 -0.43,-0.56 -0.87,-0.12 -21.53,-2.9 -33.56,6.11 -0.22,0.17 -0.27,0.48 -0.1,0.7 0.1,0.13 0.25,0.2 0.4,0.2 0.12,0 0.22,-0.03 0.31,-0.1 z"
         fill="inherit"
         id="path256" />
    </g>
    <g
       id="change3_12">
      <path
         d="m 169.17,195.71 c -0.2,0 -0.4,-0.02 -0.6,-0.06 -1.62,-0.33 -2.67,-1.91 -2.34,-3.54 6.91,-34.07 9.75,-85.36 9.78,-85.88 0.09,-1.65 1.49,-2.92 3.16,-2.83 1.65,0.09 2.92,1.5 2.83,3.16 -0.03,0.52 -2.89,52.24 -9.89,86.75 -0.29,1.41 -1.54,2.4 -2.94,2.4 z m 101.55,-0.06 c 1.62,-0.33 2.67,-1.91 2.34,-3.54 -6.91,-34.07 -9.75,-85.36 -9.78,-85.88 -0.09,-1.65 -1.53,-2.92 -3.16,-2.83 -1.65,0.09 -2.92,1.5 -2.83,3.16 0.03,0.52 2.89,52.24 9.89,86.75 0.29,1.42 1.54,2.4 2.94,2.4 0.2,0 0.4,-0.02 0.6,-0.06 z m -7.7,215.9 c 5.39,-5.19 12.05,-3.72 12.12,-3.71 0.4,0.09 0.81,-0.16 0.9,-0.56 0.09,-0.4 -0.16,-0.81 -0.56,-0.9 -0.3,-0.07 -7.5,-1.68 -13.5,4.09 -0.3,0.29 -0.31,0.76 -0.02,1.06 0.15,0.15 0.34,0.23 0.54,0.23 0.19,0 0.38,-0.07 0.52,-0.21 z m 4.8,6.4 c 5.39,-5.19 12.05,-3.72 12.12,-3.71 0.4,0.09 0.81,-0.16 0.9,-0.56 0.09,-0.4 -0.16,-0.81 -0.56,-0.9 -0.3,-0.07 -7.51,-1.68 -13.5,4.09 -0.3,0.29 -0.31,0.76 -0.02,1.06 0.15,0.15 0.34,0.23 0.54,0.23 0.19,0 0.37,-0.07 0.52,-0.21 z m 4.47,8.26 c 5.39,-5.19 12.05,-3.72 12.12,-3.71 0.4,0.09 0.81,-0.16 0.9,-0.56 0.09,-0.4 -0.16,-0.81 -0.56,-0.9 -0.3,-0.07 -7.5,-1.68 -13.5,4.09 -0.3,0.29 -0.31,0.76 -0.02,1.06 0.15,0.15 0.34,0.23 0.54,0.23 0.19,0 0.37,-0.07 0.52,-0.21 z m -98.17,-10.93 c 0.39,-0.13 0.61,-0.55 0.48,-0.94 -2.29,-7.04 -8.5,-8.5 -8.76,-8.56 -0.4,-0.08 -0.8,0.17 -0.89,0.57 -0.09,0.4 0.16,0.8 0.57,0.9 0.23,0.05 5.65,1.35 7.66,7.56 0.1,0.32 0.4,0.52 0.71,0.52 0.07,-0.01 0.15,-0.02 0.23,-0.05 z m -6.22,3.37 c 0.39,-0.13 0.61,-0.55 0.48,-0.94 -2.29,-7.04 -8.5,-8.5 -8.76,-8.56 -0.4,-0.09 -0.8,0.17 -0.89,0.57 -0.09,0.4 0.16,0.8 0.57,0.9 0.23,0.05 5.65,1.35 7.66,7.56 0.1,0.32 0.4,0.52 0.71,0.52 0.08,-0.01 0.15,-0.02 0.23,-0.05 z m -7.65,4.07 c 0.39,-0.13 0.61,-0.55 0.48,-0.94 -2.29,-7.04 -8.5,-8.5 -8.76,-8.56 -0.41,-0.09 -0.8,0.17 -0.89,0.57 -0.09,0.4 0.17,0.81 0.57,0.9 0.06,0.01 5.64,1.32 7.66,7.55 0.1,0.32 0.4,0.52 0.71,0.52 0.08,0 0.15,-0.01 0.23,-0.04 z"
         fill="inherit"
         id="path259" />
    </g>
    <g
       id="change1_9"
       style="fill:#ffffff;fill-opacity:1">
      <path
         d="m 150.8,174.76 c 1.37,-6.88 6.6,-11.64 11.68,-10.63 5.08,1.01 8.09,7.41 6.72,14.29 -1.37,6.88 -6.6,11.64 -11.68,10.63 -5.08,-1.01 -8.09,-7.41 -6.72,-14.29 z m 138.27,-0.54 c -1.37,-6.88 -6.6,-11.64 -11.68,-10.63 -5.08,1.01 -8.09,7.41 -6.72,14.29 1.37,6.88 6.6,11.64 11.68,10.63 5.09,-1.01 8.09,-7.41 6.72,-14.29 z"
         fill="#EDE6DD"
         id="path262"
         style="fill:#ffffff;fill-opacity:1" />
    </g>
    <g
       id="change4_9">
      <path
         d="m 156.26,180.97 c -0.61,-2.42 -0.9,-5.94 0.71,-9.85 0.42,-1.03 1.07,-1.94 1.84,-2.75 2.98,-3.1 11.37,-11.67 13.95,-12.51 3.16,-1.02 12.2,4.56 12.09,6.73 -0.11,2.16 -3.37,3.45 -3.37,3.45 0,0 1.8,1.3 1.24,3.9 -0.56,2.6 -2.87,2.34 -2.87,2.34 0,0 2.75,4.88 -1.5,6.3 0,0 2.44,4.38 -1.58,5.13 -2.9,0.54 -11.59,0.62 -16.23,0.62 -2.02,0 -3.78,-1.38 -4.28,-3.36 z m 127.35,-0.54 c 0.61,-2.42 0.9,-5.94 -0.71,-9.85 -0.42,-1.03 -1.07,-1.94 -1.84,-2.75 -2.98,-3.1 -11.37,-11.67 -13.95,-12.51 -3.16,-1.02 -12.2,4.56 -12.09,6.73 0.11,2.16 3.37,3.45 3.37,3.45 0,0 -1.8,1.3 -1.24,3.9 0.56,2.6 2.87,2.34 2.87,2.34 0,0 -2.75,4.88 1.5,6.3 0,0 -2.44,4.38 1.58,5.13 2.9,0.54 11.59,0.62 16.23,0.62 2.03,0 3.78,-1.39 4.28,-3.36 z"
         fill="#f4bba8"
         id="path265" />
    </g>
    <g
       id="change3_13">
      <path
         d="m 182.48,166.44 c -0.09,0 -0.18,-0.02 -0.26,-0.07 -0.05,-0.03 -4.63,-2.78 -7.65,-3.78 -0.26,-0.09 -0.4,-0.37 -0.32,-0.63 0.09,-0.26 0.37,-0.4 0.63,-0.32 3.12,1.04 7.66,3.76 7.85,3.88 0.24,0.14 0.31,0.45 0.17,0.69 -0.08,0.15 -0.25,0.23 -0.42,0.23 z m -1.33,5.85 c 0.09,-0.26 -0.05,-0.55 -0.31,-0.63 -0.23,-0.08 -5.72,-1.95 -8.42,-2.38 -0.28,-0.05 -0.53,0.14 -0.57,0.41 -0.04,0.27 0.14,0.53 0.41,0.57 2.62,0.42 8.2,2.32 8.26,2.34 0.05,0.02 0.11,0.03 0.16,0.03 0.2,0 0.4,-0.13 0.47,-0.34 z m -1.66,6.2 c 0.06,-0.27 -0.11,-0.54 -0.37,-0.6 -0.24,-0.06 -6.02,-1.39 -8.16,-1.24 -0.28,0.02 -0.48,0.26 -0.46,0.53 0.02,0.28 0.26,0.49 0.53,0.46 2.01,-0.14 7.81,1.2 7.86,1.21 0.04,0.01 0.08,0.01 0.11,0.01 0.23,0.02 0.43,-0.13 0.49,-0.37 z m 78.16,-12.66 c 0.05,-0.03 4.63,-2.78 7.65,-3.78 0.26,-0.09 0.4,-0.37 0.32,-0.63 -0.09,-0.26 -0.37,-0.41 -0.63,-0.32 -3.13,1.04 -7.66,3.76 -7.85,3.88 -0.24,0.14 -0.31,0.45 -0.17,0.69 0.09,0.16 0.26,0.24 0.43,0.24 0.08,-0.01 0.17,-0.03 0.25,-0.08 z m 1.71,6.23 c 0.06,-0.02 5.64,-1.92 8.26,-2.34 0.27,-0.04 0.46,-0.3 0.42,-0.57 -0.04,-0.27 -0.31,-0.46 -0.57,-0.41 -2.7,0.43 -8.19,2.3 -8.42,2.38 -0.26,0.09 -0.4,0.37 -0.31,0.63 0.07,0.21 0.27,0.34 0.47,0.34 0.05,0 0.1,-0.01 0.15,-0.03 z m 1.63,6.27 c 0.06,-0.01 5.87,-1.35 7.86,-1.21 0.27,0.01 0.51,-0.19 0.53,-0.46 0.02,-0.28 -0.19,-0.51 -0.46,-0.53 -2.15,-0.15 -7.91,1.18 -8.16,1.24 -0.27,0.06 -0.44,0.33 -0.38,0.6 0.05,0.23 0.26,0.39 0.49,0.39 0.05,-0.02 0.08,-0.02 0.12,-0.03 z"
         fill="inherit"
         id="path268" />
    </g>
  </g>
  <rect
     style="fill:#ffffff;fill-opacity:1;stroke-width:0.844131"
     id="rect3408"
     width="407.74292"
     height="150.87816"
     x="15.670328"
     y="290.345"
     transform="matrix(1,0,-0.00718994,0.99997415,0,0)" />
  <rect
     style="fill:#ffffff;fill-opacity:1"
     id="rect3410"
     width="14.644876"
     height="3.7968197"
     x="84.606438"
     y="312.82584" />
</svg>
