<?xml version="1.0" encoding="UTF-8" standalone="no"?>
<svg
   height="249.45639"
   preserveAspectRatio="xMidYMid meet"
   version="1.0"
   viewBox="-1.1 -1.6 246.12975 249.45638"
   width="246.12976"
   zoomAndPan="magnify"
   id="svg29"
   sodipodi:docname="404.svg"
   inkscape:version="1.1 (c68e22c387, 2021-05-23)"
   xmlns:inkscape="http://www.inkscape.org/namespaces/inkscape"
   xmlns:sodipodi="http://sodipodi.sourceforge.net/DTD/sodipodi-0.dtd"
   xmlns:xlink="http://www.w3.org/1999/xlink"
   xmlns="http://www.w3.org/2000/svg"
   xmlns:svg="http://www.w3.org/2000/svg">
  <defs
     id="defs33">
    <linearGradient
       id="linearGradient50261"
       inkscape:swatch="solid">
      <stop
         style="stop-color:#27235e;stop-opacity:1;"
         offset="0"
         id="stop50259" />
    </linearGradient>
    <pattern
       inkscape:collect="always"
       xlink:href="#Wavy"
       id="pattern25919"
       patternTransform="translate(0.6,-0.5)" />
    <pattern
       inkscape:collect="always"
       patternUnits="userSpaceOnUse"
       width="30.066020"
       height="5.1805778"
       id="Wavy"
       inkscape:stockid="Wavy"
       inkscape:isstock="true">
      <path
         style="fill:black;stroke:none;"
         d="M 7.597,0.061 C 5.079,-0.187 2.656,0.302 -0.01,1.788 L -0.01,3.061 C 2.773,1.431 5.173,1.052 7.472,1.280 C 9.770,1.508 11.969,2.361 14.253,3.218 C 18.820,4.931 23.804,6.676 30.066,3.061 L 30.062,1.788 C 23.622,5.497 19.246,3.770 14.691,2.061 C 12.413,1.207 10.115,0.311 7.597,0.061 z "
         id="path22802" />
    </pattern>
    <linearGradient
       id="linearGradient23132"
       inkscape:swatch="solid">
      <stop
         style="stop-color:#eaca03;stop-opacity:1;"
         offset="0"
         id="stop23130" />
    </linearGradient>
    <filter
       inkscape:collect="always"
       style="color-interpolation-filters:sRGB"
       id="filter23300"
       x="-0.031413798"
       y="-0.03177725"
       width="1.0630889"
       height="1.0634886">
      <feGaussianBlur
         inkscape:collect="always"
         stdDeviation="1.0589475"
         id="feGaussianBlur23302" />
    </filter>
  </defs>
  <sodipodi:namedview
     id="namedview31"
     pagecolor="#ffffff"
     bordercolor="#666666"
     borderopacity="1.0"
     inkscape:pageshadow="2"
     inkscape:pageopacity="0.0"
     inkscape:pagecheckerboard="0"
     showgrid="false"
     inkscape:zoom="3.7249037"
     inkscape:cx="92.485611"
     inkscape:cy="99.197194"
     inkscape:window-width="1841"
     inkscape:window-height="1057"
     inkscape:window-x="-8"
     inkscape:window-y="1072"
     inkscape:window-maximized="1"
     inkscape:current-layer="g23"
     fit-margin-top="0"
     fit-margin-left="0"
     fit-margin-right="0"
     fit-margin-bottom="0" />
  <g
     id="g27"
     transform="translate(-1.5306075,17.003394)">
    <g
       id="g25"
       transform="translate(0.37966445)">
      <g
         id="g23">
        <path
           d="m 107.23226,17.996187 c 32,-1.6 43.76686,6.518349 44.76686,16.618349 0.6,7 0.2,16.3 0.2,22.6 0,3.2 1.6,12.9 -0.2,17.5 -4.1,10.4 -8.7,19.116955 -21.3,19.116955 -12.6,0 -32.000005,-7.216955 -38.600005,-15.616955 -1.2,-1.5 -16.2,-12.9 -16.2,-21.8 -0.1,-19 8.433142,-37.218348 31.333145,-38.418349 z"
           fill="#FFF"
           id="path10"
           style="fill:#f8dcc1;fill-opacity:1;stroke:none;stroke-opacity:1"
           sodipodi:nodetypes="ccscsccc" />
        <g
           id="g21">
          <g
             clip-rule="evenodd"
             fill-rule="evenodd"
             id="g8">
            <g
               id="change1_1"
               style="fill:#f8dcc1;fill-opacity:1">
              <path
                 d="m 202.6,11.1 c 2.2,-1.1 4.3,-2.4 6.4,-3.6 1.5,-0.9 3.18812,-3.99831 1.68812,-3.19831 L 207.1,4.7 c 0,0 -5.14595,2.1857284 -5.67129,2.2483802 C 199.02903,7.2345651 206.83387,3.3726146 204.3,1.1 201.86307,1.9295155 200.06442,3.497305 197.86442,4.497305 193.26442,6.497305 188.5,7.2 183.5,7.2 c -1.8,-0.1 -3.5,0.2 -5.3,0.5 0.7,-2.8 2.4,-4.9 3.3,-7.5 0.7,-2.7 -3.2,-4.6 -4.6,-1.9 -0.3,0.6 -0.7,1.3 -1,1.9 -3,2.7 -8,2.5 -11,5.4 -1.7,1.5 -2.6,3.6 -2.9,5.7 -0.2,1.4 0.1,2.8 -0.7,4.1 -4.1,5.8 -10.6,15.1 -13.9,21.5 l -13.6,21.7 c -9.62523,-28.759634 -9.99724,-84.249054 -23.49324,-90.125419 -4.8,-2.1 -6.4271,-5.284736 -8.4271,-10.084736 C 99.379664,-50.910155 92.8,-53.7 84.1,-53.2 c -8.3,0 -14.4,3.5 -16.2,11.9 -3.7,6.4 -11.920336,7.696632 -18.5,7 -4.6,1 -9,2.7 -13.2,4.7 -4.7,-4.4 -21.4,14.2 -22.9,19 L 16,-10 c 0.8,0.2 0.5,1.4 -0.3,1.2 -1,-0.2 -2,-0.4 -3,-0.5 0,0.1 -0.1,0.2 -0.1,0.3 h -0.3 c 0.2,0.1 0.5,0.3 0.7,0.5 0.6,0.5 -0.2,1.4 -0.8,1 -0.6,-0.4 -1.3,-0.4 -2,-0.5 0,1.4 -5,-0.2 -5.8,-0.6 -3.4,-0.4 -6.9,0 -10.1,-1.6 -4.3,-0.9 -8.5,-1.9 -12.7,-3 -1.1,0.4 -2.2,2 -1.3,3.1 0.5,0.5 -0.1,1.4 -0.8,1 -2.1,-1.2 -3.7,-3.2 -5.1,-5.2 -0.6,-0.7 -1.8,-0.5 -2.7,-0.8 -0.1,0.2 -0.2,0.4 -0.2,0.7 -3.7,0.6 -1.1,4.6 0.8,5.9 -1,0.6 -1,1.9 -0.9,2.9 -0.4,0.1 -0.4,0.6 -0.2,1 0.7,1.6 2.2,2.9 3.3,4.2 1.3,1.4 2.4,2.9 3.9,4 5.8,4.5 12.9,7 20.2,7.9 2.6,0.4 6.3,1 7.9,3.2 C 6.1,17.3 5.4,19.8 4.7,22.3 3.8,25.6 3.9,29.1 3.8,32.5 3.7,32.4 3.4,32.4 3.4,32.6 3.2,34 3,35.5 2.2,36.6 c -0.8,2.2 -1.3,4.6 -1.5,6.9 -1.1,11 -1.4,22.3 1.1,33.1 1,4 2.6,7.8 4.7,11.3 0.6,1 1.7,1.4 2.6,1.1 3.1,1.6 7.1,2.1 10.4,1.7 11.5,-3.3 7.5,4.6 23.6,2.2 27.8,-3.5 55.9,3.4 83.7,-0.7 0.7,5.3 9.6,3.8 12.7,1.5 9.3,-6.9 14,-28.9 18.6,-40 3.2,-8.8 8.6,-24.3 15.7,-30.2 2.1,-1.7 4.7,-2.5 7.2,-3.2 9.5,-2.5 19.1,-4.8 28.7,-7.2 1.6,-0.4 3.54838,-3.099326 1.84838,-2.899326 C 209.44838,10.700674 204.9,10.8 202.6,11.1 Z"
                 fill="#ffffff"
                 transform="translate(31.056,135.053)"
                 id="path2"
                 style="fill:#f8dcc1;fill-opacity:1"
                 sodipodi:nodetypes="ccccsccccccccsccccccccccccccccscccccsccccccccccccccccsccccscccscc" />
            </g>
            <g
               id="change2_1">
              <path
                 d="m -10,9.4 c -0.6,-0.1 -1.3,-0.3 -1.9,-0.5 -1,-0.3 -1.9,-0.6 -2.8,-1 C -16.6,7.1 -18.5,6.2 -20.2,5.1 -23,3.3 -25.5,1 -27.4,-1.8 L -27.5,-2 c -1.1,-1.6 -3,-5.3 -0.8,-6.5 -1.4,-1.2 -2.8,-3.3 -2.7,-5 0.1,-2.3 3,-2.3 4.5,-1.3 1,0.6 1.7,1.6 2.4,2.5 0.8,1 1.7,1.9 2.6,2.9 l 0.7,0.7 0.2,0.2 c 0,-0.1 -0.1,-0.2 -0.1,-0.3 -0.5,-1.5 0.1,-3.5 1.6,-4.3 0.9,-0.4 1.9,-0.2 2.8,0.2 l 0.1,0.1 c 1.2,0.5 2.5,1 3.8,1.3 5.2,1.5 10.7,1.7 16,2.5 2.1,0.3 4.2,0.6 6.2,1.2 0.8,-3.3 2.7,-6.5 4.8,-9.1 10,-12.5 26.4,-16.7 41.4,-19.3 1.4,-0.2 2.5,1.6 3.3,1.1 1.5,-0.8 2.8,-2 4,-3.2 2.5,-2.7 4.3,-5.8 6.3,-8.8 1,-1.5 3.4,-0.2 2.4,1.4 l -0.5,0.8 c -1.9,3.2 -4,6.4 -6.8,8.8 -1.5,1.3 -3.1,2.3 -4.9,3 -1.4,0.5 -3.4,0.9 -4.9,0.4 L 54.7,-33 c 0.1,0.1 0.1,0.2 0.2,0.3 4,5.8 9.1,10.7 14.4,15.4 5.4,4.7 11.1,8.9 16.9,13 l 0.5,0.3 c 9.5,-6.9 17.5,-15.9 23.1,-26.2 -1.2,-0.1 -2.3,-0.9 -3.3,-1.5 -1.2,-0.7 -2.3,-1.5 -3.2,-2.6 -2.15211,-4.560577 -2.37832,-9.361444 0.2,-4.9 0.45254,0.972877 1.23729,2.405084 2.1,3.4 1,0.9 2.3,1.5 3.5,2.1 0.6,0.3 3.7,1.1 4.1,1.7 5.4,-1.3 10.6,0.9 14.6,4.6 3.9,3.6 6.7,8.2 9.2,12.8 2.7,4.9 4.9,10 6.7,15.2 1.9,5.3 3.4,10.7 4.2,16.3 1.5,17.4 1.2339,17.247458 1.2339,17.247458 C 143.6589,42.048979 138.52792,51.018437 133.8,58.6 c -0.2,2.2 -0.5,4.4 -0.7,6.5 -0.4,4.9 -0.7,9.9 -0.8,14.9 0,2.4 0.1,4.8 0.2,7.2 0.1,1.1 0.1,2.3 0.2,3.4 l 0.1,0.8 c 0.1,1.1 0.1,2.2 -0.3,3.3 -0.4,0.9 -1.4,1.1 -2.1,0.4 -8.4,-0.3 -16.7,-0.6 -25.1,-0.8 -15,-0.3 -29.9,-0.2 -44.9,0 -7.5,0.1 -15,0.4 -22.5,0.6 -3.7,0.1 -7.4,0.3 -11.1,0.3 -2,0 -5.1,-0.7 -5.3,-2.9 v -0.1 c -0.2,0.1 -0.5,0.1 -0.8,0.2 h -0.3 -0.1 c -3,0.9 -6.7,-0.4 -9.6,-1.1 L 10.5,91.2 C 7.8,90.5 5.6,89.5 3.9,87.3 c -3.1,-3.9 -4.2,-9.2 -4.7,-14 -0.5,-4.6 -0.5,-9.2 0.1,-13.8 -0.4,-3.7 0,-7.5 0.4,-11.2 0.2,-1.8 0.5,-3.6 0.7,-5.5 l 0.6,-3 0.3,-1.2 v -0.2 c -0.3,0 -0.7,0 -1.1,-0.2 -0.8,-0.5 -1.1,-1.4 -1.1,-2.3 0,-2.7 0.3,-5.5 0.6,-8.2 C 0,25 0.4,22.3 0.9,19.6 L 1.4,19 c 0.4,-2 0.8,-4 1.6,-5.9 -3,-0.5 -6,-1 -8.8,-2 -1.5,-0.4 -2.8,-1 -4.2,-1.7 z m 156.62817,27.835579 -5.5,1.8 c 0,0 -3.32817,0.764421 -5.22817,1.664421 -0.4,5.1 -1.76846,15.753096 -2.1,17.9 -0.50408,2.677087 3.1,-6.4 3.1,-6.4 z M 2.4,38.3 c 0,0.6 -0.1,1.2 -0.2,1.8 C 2.1,41.1 2,42 1.9,43 L 1.3,48.7 C 1.2,49.9 1.1,51.1 1.1,52.4 2.3,47.9 3.9,43.5 5.4,39.2 5.1,39.2 4.9,39.1 4.6,39 L 4.2,38.9 Z M 12.3,0.4 c 1.3,0.1 2.5,0.4 3.7,0.8 h 0.1 C 17,1.6 18.3,2 18.5,3 18.6,3.3 18.4,3.5 18.1,3.5 17.2,3.6 16,2.6 15.2,2.2 14.2,1.8 13.2,1.5 12.2,1.4 9.9,1 7.4,1.3 5.2,2.1 5.1,2.2 5,2 5.2,1.9 7.4,0.7 9.8,0.1 12.3,0.4 Z M -14.4,6.4 -14.8,6 C -16,4.9 -17,3.7 -17.7,2.3 l -0.2,-0.4 c -0.6,-1.2 -1.3,-2.8 0.1,-3.7 0.8,-0.4 1.8,-0.3 2.8,0 0.1,0 0.1,0 0.2,0.1 0.4,0.1 0.8,0.3 1.2,0.5 1.6,0.7 3,1.8 4.4,2.7 1.6,1 3.1,1.7 5,2 H -4 c 1.7,0.3 3.6,0.6 4.8,2 0.3,0.4 0,1 -0.5,0.8 C -3.1,5.2 -6.6,5 -9.6,3.1 -10.9,2.3 -12,1.5 -13.3,0.8 -14,0.4 -14.7,0.1 -15.4,-0.1 l -0.4,-0.1 c -0.2,-0.1 -0.5,-0.1 -0.7,-0.1 -0.5,0.1 -0.4,0.3 -0.3,0.6 v 0 c 0.9,2.8 3.4,5.1 5.8,6.6 0.5,0.4 1.1,0.7 1.7,1 3.8,2 8.1,3 12.2,4.1 1.6,0.4 2.7,0.8 3.2,0.9 0.9,0 1.9,0.3 2.6,0.7 0.7,0.4 1.2,0.9 1.6,1.4 0,0 0.4,0.3 0.5,0.8 0.2,0.5 0.3,1 0.4,1.5 0,0.3 0,0.5 -0.2,0.7 0.4,6.6 -1.4,13.2 -3.4,19.5 L 7.4,38.1 7.3,38.5 C 5.1,45.2 2.6,51.8 1.5,58.8 0.7,63.5 0.7,68.3 1.3,73 v 0.3 c 0.5,4.4 1.6,9.4 4.4,12.9 1.4,1.8 3.1,2.6 5.3,3.2 h 0.1 c 2,0.5 4,1.3 6,1.5 1.9,0.2 3.5,-0.5 5.1,-1.1 v 0 c 3.6,-3.2 5.2,-7.8 6.4,-12.4 3.1,-12 2.7,-24.5 1,-36.6 -0.9,-6.4 -2.2,-12.7 -3.4,-19 -0.6,-3.2 -1.3,-6.3 -1.8,-9.5 L 24.1,10.4 C 23.9,9.4 23.7,8.3 23.6,7.3 23.4,5.9 23.3,4.5 23.3,3.1 21.5,0.4 19,-2 16.2,-3.6 14.1,-4.8 12,-5.6 9.7,-6.2 3.3,-8 -3.7,-7.9 -10.2,-9.2 c -2.2,-0.4 -4.2,-1.1 -6.3,-1.9 l -0.3,-0.1 c -0.9,-0.4 -1.9,-0.6 -2.4,0.5 -0.3,0.8 -0.1,1.6 0.4,2.3 1.2,1.6 3.7,2.4 5.6,3 1.1,0.4 2.3,0.6 3.4,0.8 1.1,0.2 2.3,0.3 3.4,0.7 0.4,0.2 0.5,0.8 0,1 -1.4,0.3 -2.8,0 -4.2,-0.2 -1.5,-0.3 -3,-0.7 -4.5,-1.3 -0.3,-0.1 -0.6,-0.2 -0.8,-0.3 l -0.2,-0.1 c 0.2,0.2 0.4,0.3 0.7,0.5 0.1,0 0,0.2 -0.1,0.1 -3.4,-1.3 -6.6,-3.6 -9,-6.4 l -0.1,-0.1 c -0.9,-1 -2.8,-3.9 -4.4,-3.1 -1.5,0.8 1.1,3.8 2.1,5 l 0.1,0.1 c 1.1,0 2.2,0.7 3.2,1.3 1.6,1 3.3,1.8 5,2.6 3.4,1.6 7,2.7 10.3,4.4 v 0.1 c -2.1,-0.3 -4.2,-0.9 -6.3,-1.6 h -0.1 -0.1 c -1.3,-0.4 -2.6,-0.9 -3.8,-1.4 -1.4,-0.6 -2.7,-1.2 -4.1,-1.9 -1.2,-0.7 -2.5,-1.8 -3.9,-2 H -27 c -1.6,0.1 -0.3,2.8 0.2,3.5 0.7,1.3 1.6,2.5 2.6,3.6 2,2.2 4.5,4 7.2,5.3 0.7,0.4 1.6,0.8 2.6,1.2 z"
                 fill="inherit"
                 id="path5"
                 style="fill:#a62659;fill-opacity:1;stroke:#000000;stroke-opacity:1"
                 sodipodi:nodetypes="ccccccccccccccccccccccccssccccccccccccccscccccccccccccccscsccccccccccccccccssccccccccccccccccccccccccccccccccssccccccccccccccssccccsccccccccccccccsscccccccscccccccsccccscccccccccsccccccccccscc"
                 transform="translate(31.056,135.053)" />
            </g>
            <path
               d="m 152.35765,49.864507 c 0,3.6 0.1,7.3 0.2,10.9 0.2,6 0.46307,12.065768 -1.33693,17.965768 -1.5,4.8 -4.26576,7.624799 -7.8973,11.29461 -4.53693,3.2 -8.12884,3.959032 -13.16172,4.293263 -5.43921,-0.335572 -9.8142,-0.488002 -14.05904,-2.923452 -0.9,-0.9 -1.04268,-1.53357 0.35732,-0.93357 4.9655,2.323263 11.37762,3.587329 16.47568,2.981719 9.5,-1.3 16.36161,-9.778338 17.76161,-19.078338 0.4,-2.6 0.4,-5.2 0.4,-7.8 v -2.9 c 0,-2.4 0,-4.8 0.1,-7.2 0.1,-3.1 0.56846,-5.327494 0.86846,-8.327494 l 0.25034,-2.472506"
               id="path1343"
               sodipodi:nodetypes="cccccccccssccc" />
          </g>
          <path
             d="m 88.49187,10.187586 c 0.3,0.2 0.7,0.1 1,-0.2 38.00958,-21.708425 59.57286,6.253848 65.4,23.2 -0.1,0.2 -0.1,0.6 -0.2,0.8 0.2,0.3 0.3,0.6 0.3,0.9 -0.1,0.5 -0.3,1 -0.7,1.3 -0.2,1 -0.7,2.1 -1.1,2.9 -0.1,0.1 -0.1,0.2 -0.2,0.3 -0.4154,0.49372 -0.8,0.3 -0.8,0.3 -0.3,0 -2.5,-3.9 -3.8,-6 -13.69756,-21.45186 -37.13407,3.397844 -49.2,4.7 -5.504649,1.642022 -3.303142,6.972796 -3.1,11.8 v 0.2 c 0.1,2.3 0.7,6.4 -2.7,6.3 -1.2,0 -2.5,-1 -3.5,-1.7 l -0.1,-0.1 c -0.1,-0.1 -0.2,-0.1 -0.2,-0.2 -0.7,-0.1 -1.4,-0.3 -2.2,-0.3 -0.9,0 -1.9,0.1 -2.7,0.3 -1.6,0.4 -3.1,1.1 -4.1,2.4 -0.1,0.1 -0.2,0.2 -0.2,0.3 -0.1,0.2 -0.2,0.5 -0.4,0.7 -1,2.2 -0.4,5 0.7,7 1.3,2.4 3.3,4 5.8,4.8 h 0.1 c 1.7,0.5 2.4,1.6 3.3,3 0.9,1.4 1.9,2.6 3,3.8 2.1,2.3 5,4.2 6.2,7.2 0.2,0.6 -0.5,1.1 -1,1 -25.31148,-10.469948 -36.71831,-31.552386 -27.2,-51.3 -0.979535,-10.06113 -24.894571,-11.024896 -17.6,-34 6.257452,-19.518283 57.02339,-21.611324 35.2,10.6 z m -6.5,49.8 c 1.8,-0.7 4,-0.5 5.7,0.2 l 0.1,0.1 c 1.6,0.6 4.1,2 4.4,3.8 0.2,0.9 -0.7,1.7 -1.6,1.2 -0.8,-0.4 -1.2,-1.3 -1.8,-1.9 -0.6,-0.6 -1.3,-1.1 -2,-1.5 -1.5,-0.9 -3.1,-1.2 -4.9,-1.5 -0.1,-0.1 -0.1,-0.4 0.1,-0.4 z"
             fill="inherit"
             id="path13-5-1"
             sodipodi:nodetypes="cccccccccccccccscssccccccscccccccccccsccc"
             style="opacity:1;fill:#5e3023;fill-opacity:1;stroke:#371616;stroke-opacity:1" />
          <path
             d="m 116.93315,2.5746834 c -0.1,0.5 26.4121,8.2485096 37.95872,33.1129026 -0.2,1 -0.7,2.1 -1.1,2.9 -0.1,0.1 -0.1,0.2 -0.2,0.3 -0.4154,0.49372 -0.8,0.3 -0.8,0.3 -1.50097,-2.417308 -3.54964,-5.084521 -4.8,-7.4 0,-0.1 0,-0.2 -0.1,-0.4 -1.68715,-2.762861 -4.49124,-4.483915 -6.8,-6.6 -4.3679,-2.564263 -8.68637,-3.64994 -12.4,-0.4 -6.50859,3.914118 -15.39697,7.611272 -20.9,11 -12.674004,3.771223 -11.508079,1.274065 -11.1,14.5 0.1,2.3 0.7,6.4 -2.7,6.3 -4.327275,-1.701975 -8.950152,-4.428419 -12.8,0.4 -0.1,0.1 -0.2,0.2 -0.2,0.3 -0.1,0.2 -0.2,0.5 -0.4,0.7 -1,2.2 -0.4,5 0.7,7 1.3,2.4 3.3,4 5.8,4.8 h 0.1 c 1.7,0.5 2.4,1.6 3.3,3 0.9,1.4 1.9,2.6 3,3.8 2.1,2.3 5,4.2 6.2,7.2 0.2,0.6 -0.5,1.1 -1,1 -2.2,-0.4 -3.7,-2 -5.2,-3.5 -1.1,-1 -2.1,-2.1 -3.1,-3.3 -0.2,0.1 -0.4,0.2 -0.7,0.2 -1,0.1 -2.1,0.1 -3,-0.5 -11.562957,-6.70653 -18.977039,-30.872194 -16,-37.4 11.57676,-21.088544 -2.894141,-5.993462 -9.56766,-20.184633 -1.130046,-12.0536361 -6.595159,-21.7471987 1,-31.3 25.049025,0.932688 26.36766,21.784633 54.80894,14.1717304 z M 82.59187,59.487586 c 3.267559,-0.825307 9.421713,0.445931 10.2,4.1 0.2,0.9 -0.7,1.7 -1.6,1.2 -0.8,-0.4 -1.2,-1.3 -1.8,-1.9 -0.6,-0.6 -1.3,-1.1 -2,-1.5 -1.5,-0.9 -3.1,-1.2 -4.9,-1.5 -0.1,-0.1 -0.1,-0.4 0.1,-0.4 z"
             fill="inherit"
             id="path13-5"
             sodipodi:nodetypes="ccccccccccccccccccsccccccccccccccsccc"
             style="opacity:0.097561;fill:url(#pattern25919);fill-opacity:1;stroke:#000000;stroke-opacity:1;filter:url(#filter23300)" />
          <g
             id="change2_2"
             transform="translate(-4.0560777,-0.74770648)">
            <path
               clip-rule="evenodd"
               d="M 27.6,-0.4 C 29,-0.7 30,0.4 29.8,1.7 29.5,3.1 28,3.6 26.8,3.5 25.4,3.5 24,3.2 22.6,3.1 21.1,3 19.7,3 18.2,3.1 16.9,3.1 15.5,3.4 14.1,3.2 13.6,3.1 13.6,2.4 14,2.2 15,1.5 16.3,1.2 17.5,0.9 18.7,0.6 19.9,0.4 21.2,0.2 22.5,0.1 23.7,0 25,0 c 0.6,0 1.3,0.1 1.8,0 0.2,-0.1 0.5,-0.3 0.8,-0.4 z m -3.8,-17.9 c 1.6,1 4,3.2 2.3,5.6 -2,2.1 -4.9,-0.3 -6.4,-1.4 -1.3,-0.9 -2.8,1.3 -1.6,2.3 10.4,7.7 14.6,-6.3 6.4,-7.7 -0.8,-0.1 -1.1,0.9 -0.7,1.2 z m -11.6,-7.3 c 2.1,-0.4 2.5,2.7 0.4,2.9 -0.4,0 -0.9,0.1 -1.3,0.1 0,0.1 0.1,0.3 0.1,0.4 0,0.1 0,0.3 0,0.4 0.1,0.7 -0.5,1.5 -1.1,1.9 -0.6,0.4 -1.6,0.4 -2.2,0 -0.3,-0.2 -0.7,-0.5 -0.8,-0.8 -0.3,-0.3 -0.4,-0.8 -0.4,-1.2 -1,0.3 -2,0.6 -2.9,0.8 0,0 0,0.1 0.1,0.1 0,0 0,0.1 0,0.1 L 3.6,-21 v 0 c -0.2,0 -0.3,0 -0.5,0 v 0 0 c -0.3,0 -0.5,-0.3 -0.2,-0.5 0.9,-0.9 2.2,-1.5 3.5,-2 L 7.6,-24 c 1.4,-0.7 3,-1.3 4.6,-1.6 z m 17.2,1 c 1.4,-0.2 2.8,-0.1 4.2,0 2.4,0.1 1.4,3.6 -0.5,2.8 0,0.1 0,0.3 0,0.4 -0.1,0.6 -0.3,1.1 -0.8,1.4 -0.5,0.3 -1.2,0.3 -1.7,0 -0.6,-0.3 -0.8,-0.8 -0.9,-1.4 -0.1,-0.5 -0.1,-0.8 0,-1.3 0,-0.1 0.1,-0.3 0.2,-0.4 -0.1,0 -0.3,-0.1 -0.4,-0.1 -1.2,-0.3 -2.3,-0.2 -3.5,-0.4 -0.1,0 -0.1,-0.2 0,-0.3 0.9,-0.4 2.2,-0.6 3.4,-0.7 z M 12,-35.2 c 0.8,-0.3 1.8,0.2 2.2,0.9 0.5,0.8 0.3,1.7 -0.3,2.4 -0.9,1 -2.6,1.7 -3.8,2.3 H 10 c -1.3,0.6 -2.6,1.2 -3.9,1.7 -1.3,0.5 -2.7,0.9 -4,1.2 -0.7,0.2 -1.4,0.3 -2.2,0.4 -0.6,0.1 -1,-0.1 -1.6,-0.1 -0.1,0 -0.1,-0.1 0,-0.1 0.5,-0.3 0.9,-0.8 1.5,-1 0.6,-0.3 1.2,-0.6 1.8,-0.9 1.2,-0.6 2.3,-1.3 3.5,-2 1.2,-0.7 2.4,-1.5 3.5,-2.3 1.1,-1 2.1,-2 3.4,-2.5 z m 14.4,-0.7 c 1,-0.2 2,0.3 2.3,1.3 0.3,1 0,1.2 0.7,1.9 0.6,0.6 1.3,1.1 1.9,1.6 l 1,0.7 c 1.8,1.3 3.5,2.5 5.6,3.4 0.2,0.1 0.1,0.3 -0.1,0.3 -3.2,0.1 -6.3,-0.4 -9.2,-1.8 -1.4,-0.7 -2.7,-1.5 -3.5,-2.9 -0.9,-1.5 -0.9,-4.1 1.3,-4.5 z"
               fill="inherit"
               fill-rule="evenodd"
               transform="translate(112.183,77.354)"
               id="path18"
               style="fill:#361e06;fill-opacity:1" />
          </g>
          <path
             d="m 192.14412,148.45469 c -0.9,-2.5 0.1,-5.1 1.9,-7.1 2,-2.2 4.7,-3.2 7.3,-4.3 l 0.3,-0.2 c 1.3,-0.6 2.5,-1.2 3.6,-2.1 1,-0.8 1.8,-2 2.9,-2.7 1.6,-1.1 4.5,-0.9 4.6,1.6 0,1.3 -0.5,2.8 -1.1,4 -0.6,1.4 -1.4,2.6 -2.3,3.7 0,0.1 -0.1,0.1 -0.1,0.1 v 0 c 1.3,0.2 2.6,0.4 4,0.5 2.7,0.1 5.5,-0.1 8.1,-0.7 2.7,-0.6 5.4,-1.5 7.8,-2.9 2.1,-1.1 4,-2.6 6.4,-3 0.2,0 0.4,-0.1 0.7,-0.1 0.4,0 0.8,0.4 0.6,0.8 l -0.3,0.6 c -0.8,1.8 -2.1,3.6 -3.7,4.9 l -0.1,0.1 c 0.6,-0.2 1.1,-0.4 1.6,-0.7 3.2,-1.4 6,-3.6 9.4,-4.4 0.2,0 0.3,-0.1 0.5,-0.1 1.1,-0.2 1.6,0.9 1,1.7 -0.1,0.1 -0.2,0.3 -0.3,0.4 -1.5,1.9 -3.2,3.6 -5,5.2 -0.6,0.5 -1.3,1.1 -1.9,1.6 -0.3,0.2 -0.6,0.4 -0.8,0.6 l -0.1,0.1 c 0.3,-0.2 0.7,-0.5 1,-0.7 2.1,-0.6 4.1,-1.4 6.1,-2.2 0.8,-0.3 1.4,0.5 1.5,1.1 0.3,2.2 -2.2,3.8 -3.8,4.9 -1.6,1.1 -3.4,1.9 -5.2,2.5 -3.5,1.3 -7.2,1.8 -10.8,2.3 l -1.8,0.2 c -7,1 -14.4,2.2 -19.4,7.6 -2.8,3.1 -4.7,6.9 -6.5,10.6 -1.7,3.7 -3.3,7.6 -4.7,11.5 -1.5,4 -2.8,8.1 -4.2,12.1 -1.3,3.7 -2.8,7.4 -4.3,11 l -0.2,0.6 c -3.2,7.7 -7.1,15 -12.4,21.4 -0.9,1.1 -2.3,-0.4 -1.5,-1.5 5.6,-7.2 9.5,-15.8 12.8,-24.3 1.5,-3.9 2.7,-7.9 4.1,-11.8 l 0.8,-2.3 c 1.1,-3.1 2.3,-6.2 3.4,-9.2 1.5,-3.9 3.1,-7.7 5,-11.4 l 0.2,-0.4 c 1.8,-3.6 4,-7.1 7,-9.8 5.4,-4.9 12.6,-6 19.6,-7 l 2.2,-0.3 c 2.9,-0.4 5.9,-0.8 8.8,-1.6 1.7,-0.5 3.3,-1 4.8,-1.8 0.6,-0.3 1.2,-0.7 1.8,-1 -1.6,0.5 -3.3,0.9 -5,1.2 -0.8,0.2 -1.6,0.3 -2.4,0.3 -2.1,0.2 -4.2,0.2 -6.3,0.1 -0.2,0 -0.2,-0.3 0,-0.3 1.5,-0.3 3,-0.6 4.5,-1 l 0.4,-0.1 c 0,-0.2 0.1,-0.5 0.3,-0.8 0.7,-0.9 2.1,-1.4 3.1,-2 1,-0.7 2,-1.4 3,-2.2 0.9,-0.7 1.7,-1.4 2.5,-2.2 l 0.2,-0.2 -0.2,0.2 c -2.2,1 -4.2,2.3 -6.4,3.1 -1.8,0.6 -3.7,1.1 -5.5,1.2 h -0.1 -0.1 c -2,0.1 -4,0.1 -5.9,0.5 -0.2,0 -0.3,-0.2 -0.1,-0.3 1.7,-0.7 3.5,-1 5.2,-1.3 0,-0.1 0.1,-0.3 0.3,-0.3 l 0.5,-0.2 c 1.4,-0.7 2.6,-1.3 3.8,-2.4 1,-0.9 1.8,-2 2.5,-3.2 -2.5,0.5 -4.7,2.4 -7,3.5 -2.5,1.2 -5.1,2 -7.8,2.5 l -0.3,0.1 c -5,0.8 -11.1,0.7 -15.6,-1.9 -0.1,-0.1 0,-0.3 0.1,-0.3 1.3,0.2 2.5,0.5 3.8,0.7 -0.2,-0.2 -0.4,-0.6 -0.1,-1 1.1,-1.3 2,-2.8 2.6,-4.4 l 0.1,-0.3 c 0.3,-0.8 0.7,-1.9 0.3,-2.6 -0.4,-0.6 -1.5,-0.6 -2.1,-0.3 -1.3,0.6 -2.1,2 -3.2,2.9 -1.2,0.9 -2.5,1.6 -3.9,2.3 l -0.7,0.4 c -2.4,1.1 -4.9,2 -6.7,3.8 -1,1 -1.9,2.3 -2.1,3.7 -0.1,0.6 -0.1,1.3 0,2 0.1,0.5 0.4,0.8 0.3,1.3 -0.2,0.7 -1,1.4 -1.4,2 -0.5,0.7 -11.63609,18.54846 -11.63609,18.54846 l -0.0671,-1.29198"
             style="fill:#000000;fill-opacity:1;stroke:none;stroke-opacity:1"
             id="path29241"
             sodipodi:nodetypes="ccccccccccsccccssccccccccccsccccsccccccccccccccccscccccccccccccccscccccccccccccccccccccccccccscccccc" />
          <path
             d="m 101.26209,203.02661 c 10.19999,-15.8 18.09999,-33.3 24.19999,-51.1 0.2,-0.7 -0.8,-0.9 -1,-0.3 -6.6,17.8 -14.9,34.3 -24.19999,50.7 -0.500002,0.8 0.6,1.4 1,0.7 z m 21.09999,-26.1 c -0.8,2.3 -1.7,4.5 -2.2,6.9 -0.1,0.7 0.9,1.2 1.2,0.5 1,-2.2 1.6,-4.7 2.4,-7 0.2,-0.9 -1.1,-1.3 -1.4,-0.4 z"
             style="fill:#6f1a3c;fill-opacity:1"
             id="path960" />
        </g>
      </g>
    </g>
  </g>
</svg>
