<?xml version="1.0" encoding="UTF-8" standalone="no"?>
<svg
   height="20"
   viewBox="0 0 18 20"
   width="18"
   fill="#000000"
   version="1.1"
   id="svg6"
   sodipodi:docname="date_range_icon.svg"
   inkscape:version="1.1 (c68e22c387, 2021-05-23)"
   xmlns:inkscape="http://www.inkscape.org/namespaces/inkscape"
   xmlns:sodipodi="http://sodipodi.sourceforge.net/DTD/sodipodi-0.dtd"
   xmlns="http://www.w3.org/2000/svg"
   xmlns:svg="http://www.w3.org/2000/svg">
  <defs
     id="defs10" />
  <sodipodi:namedview
     id="namedview8"
     pagecolor="#ffffff"
     bordercolor="#666666"
     borderopacity="1.0"
     inkscape:pageshadow="2"
     inkscape:pageopacity="0.0"
     inkscape:pagecheckerboard="0"
     showgrid="false"
     inkscape:zoom="25.691546"
     inkscape:cx="6.7921175"
     inkscape:cy="12.358151"
     inkscape:window-width="1841"
     inkscape:window-height="1057"
     inkscape:window-x="-8"
     inkscape:window-y="1072"
     inkscape:window-maximized="1"
     inkscape:current-layer="svg6"
     fit-margin-top="0"
     fit-margin-left="0"
     fit-margin-right="0"
     fit-margin-bottom="0" />
  <path
     d="M -3,-2 H 21 V 22 H -3 Z"
     fill="none"
     id="path2" />
  <path
     d="M 6,9 H 4 v 2 h 2 z m 4,0 H 8 v 2 h 2 z m 4,0 h -2 v 2 h 2 z M 16,2 H 15 V 0 H 13 V 2 H 5 V 0 H 3 V 2 H 2 C 0.89,2 0.01,2.9 0.01,4 L 0,18 c 0,1.1 0.89,2 2,2 h 14 c 1.1,0 2,-0.9 2,-2 V 4 C 18,2.9 17.1,2 16,2 Z m 0,16 H 2 V 7 h 14 z"
     id="path4"
     style="fill:#2700b6;fill-opacity:1" />
</svg>
