<?xml version="1.0" encoding="UTF-8" standalone="no"?>
<svg
   height="414.8"
   preserveAspectRatio="xMidYMid meet"
   version="1.0"
   viewBox="0.0 0.0 478.3 414.8"
   width="478.3"
   zoomAndPan="magnify"
   id="svg20"
   sodipodi:docname="faq.svg"
   inkscape:version="1.1 (c68e22c387, 2021-05-23)"
   xmlns:inkscape="http://www.inkscape.org/namespaces/inkscape"
   xmlns:sodipodi="http://sodipodi.sourceforge.net/DTD/sodipodi-0.dtd"
   xmlns="http://www.w3.org/2000/svg"
   xmlns:svg="http://www.w3.org/2000/svg">
  <defs
     id="defs24" />
  <sodipodi:namedview
     id="namedview22"
     pagecolor="#ffffff"
     bordercolor="#666666"
     borderopacity="1.0"
     inkscape:pageshadow="2"
     inkscape:pageopacity="0.0"
     inkscape:pagecheckerboard="0"
     showgrid="false"
     inkscape:zoom="2.102218"
     inkscape:cx="239.27109"
     inkscape:cy="207.63784"
     inkscape:window-width="1842"
     inkscape:window-height="1057"
     inkscape:window-x="-8"
     inkscape:window-y="-8"
     inkscape:window-maximized="1"
     inkscape:current-layer="svg20" />
  <g
     fill="#8FA6AC"
     id="change1_2"
     style="fill:#d03372;fill-opacity:1">
    <path
       d="M141.54,96.93h-40.22v29.66h32.91c3.52,0,6.5,2.71,6.5,6.23c0,3.52-2.98,6.23-6.5,6.23h-32.91v33.05 c0,4.06-3.25,7.58-7.18,7.58c-4.06,0-7.45-3.52-7.45-7.58V92.06c0-4.6,3.39-7.99,7.99-7.99h46.86c3.52,0,6.5,2.84,6.5,6.37 C148.04,94.09,145.06,96.93,141.54,96.93z"
       fill="inherit"
       id="path2"
       style="fill:#d03372;fill-opacity:1" />
    <path
       d="M237.03,172.64c0,3.66-3.12,6.77-7.18,6.77c-3.25,0-5.82-1.9-7.04-4.6l-8.26-19.37h-41.31l-8.26,19.37 c-1.22,2.71-3.79,4.6-7.04,4.6c-4.06,0-7.18-3.11-7.18-6.77c0-1.35,0.41-2.84,0.95-3.93l35.08-79.77c1.49-3.52,3.66-5.42,7.04-5.42 c3.39,0,5.69,1.9,7.18,5.42l35.08,79.77C236.62,169.8,237.03,171.29,237.03,172.64z M209.53,143.79l-15.71-36.57l-15.58,36.57 H209.53z"
       fill="inherit"
       id="path4"
       style="fill:#d03372;fill-opacity:1" />
    <path
       d="M327.64,169.93c0.95,1.22,1.63,2.57,1.63,4.2c0,3.39-2.71,6.09-6.09,6.09c-1.63,0-3.25-0.68-4.2-1.9 l-5.15-5.15c-7.18,4.2-15.3,6.64-23.57,6.64c-23.7,0-47.13-19.77-47.13-48.35s23.43-48.35,47.13-48.35 c23.7,0,47.13,19.77,47.13,48.35c0,13.95-5.55,25.73-13.95,34.13L327.64,169.93z M303.67,162.75l-10.83-11.11 c-0.95-1.08-1.76-2.57-1.76-4.2c0-3.25,2.71-6.09,6.09-6.09c1.76,0,3.25,0.68,4.33,1.9l11.78,12.05c5.42-5.96,8.8-14.09,8.8-23.84 c0-20.59-15.17-34.54-31.83-34.54c-16.52,0-31.83,13.95-31.83,34.54s15.3,34.4,31.83,34.4C295,165.87,299.47,164.79,303.67,162.75z"
       fill="inherit"
       id="path6"
       style="fill:#d03372;fill-opacity:1" />
  </g>
  <g
     id="g11">
    <path
       d="M75.13,293.43l0.29,45.39l25.92-27.23C91.2,307.69,82.23,301.41,75.13,293.43z"
       fill="none"
       id="path9" />
  </g>
  <g
     id="g15">
    <path
       d="M463.33,117.28v131.39c0,28.9-23.51,52.41-52.4,52.41c-4.13,0-7.48,3.32-7.5,7.45l-0.52,80.17l-81.19-85.3 c-1.42-1.48-3.38-2.32-5.43-2.32H132.07l33.19-34.88h187.61c37.16,0,67.39-30.23,67.39-67.4V67.41c0-0.57-0.03-1.13-0.04-1.69 C444.69,70.12,463.33,91.56,463.33,117.28z"
       fill="none"
       id="path13" />
  </g>
  <g
     id="change1_1">
    <path
       d="M418.04,50.26C410.44,21.37,384.11,0,352.87,0H67.41C30.24,0,0,30.24,0,67.41V198.8 c0,34.65,26.28,63.27,59.95,66.99l0.6,91.71c0.02,3.06,1.89,5.8,4.73,6.93c0.9,0.35,1.84,0.52,2.76,0.52 c2.02,0,3.99-0.81,5.44-2.33l44.69-46.95c2.4,0.26,4.83,0.41,7.29,0.41h187.61l91.78,96.42c1.45,1.51,3.42,2.33,5.44,2.33 c0.93,0,1.86-0.18,2.76-0.53c2.84-1.13,4.72-3.87,4.74-6.93l0.59-91.7c33.67-3.72,59.95-32.35,59.95-67V117.28 C478.33,82.52,451.88,53.82,418.04,50.26z M75.43,338.82l-0.3-45.39l-0.2-30.94l-0.02-3.84c-0.02-1.69-0.6-3.25-1.55-4.5 c-1.37-1.79-3.53-2.95-5.95-2.95c-3.18,0-6.28-0.3-9.3-0.84C33.64,245.96,15,224.52,15,198.8V67.41C15,38.51,38.51,15,67.41,15 h285.46c22.75,0,42.14,14.58,49.37,34.88c1.68,4.72,2.71,9.76,2.96,15c0.04,0.84,0.06,1.68,0.06,2.53V198.8 c0,28.9-23.5,52.4-52.39,52.4H162.04c-2.05,0-4.01,0.84-5.43,2.33l-43.78,46l-11.49,12.07L75.43,338.82z M463.33,248.67 c0,28.9-23.51,52.41-52.4,52.41c-4.13,0-7.48,3.32-7.5,7.45l-0.52,80.17l-81.19-85.3c-1.42-1.48-3.38-2.32-5.43-2.32H132.07 l33.19-34.88h187.61c37.16,0,67.39-30.23,67.39-67.4V67.41c0-0.57-0.03-1.13-0.04-1.69c24.47,4.4,43.11,25.84,43.11,51.56V248.67z"
       fill="#8FA6AC"
       id="path17"
       style="fill:#d03372;fill-opacity:1" />
  </g>
</svg>
