<svg id="Capa_1" enable-background="new 0 0 511.994 511.994" height="512" viewBox="0 0 511.994 511.994" width="512" 
xmlns="http://www.w3.org/2000/svg"><g>
<path style="fill:#2700b6" d="m182.997 190.213v106.787h26v-49c0-8.284 6.716-15 15-15h64c8.284 0 15 6.716 15 
15v49h26v-106.787l-73-73c-3.072 3.072-60.9 60.899-73 73zm104 1.787c0 8.284-6.716 15-15 15h-32c-8.284 0-15-6.716-15-15s6.716-15 
15-15h32c8.284 0 15 6.716 15 15z"/>
<path d="m238.997 263h34v34h-34z" style="fill:#2700b6"/>
<path style="fill:#2700b6" d="m255.997 0c-116.616 0-209.959 96.999-206.927 213.462 1.26 
50.84 21.305 97.504 52.818 132.708.021-.02.038-.043.059-.063 80.074 89.227 
218.002 92.088 301.712 6.805.02.03.039.061.06.09 36.242-36.968 57.902-86.86 59.207-139.54 
3.035-116.669-90.523-213.462-206.929-213.462zm130.606 226.606c-5.858 5.859-15.355 5.858-21.213 
0l-6.394-6.394v91.788c0 8.284-6.716 15-15 15-19.74 0-155.54 0-176 0-8.284 0-15-6.716-15-15v-91.787l-6.394 6.394c-5.857
 5.857-15.355 5.857-21.213 0s-5.858-15.355 0-21.213c11.626-11.626 47.62-47.62 59.606-59.606v-49.788c0-8.284 6.716-15 15-15s15 
 6.716 15 15v19.787l30.394-30.394c5.857-5.857 15.355-5.857 21.213 0 12.057 12.057 103.267 103.267 120 120 5.859 5.858 5.859 
 15.356.001 21.213z"/>
 <path style="fill:#2700b6" d="m189.809 435.579c19.359 22.368 37.149 45.411 53.209 69.011 0 .001 0 .001.001.002l.578.849c5.954 8.748 
 18.859 8.728 24.8 0 15.999-23.52 33.49-46.408 53.777-69.849-41.653 12.137-87.876 12.954-132.365-.013z"/>
</g></svg>