<?xml version="1.0" encoding="UTF-8" standalone="no"?>
<svg
   height="20"
   preserveAspectRatio="xMidYMid meet"
   version="1.0"
   viewBox="2.7 2.2 18.000001 20"
   width="18"
   zoomAndPan="magnify"
   id="svg8"
   sodipodi:docname="icon_exit.svg"
   inkscape:version="1.1 (c68e22c387, 2021-05-23)"
   xmlns:inkscape="http://www.inkscape.org/namespaces/inkscape"
   xmlns:sodipodi="http://sodipodi.sourceforge.net/DTD/sodipodi-0.dtd"
   xmlns="http://www.w3.org/2000/svg"
   xmlns:svg="http://www.w3.org/2000/svg">
  <defs
     id="defs12" />
  <sodipodi:namedview
     id="namedview10"
     pagecolor="#ffffff"
     bordercolor="#666666"
     borderopacity="1.0"
     inkscape:pageshadow="2"
     inkscape:pageopacity="0.0"
     inkscape:pagecheckerboard="0"
     showgrid="false"
     inkscape:zoom="15.49239"
     inkscape:cx="3.3887605"
     inkscape:cy="3.9051431"
     inkscape:window-width="1841"
     inkscape:window-height="1057"
     inkscape:window-x="-8"
     inkscape:window-y="1072"
     inkscape:window-maximized="1"
     inkscape:current-layer="svg8" />
  <g
     id="change1_1"
     transform="matrix(-1.0045904,0,0,1.0045904,23.227952,-0.0101218)"
     style="fill:#2700b6;fill-opacity:1">
    <path
       d="M 9.681,9.962 H 7 A 0.434,0.434 0 0 1 6.543,9.547 V 8.293 L 2.685,12.13 6.541,16 V 14.749 A 0.442,0.442 0 0 1 7,14.292 h 2.681 z"
       fill="inherit"
       id="path2"
       style="fill:#2700b6;fill-opacity:1" />
  </g>
  <g
     id="change1_2"
     transform="matrix(-1,0,0,1,22.725295,0)"
     style="fill:#2700b6;fill-opacity:1">
    <path
       d="M 18.910048,2.205 H 7.692792 A 0.69517655,0.69517655 0 0 0 6.9775236,2.9001765 v 4.2222934 c 0.00703,0 0.010046,0.036165 0.010046,0.069317 V 9.121605 H 9.6818812 A 0.44302436,0.44302436 0 0 1 10.140979,9.5807028 V 14.804573 A 0.4701483,0.4701483 0 0 1 9.6818812,15.26367 H 6.9875696 v 1.883607 a 0.47718043,0.47718043 0 0 1 -0.010046,0.100459 v 4.231335 A 0.69718573,0.69718573 0 0 0 7.692792,22.182284 H 18.910048 A 0.69216278,0.69216278 0 0 0 19.60422,21.479071 V 2.9031903 A 0.69115819,0.69115819 0 0 0 18.910048,2.205 Z M 11.794534,15.264675 H 10.890403 V 9.1216048 h 0.904131 z"
       fill="inherit"
       id="path5"
       style="fill:#2700b6;fill-opacity:1;stroke-width:1.00459" />
  </g>
</svg>
