<?xml version="1.0" encoding="UTF-8" standalone="no"?>
<svg
   height="20"
   preserveAspectRatio="xMidYMid meet"
   version="1.1"
   viewBox="109.7 96.7 18 20"
   width="18"
   zoomAndPan="magnify"
   id="svg15"
   sodipodi:docname="icon_profile.svg"
   inkscape:version="1.1 (c68e22c387, 2021-05-23)"
   xmlns:inkscape="http://www.inkscape.org/namespaces/inkscape"
   xmlns:sodipodi="http://sodipodi.sourceforge.net/DTD/sodipodi-0.dtd"
   xmlns="http://www.w3.org/2000/svg"
   xmlns:svg="http://www.w3.org/2000/svg">
  <defs
     id="defs19" />
  <sodipodi:namedview
     id="namedview17"
     pagecolor="#ffffff"
     bordercolor="#666666"
     borderopacity="1.0"
     inkscape:pageshadow="2"
     inkscape:pageopacity="0.0"
     inkscape:pagecheckerboard="0"
     showgrid="false"
     inkscape:zoom="30.094909"
     inkscape:cx="10.782555"
     inkscape:cy="11.812629"
     inkscape:window-width="1841"
     inkscape:window-height="1057"
     inkscape:window-x="-8"
     inkscape:window-y="1072"
     inkscape:window-maximized="1"
     inkscape:current-layer="surface1" />
  <g
     id="surface1">
    <g
       id="change1_1"
       style="fill:#2700b6;fill-opacity:1"
       transform="matrix(0.0856692,0,0,0.0856692,100.46891,88.521259)">
      <path
         d="m 312.95,325.98 h -200.7 c 0,0 2.6,-99.36 100.35,-101.16 0,0 100.35,-0.09 100.35,101.16"
         fill="#fff"
         id="path2"
         style="fill:#2700b6;fill-opacity:1" />
    </g>
    <g
       id="change2_1"
       style="stroke:none;stroke-opacity:1"
       transform="matrix(0.0856692,0,0,0.0856692,100.46891,88.521259)">
      <path
         d="m 312.95,325.98 v -2.5 h -200.7 v 2.5 l 2.5,0.07 V 326 c 0.03,-1.3 1.07,-25.82 13.84,-49.93 6.38,-12.06 15.64,-24 29.14,-33.05 13.5,-9.05 31.27,-15.26 54.91,-15.7 l -0.04,-2.5 v 2.5 c 0,0 0.38,0 1.1,0.03 2.71,0.09 10.18,0.53 19.82,2.58 14.47,3.09 33.77,9.83 49.33,24.34 7.78,7.27 14.66,16.46 19.61,28.2 4.96,11.74 7.99,26.04 7.99,43.51 h 2.5 v -2.5 2.5 h 2.5 c 0.01,-25.67 -6.37,-45.17 -16.04,-59.82 -7.25,-10.98 -16.31,-19.23 -25.79,-25.39 -14.23,-9.24 -29.39,-13.83 -41.03,-16.13 -11.64,-2.3 -19.77,-2.32 -19.99,-2.32 h -0.05 c -24.85,0.45 -43.88,7.15 -58.28,17 -10.8,7.39 -18.99,16.52 -25.18,26.03 -9.28,14.27 -14.09,29.36 -16.61,40.9 -2.52,11.55 -2.73,19.55 -2.73,19.67 -0.02,0.68 0.23,1.33 0.71,1.81 0.47,0.48 1.11,0.75 1.79,0.75 h 200.7 c 0.66,0 1.3,-0.26 1.77,-0.73 0.47,-0.46 0.73,-1.11 0.73,-1.77 h -2.5"
         fill="#292626"
         id="path5"
         style="fill:#2700b6;fill-opacity:1;stroke:none;stroke-opacity:1" />
    </g>
    <g
       id="change1_2"
       style="fill:#2700b6;fill-opacity:1"
       transform="matrix(0.0856692,0,0,0.0856692,100.46891,88.521259)">
      <path
         d="m 159.17,152.65 c 0,-29.51 23.92,-53.435 53.43,-53.435 29.51,0 53.43,23.925 53.43,53.435 0,29.51 -23.92,53.44 -53.43,53.44 -29.51,0 -53.43,-23.93 -53.43,-53.44"
         fill="#fff"
         id="path8"
         style="fill:#2700b6;fill-opacity:1" />
    </g>
    <g
       id="change2_2"
       style="stroke:none"
       transform="matrix(0.0856692,0,0,0.0856692,100.46891,88.521259)">
      <path
         d="m 159.17,152.65 h 2.5 c 0,-14.08 5.69,-26.79 14.91,-36.02 9.23,-9.22 21.94,-14.92 36.02,-14.92 14.08,0 26.79,5.7 36.02,14.92 9.22,9.23 14.91,21.94 14.91,36.02 0,14.07 -5.69,26.79 -14.91,36.01 -9.23,9.23 -21.95,14.92 -36.02,14.93 -14.08,-0.01 -26.79,-5.7 -36.01,-14.93 -9.23,-9.22 -14.92,-21.94 -14.92,-36.01 h -5 c 0,30.89 25.03,55.93 55.93,55.94 30.9,-0.01 55.93,-25.05 55.93,-55.94 0,-30.9 -25.03,-55.935 -55.93,-55.935 -30.9,0 -55.93,25.035 -55.93,55.935 h 2.5"
         fill="#292626"
         id="path11"
         style="fill:#2700b6;fill-opacity:1;stroke:none" />
    </g>
  </g>
</svg>
