<?xml version="1.0" encoding="UTF-8" standalone="no"?>
<svg
   height="231.2679"
   preserveAspectRatio="xMidYMid meet"
   version="1.0"
   viewBox="-0.3 -0.2 312.41349 231.26789"
   width="312.41348"
   zoomAndPan="magnify"
   id="svg32"
   sodipodi:docname="no_poll.svg"
   inkscape:version="1.1 (c68e22c387, 2021-05-23)"
   xmlns:inkscape="http://www.inkscape.org/namespaces/inkscape"
   xmlns:sodipodi="http://sodipodi.sourceforge.net/DTD/sodipodi-0.dtd"
   xmlns="http://www.w3.org/2000/svg"
   xmlns:svg="http://www.w3.org/2000/svg">
  <defs
     id="defs36" />
  <sodipodi:namedview
     id="namedview34"
     pagecolor="#ffffff"
     bordercolor="#666666"
     borderopacity="1.0"
     inkscape:pageshadow="2"
     inkscape:pageopacity="0.0"
     inkscape:pagecheckerboard="0"
     showgrid="false"
     inkscape:zoom="1.7433026"
     inkscape:cx="124.18957"
     inkscape:cy="143.11915"
     inkscape:window-width="1841"
     inkscape:window-height="1057"
     inkscape:window-x="-8"
     inkscape:window-y="-8"
     inkscape:window-maximized="1"
     inkscape:current-layer="svg32"
     fit-margin-top="0"
     fit-margin-left="0"
     fit-margin-right="0"
     fit-margin-bottom="0" />
  <g
     id="change1_1"
     transform="translate(-0.2,-0.17197553)">
    <path
       d="m 38.5,114.9 c -2.6,1.8 -5.1,3.3 -7.3,4.4 C 29.8,116 28.4,112.7 27,109.5 9.2,108 0.2,106.3 0.1,104.2 c -0.1,-1.6 5,-3.4 15.2,-5.3 -2.1,-1.2 -2.4,-1.8 -2.4,-2.1 0.4,-1.3 10.9,-0.8 19.5,4.1 5.7,3.2 9.1,7.6 10.9,10.3 -1.4,1.2 -3,2.5 -4.8,3.7 z m 234.1,5.9 c 2,2.6 4.3,4 5.6,4.7 2.2,-2.7 4.5,-5.4 6.7,-8.2 17.8,1.5 27,1.2 27.4,-0.9 0.3,-1.6 -4.4,-4.1 -14.2,-7.7 2.3,-0.8 2.7,-1.3 2.7,-1.7 -0.2,-1.4 -10.6,-2.7 -19.9,0.9 -5.4,2 -9.1,5.2 -11.1,7.2 0.3,1.4 1.1,3.5 2.8,5.7 z"
       fill="#e8af7a"
       id="path2"
       sodipodi:nodetypes="cccccccccccccccccc" />
  </g>
  <g
     id="change2_1"
     transform="translate(-0.2,-0.17197553)">
    <path
       d="m 192.7,61.5 c -0.1,2.1 -0.3,4.2 -0.5,6.4 m 0,0 c -0.1,1.2 -0.2,2.4 -0.4,3.6 -10.8,0.7 -23.6,0.7 -37.9,-0.7 -13.4,-1.2 -25.3,-3.5 -35.4,-6 5.2,-38.1 19.7,-63.9 35.4,-64.8 3.2,-0.2 7.6,0.6 13.2,4.7 4.4,-1.7 7.7,-1.6 10.1,-0.9 12,3.5 17.4,26.2 15.5,57.7"
       fill="#5e3023"
       id="path5" />
  </g>
  <g
     id="change1_2"
     transform="translate(-0.2,-0.17197553)">
    <path
       d="m 162.9,77.5 c -0.1,1.3 -0.1,2.5 -0.2,3.8 m 0.1,0 c -0.1,2.2 -0.2,4.3 -0.4,6.4 -2.5,5.3 -8.5,7.4 -12.9,5.5 -5,-2.1 -7.5,-9.3 -3.9,-15 0,-1.9 -0.1,-3.7 -0.1,-5.6 -6.7,-5 -10,-15.6 -9.4,-28.5 -2.2,0 -3.2,-0.8 -3.6,-1.1 -3.5,-3.1 -1.4,-12.1 2.8,-13.5 1,-0.3 2.1,-0.2 3.1,0.1 1.6,-0.3 3.7,-0.8 6.1,-1.8 0,0 1.2,-0.5 2.3,-1 4.1,-2.1 7,-4.6 8.9,-6.5 3.2,3 8,6.9 14.6,10.1 4.8,2.3 9.3,3.6 12.9,4.4 -0.2,1.1 -0.5,2.3 -0.7,3.4 2.4,0 3.4,0.9 3.8,1.3 3,3.3 -0.6,13.1 -5.6,13.8 -0.4,0.1 -1.1,0.1 -1.9,-0.2 -3.7,10.1 -9.3,17.5 -15.7,20.9 -0.1,1.2 -0.1,2.3 -0.2,3.5"
       fill="#e8af7a"
       id="path8" />
  </g>
  <g
     id="change4_1"
     transform="translate(-0.2,-0.17197553)"
     style="fill:#a62659;fill-opacity:1">
    <path
       d="m 155.4,87.4 c 2.5,-0.3 4.2,-1.9 4.8,-2.5 2,-2 2.5,-4.4 2.6,-5.2 5.6,-0.9 15.6,-1.7 26.9,2 3.2,1.1 8.3,2.8 13.6,6.5 7.1,5.1 13.1,12.8 24.9,28.4 4,5.3 7.2,9.7 9.2,12.6 11.1,-5.3 22.1,-10.5 33.2,-15.8 3,3.8 6,7.6 9.1,11.4 -5.4,6.2 -13.5,15 -24.2,24.8 -17.7,16.2 -22.9,17 -25.9,17 -16,0.1 -27.2,-23.3 -28.5,-26 1.9,28.1 3.8,56.2 5.6,84.2 -14.3,3.6 -34.9,7.2 -59.6,6.3 -18.6,-0.7 -34.3,-3.7 -46.4,-6.9 2.7,-27.7 5.3,-55.5 8,-83.2 -13.1,15.6 -29.7,25 -42.5,21.5 -7.4,-2 -12.3,-8.1 -20.3,-17.9 -7.8,-9.6 -12.5,-18.5 -15.4,-24.8 4.4,-3.4 8.8,-6.8 13.3,-10.2 8.7,7.7 17.4,15.4 26,23.1 7.7,-10.2 14,-18.7 18.5,-24.6 2.5,-3.3 6.6,-10.4 14.5,-17.8 1.8,-1.7 3.2,-2.9 3.8,-3.4 10.6,-8.7 30.5,-9.1 39.1,-8.9 0,1 0.3,2.8 1.4,4.7 1.5,2.7 4.7,5.1 8.3,4.7 z"
       fill="#f75a0d"
       id="path17"
       sodipodi:nodetypes="csccccccccccccccccccccccccc"
       style="fill:#a62659;fill-opacity:1" />
  </g>
  <g
     id="change2_3"
     transform="translate(-0.2,-0.17197553)">
    <path
       d="m 150,43.2 c -0.2,1 -1.2,1.7 -2.1,1.5 -0.9,-0.2 -1.4,-1.2 -1.2,-2.3 0.2,-1.1 1.2,-1.7 2.1,-1.5 1,0.3 1.5,1.3 1.2,2.3 z m 16.1,0 c -0.9,-0.2 -1.8,0.4 -2.1,1.5 -0.2,1 0.3,2 1.2,2.3 0.9,0.3 1.8,-0.4 2.1,-1.5 0.2,-1 -0.3,-2.1 -1.2,-2.3 z"
       fill="#5e3023"
       id="path20" />
  </g>
  <g
     id="change2_4"
     transform="translate(-0.2,-0.17197553)">
    <path
       d="m 184.4,34.5 c -2.5,10.5 -3.9,12.8 -4.8,12.7 -0.8,-0.1 -1.7,-2.9 -1.7,-15 2.2,0.8 4.3,1.6 6.5,2.3 z m -46,-5.7 c -1.4,8.1 -1.6,12.3 -0.8,12.6 1,0.3 3.5,-4.6 7.4,-14.5 -2.1,0.6 -4.4,1.3 -6.6,1.9 z"
       fill="#5e3023"
       id="path23" />
  </g>
  <g
     id="change3_2"
     transform="translate(-0.2,-0.17197553)"
     style="fill:#6f1a3c;fill-opacity:1">
    <path
       d="m 33.2,124.3 c -0.7,0.5 -1.4,-0.7 -0.7,-1.2 4.7,-3.5 9.4,-7.1 14.3,-10.3 0.5,-0.3 1.1,0.4 0.6,0.8 -4.5,3.8 -9.4,7.2 -14.2,10.7 z m 243.8,2.3 c -2.8,-3.9 -5.6,-7.8 -8.6,-11.6 -0.4,-0.5 -1.2,0.1 -0.8,0.6 2.6,4 5.4,7.8 8.2,11.6 0.5,0.8 1.7,0.1 1.2,-0.6 z m -10.7,-10.4 c -0.4,-0.4 -1.1,0.1 -0.8,0.6 2.2,3.5 4.7,6.8 7.1,10.1 -10.1,9.7 -20,19.9 -30.7,28.8 -10.9,9.1 -18.3,4.5 -26.6,-3.9 -5.2,-5.2 -9.5,-11.1 -13.7,-17.1 -0.2,-5.9 -0.4,-11.8 -0.7,-17.6 0,-0.7 -1.2,-0.8 -1.2,0 0.1,7.4 0.3,14.8 0.6,22.2 0,0.9 1.4,0.9 1.4,0 0,-1 -0.1,-1.9 -0.1,-2.9 5.8,10.3 18.2,28.3 30.6,26.4 7.4,-1.1 13.5,-8.5 18.5,-13.3 7.6,-7.1 15.2,-14.3 22.7,-21.5 l 0.9,1.2 c 0.5,0.7 1.8,0 1.2,-0.7 -3,-4.2 -5.9,-8.4 -9.2,-12.3 z M 166.8,80 c 0.1,-0.9 -1.3,-0.9 -1.4,0 -1.5,14.3 -21.8,13.1 -22.1,-1.1 0,-0.8 -1.2,-0.8 -1.2,0 0,16 23,17 24.7,1.1 z m 38.7,135.7 c -34.1,9.3 -68.9,9.9 -103,0.5 -0.9,-0.2 -1.2,1.1 -0.4,1.3 33.9,9.4 70,9.6 103.7,-0.8 0.6,-0.1 0.3,-1.1 -0.3,-1 z M 69.8,141.1 c 0.2,0.7 1.2,0.5 1.2,-0.2 0.1,-1.1 -0.2,-2.3 -0.4,-3.5 -0.1,-1 -0.3,-2.1 -0.5,-3.1 -0.1,-0.6 -1.1,-0.5 -1.1,0.1 0,1.2 0.2,2.3 0.3,3.5 0.2,1.1 0.2,2.2 0.5,3.2 z m 164.9,-1.7 c 0.9,-2.4 1.7,-4.9 2.5,-7.4 0.3,-0.8 -1,-1.1 -1.3,-0.4 -0.9,2.4 -1.8,4.9 -2.5,7.3 -0.3,1 1,1.3 1.3,0.5 z m -126.3,-1.9 -0.3,2.1 c -0.1,0.9 1.3,0.9 1.4,0 0.1,-1.2 0.3,-2.3 0.4,-3.5 0.1,-0.1 0.1,-0.3 0,-0.4 l 1.8,-16.2 c 0.1,-0.7 -1,-0.7 -1.1,0 -0.7,5.3 -1.4,10.6 -2,15.9 -9.2,8.1 -23.3,20.4 -35.9,22.5 -16.2,2.7 -29.6,-21.5 -36.4,-33.4 4.3,-3.1 8.6,-6.2 12.7,-9.6 0.4,-0.3 -0.1,-1 -0.6,-0.7 -5.1,3.4 -10,7.1 -15,10.7 -0.7,0.5 0,1.7 0.7,1.2 l 1.2,-0.9 c 6.2,11.7 18.4,33.6 33.3,34.5 6.4,0.4 12.8,-3.5 18,-6.6 7.8,-4.4 15,-9.7 21.8,-15.6 z m 28.4,35.6 C 147,157.3 154.9,139.8 161,122 c 0.2,-0.7 -0.8,-0.9 -1,-0.3 -6.6,17.8 -14.9,34.3 -24.2,50.7 -0.5,0.8 0.6,1.4 1,0.7 z M 157.9,147 c -0.8,2.3 -1.7,4.5 -2.2,6.9 -0.1,0.7 0.9,1.2 1.2,0.5 1,-2.2 1.6,-4.7 2.4,-7 0.2,-0.9 -1.1,-1.3 -1.4,-0.4 z"
       fill="#f7d55a"
       id="path26"
       sodipodi:nodetypes="cccccccccccccccccccsccccccccccsccccccccccsccscccsccccccccsccccccccccccccccccc"
       style="fill:#6f1a3c;fill-opacity:1" />
  </g>
  <g
     id="change2_5"
     transform="translate(-0.2,-0.17197553)">
    <path
       d="m 162.8,74.7 c -5.5,2.7 -12.3,2.4 -17.2,-1.4 -0.4,-0.3 0.1,-0.8 0.5,-0.6 5.1,2.9 10.6,3.6 16.1,0.9 0.7,-0.4 1.3,0.7 0.6,1.1 z m 18.9,-32.8 c 1.5,-0.8 2,0.9 2,1.7 0,0.6 -0.2,1.3 -0.4,1.8 -0.3,1.1 -1,2.1 -1.5,3.2 -0.3,0.6 0.5,1.4 1,0.8 1.4,-1.6 2.6,-4.5 2.1,-6.6 -0.4,-1.7 -2.2,-2.8 -3.8,-1.8 -0.5,0.4 0,1.3 0.6,0.9 z M 134.3,33 c -1,1.8 -1.6,4.1 -1.2,6.1 0.1,0.7 1.2,0.5 1.2,-0.2 0.1,-1.2 0.1,-2.3 0.4,-3.4 0.1,-0.4 1.1,-3.8 1.9,-3 0.4,0.4 1,-0.2 0.7,-0.7 -1.1,-1.2 -2.4,0.2 -3,1.2 z M 8.9,101.1 v 0.2 c -2,0.1 -4.1,0 -6,0.5 -0.6,0.1 -0.4,1 0.1,1 2,0.1 4,-0.4 6,-0.6 0,0.3 0.1,0.5 0.1,0.8 -2.9,0.1 -5.7,0.2 -8.6,0.3 -0.8,0 -0.8,1.4 0,1.3 2.9,-0.2 5.8,-0.4 8.7,-0.7 0.1,0.4 0.1,0.7 0.2,1.1 -2.2,0 -4.4,0 -6.6,0.1 -0.8,0 -0.8,1.3 0,1.3 2.2,-0.1 4.4,-0.2 6.7,-0.3 0.1,0 0.1,0 0.1,-0.1 0.1,0.2 0.1,0.4 0.2,0.6 0.2,0.7 1.4,0.6 1.3,-0.2 -0.2,-1.8 -0.8,-3.7 -1.3,-5.5 0,-0.8 -1,-0.5 -0.9,0.2 z m 10,2.1 c -1.5,-0.8 -3.2,-1.3 -4.8,-1.8 -0.6,-0.2 -1,0.8 -0.4,1 1.5,0.7 3.1,1.6 4.7,2 0.7,0.2 1.2,-0.9 0.5,-1.2 z m -4.1,0.4 c -0.7,-0.4 -1.3,0.7 -0.6,1 0.3,0.2 0.6,0.4 1,0.5 0.5,0.2 1,-0.6 0.5,-0.9 z m 297,12.2 c -2.7,-0.5 -5.5,-1.1 -8.2,-1.5 0,-0.3 0.1,-0.5 0.1,-0.8 1.9,0.4 3.8,0.7 5.7,1 0.6,0.1 0.9,-0.8 0.3,-0.9 -1.9,-0.4 -3.8,-0.9 -5.7,-1.3 0,-0.2 0.1,-0.3 0.1,-0.5 0.1,-0.7 -0.9,-1 -1,-0.3 -0.5,1.7 -1.1,3.5 -1.3,5.3 -0.1,0.8 1,1.2 1.3,0.4 v -0.1 c 1.6,0.4 3.3,0.6 4.9,0.9 0.5,0.1 0.8,-0.7 0.2,-0.8 -1.6,-0.4 -3.2,-1 -4.8,-1.2 0,-0.2 0.1,-0.3 0.1,-0.5 2.7,0.5 5.5,0.9 8.2,1.2 0.4,0.1 0.7,-0.8 0.1,-0.9 z M 295.1,111 c -0.7,-0.2 -1,0.7 -0.5,1.1 1.3,0.9 2.9,1.5 4.3,2.2 0.6,0.3 1.1,-0.6 0.5,-0.9 -1.3,-0.9 -2.7,-1.9 -4.3,-2.4 z m 1.1,3.3 c -0.5,-0.2 -1,-0.4 -1.5,-0.5 -0.6,-0.1 -1.1,0.8 -0.5,1.1 0.5,0.3 1.1,0.4 1.7,0.5 0.7,0.2 1,-0.9 0.3,-1.1 z M 153.3,53.6 v 0 c 0,0 0.1,0 0,0 0.1,0.1 0.2,0.1 0.3,0.2 1.3,0.5 2.6,1 4,1.4 0.9,0.3 1.2,-1 0.4,-1.3 l -3.3,-1.2 c 1.3,-4.7 2.7,-9.5 3.9,-14.2 0.2,-0.8 -1,-1.1 -1.2,-0.3 -1.5,4.9 -2.9,9.9 -4.3,14.8 -0.1,0.2 0,0.4 0.2,0.6 z m 1,-16 c 0.6,-0.3 0.1,-1.2 -0.5,-0.9 -2.9,1.4 -6.2,1.1 -8.9,-0.7 -0.8,-0.5 -1.4,0.7 -0.7,1.2 3,2.2 6.9,2.2 10.1,0.4 z m 8.5,0 c -0.8,0.2 -0.5,1.4 0.3,1.2 4,-1 7.7,0.2 10.7,3 0.6,0.6 1.5,-0.3 0.9,-0.9 -2.9,-3.4 -7.8,-4.6 -11.9,-3.3 z m -3.4,24.3 c 0.5,0.6 1,1.6 0.5,3.1 -0.5,1.3 -1.7,2.3 -3.2,2.7 -0.5,0.1 -1,0.2 -1.5,0.2 -0.8,0 -1.6,-0.1 -2.5,-0.3 -0.9,-0.2 -2.2,-0.6 -3.1,-1.6 -1,-1 -1.4,-2.5 -0.8,-3.7 0.6,-1.3 1.9,-1.8 2.9,-2.1 1.7,-0.4 6,-0.2 7.7,1.7 z M 152,61.6 c -0.6,0.1 -1.6,0.5 -1.9,1.2 -0.3,0.7 0,1.6 0.6,2.1 0.7,0.7 1.7,1 2.4,1.2 1.3,0.3 2.4,0.4 3.3,0.2 1.1,-0.3 1.9,-0.9 2.2,-1.8 0.3,-0.9 0,-1.4 -0.2,-1.7 -1.3,-1.3 -5,-1.5 -6.4,-1.2 z m -9.5,-12.3 c -0.3,0.6 -0.7,1.1 -0.8,1.7 -0.1,0.5 0.6,1 1,0.6 0.4,-0.5 0.7,-1.1 1,-1.7 0.2,-0.7 -0.9,-1.3 -1.2,-0.6 z m 1.5,0.5 c -0.2,0.3 -0.4,0.6 -0.5,1 -0.2,0.6 0.6,1 1,0.6 0.3,-0.3 0.5,-0.6 0.7,-0.9 0.4,-0.8 -0.8,-1.5 -1.2,-0.7 z m 22.9,3.1 c -0.3,0.5 -0.7,0.9 -0.8,1.5 -0.1,0.4 0.4,1 0.8,0.6 0.5,-0.4 0.8,-0.9 1.1,-1.5 0.5,-0.7 -0.6,-1.4 -1.1,-0.6 z m 2.4,0.4 c -0.3,0.4 -0.6,0.7 -0.8,1.2 -0.3,0.6 0.5,1.3 1,0.8 0.4,-0.4 0.7,-0.8 1,-1.3 0.5,-0.8 -0.7,-1.4 -1.2,-0.7 z"
       fill="#5e3023"
       id="path29"
       sodipodi:nodetypes="ccccccsccccccccccscccccccccccccccccccccccccccccccccccccccccccccccccscccccccscccccccccsccccccsccccccsscccccscccscccccccccscccccccccscc" />
  </g>
</svg>
