<?xml version="1.0" encoding="UTF-8" standalone="no"?>
<svg
   width="18"
   height="20"
   viewBox="0 0 18 20"
   fill="none"
   version="1.1"
   id="svg4"
   sodipodi:docname="questionmark.svg"
   inkscape:version="1.1 (c68e22c387, 2021-05-23)"
   xmlns:inkscape="http://www.inkscape.org/namespaces/inkscape"
   xmlns:sodipodi="http://sodipodi.sourceforge.net/DTD/sodipodi-0.dtd"
   xmlns="http://www.w3.org/2000/svg"
   xmlns:svg="http://www.w3.org/2000/svg">
  <defs
     id="defs8" />
  <sodipodi:namedview
     id="namedview6"
     pagecolor="#ffffff"
     bordercolor="#666666"
     borderopacity="1.0"
     inkscape:pageshadow="2"
     inkscape:pageopacity="0.0"
     inkscape:pagecheckerboard="0"
     showgrid="false"
     inkscape:zoom="24.914286"
     inkscape:cx="9.7333716"
     inkscape:cy="9.2918578"
     inkscape:window-width="1841"
     inkscape:window-height="1057"
     inkscape:window-x="-8"
     inkscape:window-y="1072"
     inkscape:window-maximized="1"
     inkscape:current-layer="svg4" />
  <path
     d="m 6.8992877,12.343155 c 0,-0.858322 0.1917529,-1.570547 0.5752585,-2.136674 C 7.858052,9.6220909 8.4059173,8.9920457 9.1181422,8.3163452 9.5746967,7.8780529 9.9034158,7.5219405 10.1043,7.2480079 10.323446,6.9740752 10.433019,6.6818804 10.433019,6.3714233 10.433019,5.9696554 10.259528,5.6591984 9.9125469,5.4400524 9.5655656,5.202644 9.1272733,5.0839398 8.5976702,5.0839398 c -0.5843897,0 -1.132255,0.1734907 -1.6435959,0.5204722 C 6.4427332,5.9331311 6.0409654,6.3805545 5.7487705,6.946682 L 0.87276928,4.5086813 C 1.6032564,3.1207558 2.6807249,2.0341563 4.1051746,1.2488827 5.5478867,0.4636091 7.3193178,0.07097173 9.4194682,0.07097173 c 2.2279858,0 4.0359408,0.45655499 5.4238668,1.36966387 1.387925,0.9131088 2.081888,2.2005923 2.081888,3.8624504 0,0.7670115 -0.136967,1.442712 -0.410899,2.0271017 -0.255671,0.5661275 -0.566127,1.0500751 -0.931371,1.451843 -0.365243,0.3835058 -0.830929,0.8126669 -1.397057,1.2874833 -0.584389,0.511342 -1.00442,0.92224 -1.26009,1.232697 -0.255671,0.310456 -0.383506,0.657438 -0.383506,1.040944 z m 2.8215064,7.615328 c -1.0592064,0 -1.9266598,-0.319588 -2.6023603,-0.958765 C 6.4427332,18.360543 6.104883,17.5844 6.104883,16.671292 c 0,-0.931372 0.3378502,-1.698384 1.0135508,-2.301036 0.6757005,-0.620913 1.5431539,-0.93137 2.6023603,-0.93137 1.0592059,0 1.9266599,0.310457 2.6023599,0.93137 0.675701,0.602652 1.013551,1.369664 1.013551,2.301036 0,0.913108 -0.33785,1.689251 -1.013551,2.328426 -0.6757,0.639177 -1.543154,0.958765 -2.6023599,0.958765 z"
     fill="#2700b6"
     id="path2"
     style="stroke-width:0.285347" />
</svg>
