<?xml version="1.0" encoding="UTF-8" standalone="no"?>
<svg
   height="496.73029"
   preserveAspectRatio="xMidYMid meet"
   version="1.0"
   viewBox="0 -15.8 504.87339 496.73027"
   width="504.87338"
   zoomAndPan="magnify"
   id="svg5251"
   sodipodi:docname="studentlaptop2.svg"
   inkscape:version="1.1 (c68e22c387, 2021-05-23)"
   xmlns:inkscape="http://www.inkscape.org/namespaces/inkscape"
   xmlns:sodipodi="http://sodipodi.sourceforge.net/DTD/sodipodi-0.dtd"
   xmlns="http://www.w3.org/2000/svg"
   xmlns:svg="http://www.w3.org/2000/svg">
  <sodipodi:namedview
     id="namedview5253"
     pagecolor="#ffffff"
     bordercolor="#666666"
     borderopacity="1.0"
     inkscape:pageshadow="2"
     inkscape:pageopacity="0.0"
     inkscape:pagecheckerboard="0"
     showgrid="false"
     inkscape:zoom="0.85962144"
     inkscape:cx="188.45505"
     inkscape:cy="401.92111"
     inkscape:window-width="1842"
     inkscape:window-height="1057"
     inkscape:window-x="-8"
     inkscape:window-y="1072"
     inkscape:window-maximized="1"
     inkscape:current-layer="g5249"
     fit-margin-top="0"
     fit-margin-left="0"
     fit-margin-right="0"
     fit-margin-bottom="0" />
  <defs
     id="defs5235">
    <clipPath
       id="a">
      <path
         d="M 0,22 H 388 V 491.41016 H 0 Z m 0,0"
         id="path5229" />
    </clipPath>
    <clipPath
       id="b">
      <path
         d="M 26,5 H 502.78906 V 391 H 26 Z m 0,0"
         id="path5232" />
    </clipPath>
  </defs>
  <g
     id="g5249"
     transform="translate(1.1633028,-1.1633032)">
    <g
       clip-path="url(#a)"
       id="change1_1">
      <path
         d="m 361.09766,379.43359 c 0,0 -1.26563,-2.78125 -3.45704,-6.55859 l 2.33985,-2.16797 4.8164,0.29297 c -1.42187,5.46484 -3.69921,8.43359 -3.69921,8.43359 z m -26.03125,0.21485 c -0.32422,-0.20313 -0.65235,-0.40235 -0.99219,-0.59766 l 2.63281,-3.64062 7.55859,0.97265 c 2.35157,3.48438 4.14063,6.0625 4.14063,6.0625 0,0 -3.875,3.22656 -13.33984,-2.79687 z m 52.35937,-21.83203 -11.43359,-25.05469 -23.35157,-2.59375 -44.15625,20.59375 -18.41796,19.09375 7.19531,12.71484 c -11.46875,-0.1289 -21.01563,-0.25 -23.4375,-1.05859 -6.88672,-2.29297 14.91406,-133.67188 9.75,-146.86719 -2.89453,-7.39844 -14.08985,-13.35547 -23.36328,-17.16016 -11.42188,-16.65625 -32.62891,-39.32421 -54.07422,-56.32031 2.03515,-5.46875 4.58203,-10.6875 6.29687,-13.84375 34.91407,-10.61719 34.59766,-72.996091 34.54297,-76.859372 1.96875,-24.972657 -14.63281,-41.246094 -31.98047,-46.308594 -3.59375,-1.046875 -7.43359,-1.578125 -11.40234,-1.578125 -8.22656,0 -34.32422,2.832031 -45.14844,36.835937 -1.0625,-0.335937 -2.1875,-0.523437 -3.34765,-0.523437 -0.3711,0 -0.7461,0.01953 -1.125,0.05469 -5.33985,0.542969 -9.53516,4.539063 -12.47266,11.882813 -2.12891,5.324219 -1.23047,11.316406 2.52344,16.867187 2.35937,3.480469 5.65625,6.460938 8.99609,8.367188 -0.0156,18.890623 4.91797,28.914063 6.18359,31.175783 0.29688,5.82031 -1.0625,10.49999 -3.58984,14.79687 -10.24609,5.41016 -32.82812,11.42969 -54.22656,21.11719 -16.906251,6.0039 -43.191408,19.91797 -58.195314,50.84375 C 30.15625,240.85937 -7.460938,324.85547 1.3125,370.03906 c 6.179688,31.82422 29.171875,41.84375 64.65625,45.12891 -1.441406,31.25781 -0.960938,70.93359 4.761719,74.20312 8.03125,4.58985 220.878901,0 220.878901,0 l -2.29687,-8.03125 c 0,0 21.21094,5.35157 17.78516,-2.87109 -3.22266,-7.73438 -10.14844,-20.69922 -17.64063,-34.70703 13.05078,8.40234 29.19141,15.11719 45.75391,12.90625 10.83593,-1.44531 21.6875,-16.15625 19.36718,-41.37891 0.40235,-0.23437 0.78516,-0.49219 1.14063,-0.78515 3.56641,-2.92969 11.20312,-10.60938 16.92969,-17.0586 4.625,-5.20312 7.13672,-11.9375 7.05078,-18.89844 l -0.13281,-10.51562 7.85937,-10.21484"
         fill="#ffffff"
         id="path5237" />
    </g>
    <g
       id="change2_1">
      <path
         id="path5240"
         style="fill:#d03372;fill-opacity:1"
         d="m 150.88867,162.91602 c -0.2467,0.002 -0.49609,0.0537 -0.73633,0.1582 -0.96484,0.41797 -1.40625,1.53515 -0.99218,2.5 0.45312,1.04297 45.13671,104.94922 51.05859,162.08594 0.39063,3.7539 0.55078,7.76562 0.50781,11.98437 -6.10156,-17.89844 -21.35156,-40.95312 -33.23828,-58.92578 -6.5664,-9.92969 -13.35937,-20.19922 -13.40625,-22.29297 0.81641,-6.51562 10.07422,-26.77734 10.16797,-26.98047 0.25781,-0.55859 0.22656,-1.21093 -0.0781,-1.74219 -0.3086,-0.53515 -0.85547,-0.88281 -1.46876,-0.9414 -6.10546,-0.57813 -22.86328,-3.33984 -27.03906,-9.11719 -3.7539,-5.19922 -2.04297,-31.22265 -0.0859,-46.40625 0.13672,-1.04297 -0.59765,-1.9922 -1.64062,-2.1289 -1.03906,-0.13282 -1.99219,0.60156 -2.125,1.64062 -0.54297,4.17188 -5.08984,40.99609 0.77344,49.11719 4.9414,6.84375 20.64844,9.53906 27.13672,10.3789 -2.53516,5.70313 -8.69532,19.97267 -9.41016,25.70703 -0.35547,2.84376 3.34375,8.73829 14.00781,24.86329 14.3711,21.73047 36.09375,54.57422 35.28516,71.33593 -0.0195,0.34375 0.0586,0.67188 0.20703,0.96094 -0.60156,5.91797 -1.47656,12.08984 -2.56641,18.39844 l 3.91016,0.0703 c 2.88281,-17.04687 4.21094,-33.14062 2.84375,-46.3125 -5.98438,-57.71094 -50.89453,-162.15625 -51.35156,-163.20312 -0.31055,-0.72364 -1.01966,-1.15625 -1.75977,-1.15039 z m 56.5918,32.85937 c -0.4834,-0.0527 -0.98633,0.0801 -1.39453,0.4082 -0.82032,0.65625 -0.94922,1.85157 -0.29688,2.67188 0.3711,0.45703 36.95312,46.67187 40.32032,105.05469 0.69921,12.07812 0.7539,24.1875 0.8164,37.00781 0.0273,5.41015 0.0547,10.83595 0.12891,16.28515 l 3.80469,0.0938 c -0.0781,-5.48438 -0.10547,-10.94922 -0.13282,-16.39844 -0.0625,-12.8711 -0.12109,-25.02735 -0.82422,-37.20703 -3.4375,-59.58203 -40.76953,-106.7461 -41.14843,-107.21485 -0.32618,-0.41015 -0.79004,-0.64843 -1.27344,-0.70117 z m -115.041017,5.86914 c -0.48584,-0.0132 -0.976562,0.16016 -1.357422,0.51953 -0.761719,0.72266 -0.792969,1.92578 -0.07422,2.6875 0.234376,0.2461 23.304689,25.125 15.874999,59.39063 -0.22265,1.02734 0.42969,2.03906 1.45313,2.25781 0.13672,0.0312 0.27343,0.0469 0.40625,0.0469 0.875,0 1.66015,-0.60938 1.85547,-1.5 7.86718,-36.27735 -15.820317,-61.74219 -16.832036,-62.8086 -0.359375,-0.38086 -0.840332,-0.58057 -1.326172,-0.59375 z m 178.462887,54.10156 c -0.72693,0.13367 -1.3457,0.68946 -1.51562,1.45703 -0.0586,0.26563 -3.1836,14.4961 -5.85938,34.73829 -0.19922,0.80078 -0.36328,1.60156 -0.47656,2.41015 -0.043,0.28516 -0.0156,0.56641 0.0625,0.82422 -2.14062,17.04688 -3.85937,37.83594 -3.23437,58.02344 0.0273,1.02734 0.875,1.83984 1.89453,1.83984 h 0.0625 c 1.04687,-0.0351 1.87109,-0.91014 1.83984,-1.96094 -0.65625,-21.15624 1.29297,-42.99218 3.58594,-60.39453 2.75,-10.4414 13.73046,-20.34765 13.84766,-20.45312 0.78514,-0.69922 0.85546,-1.90234 0.15624,-2.68359 -0.6992,-0.78126 -1.89843,-0.85157 -2.68359,-0.15235 -0.33984,0.30078 -5.29297,4.76172 -9.55469,11.03125 2.10547,-13.45312 4.02344,-22.1914 4.07032,-22.39844 0.22656,-1.02343 -0.41797,-2.03906 -1.44532,-2.26562 -0.2539,-0.0566 -0.50769,-0.0602 -0.75,-0.0156 z m -162.61328,20.9336 c -0.73187,0.1181 -1.35156,0.66113 -1.53906,1.42578 -0.0898,0.375 -9.289062,37.71094 -23.097656,66.17187 -0.460938,0.94532 -0.06641,2.08204 0.878906,2.53907 0.265625,0.1289 0.550781,0.1914 0.828125,0.1914 0.703125,0 1.378908,-0.39453 1.710937,-1.07031 13.984378,-28.82031 23.281248,-66.55078 23.371098,-66.92969 0.25,-1.01953 -0.37501,-2.04687 -1.39453,-2.29687 -0.25684,-0.0625 -0.51386,-0.0706 -0.75782,-0.0312 z m 142.65625,92.04687 0.16016,0.0781 v -0.0664 z m -3.23047,10.125 c 2.00391,38.33594 9.48438,77.41407 38.9336,116.5625 0.37109,0.4961 0.9414,0.75781 1.51953,0.75782 0.39844,0 0.80078,-0.125 1.14062,-0.38282 0.83594,-0.6289 1.00782,-1.82422 0.375,-2.66015 -28.72656,-38.19141 -36.13672,-76.51563 -38.15234,-114.16797 -1.26953,-0.14063 -2.54688,-0.17578 -3.81641,-0.10938 z m -50.30859,13.83985 c -1.47266,0.35937 -2.89062,0.70703 -4.23047,1.03906 -12.03125,52.99219 -34.23829,108.20312 -34.5664,109.00781 -0.39063,0.96875 0.0781,2.07813 1.04687,2.47266 0.23437,0.0937 0.47656,0.14062 0.71484,0.14062 0.75,0 1.46485,-0.44922 1.76172,-1.1875 1.34766,-3.32812 23.54688,-58.51953 35.27344,-111.47265 z m 68.04883,13.06445 c -0.24469,-0.0311 -0.5,-0.0137 -0.75196,0.0566 -1.0117,0.28516 -1.59765,1.33203 -1.3164,2.34375 0.40234,1.43359 9.96874,35.23438 18.47266,44.91406 0.37889,0.42578 0.90234,0.64453 1.42968,0.64453 0.44532,0 0.89453,-0.15234 1.25391,-0.46875 0.78906,-0.69531 0.86719,-1.89453 0.17187,-2.68359 -7.9375,-9.03516 -17.57031,-43.09375 -17.66796,-43.4375 -0.21387,-0.75586 -0.85773,-1.27576 -1.5918,-1.36914 z"
         transform="translate(0,-15.8)" />
    </g>
    <g
       clip-path="url(#b)"
       id="change3_1">
      <path
         id="path5243"
         style="fill:#d03372;fill-opacity:1"
         d="m 222.76953,21.617188 c -0.88672,0 -1.70312,0.195312 -2.48828,0.59375 l -2.22656,1.140624 1.59765,1.921876 c 1.0625,1.273437 2.27735,1.738281 3.16407,2.082031 0.19922,0.07422 0.40234,0.152343 0.625,0.25 l 3.05859,1.3125 c 2.21484,0.988281 4.05859,1.855469 5.85156,2.859375 3.9375,2.207032 7.37891,4.785156 10.21875,7.652344 3.67188,3.769531 6.1211,6.882812 7.94922,10.101562 l 0.043,0.07422 0.0469,0.07031 c 0.82812,1.199219 1.47656,2.535156 2.16406,3.949219 0.28906,0.59375 0.57813,1.187501 0.86718,1.746094 l 0.33204,0.667968 0.28906,0.761719 0.16797,0.417969 c 0.17578,0.429687 0.35156,0.863281 0.54297,1.238281 0.45703,0.945312 1.11328,2.1875 2.11718,3.390625 l 2.95704,3.542969 -0.10547,0.08203 c -0.60157,0.492187 -0.97657,0.968751 -1.17579,1.492188 l -0.0508,0.152344 c -0.11718,0.402343 -0.10937,0.734374 -0.10156,0.835937 l -0.008,0.109375 v 0.105469 c 0.0117,0.351562 0.0352,0.769531 0.13281,1.179687 0.1211,0.558594 0.3125,1.027344 0.48047,1.445313 l 0.33594,0.828125 c 0.33203,0.828126 0.66797,1.660157 1.0039,2.4375 0.36719,0.894532 0.8125,1.851562 1.40235,3.003906 0.2539,0.488281 0.51562,0.972656 0.76562,1.417969 0.30078,0.585937 0.92969,1.808593 2.89063,2.132812 l 1.20703,0.199219 0.72656,-0.988281 c 1.17578,-1.597657 0.77344,-2.910157 0.58984,-3.503907 -0.14062,-0.53125 -0.29296,-1.0625 -0.45703,-1.589843 -0.39062,-1.265626 -0.73047,-2.230469 -1.07812,-3.085938 -0.31641,-0.832031 -0.65625,-1.652344 -0.99219,-2.476562 l -0.34766,-0.839844 c -0.16795,-0.414063 -0.36328,-0.886718 -0.64453,-1.332031 -0.23047,-0.390624 -0.51172,-0.710938 -0.7539,-0.972656 l -0.0274,-0.03906 -0.0781,-0.07031 c -0.10938,-0.117187 -0.33594,-0.359375 -0.70313,-0.566406 l -0.13671,-0.07031 c -0.39455,-0.183593 -0.84375,-0.273438 -1.3711,-0.273438 -0.15625,0 -0.32422,0.0078 -0.51953,0.02344 l -0.5625,0.05078 0.15625,-4.441406 c 0.0547,-1.53125 -0.22266,-2.949218 -0.48047,-4.078125 l -0.0937,-0.359375 c -0.28515,-1.085938 -0.57812,-2.207032 -1.09766,-3.261719 -0.2617,-0.574219 -0.50781,-1.15625 -0.75781,-1.734375 -0.67578,-1.59375 -1.37499,-3.238282 -2.30469,-4.746094 -0.16015,-0.273438 -0.31249,-0.550781 -0.46484,-0.832031 -0.42187,-0.757813 -0.85547,-1.542969 -1.40234,-2.363281 l -1.98047,-2.800781 c -0.55078,-0.84375 -1.17577,-1.558595 -1.77735,-2.253907 -0.19531,-0.222656 -0.39062,-0.445311 -0.61718,-0.710937 l -0.47266,-0.539063 c -0.625,-0.71875 -1.27344,-1.460937 -2.04297,-2.148437 -3.25,-3.292968 -7.15234,-6.230469 -11.53906,-8.699219 -0.73828,-0.445313 -1.48437,-0.808594 -2.20313,-1.160156 -0.34765,-0.171876 -0.6914,-0.339845 -1.10546,-0.550781 -1.23438,-0.578126 -2.46875,-1.050781 -3.4961,-1.433594 l -0.24218,-0.07422 c -1.07813,-0.34375 -2.19141,-0.695313 -3.34766,-0.914063 l -0.35938,-0.07812 c -0.60547,-0.132813 -1.28906,-0.28125 -2.07031,-0.28125 z m 54.87891,102.425782 -0.44532,0.125 c -0.70703,0.19922 -1.18749,0.4375 -1.55859,0.76562 l -0.10937,0.10547 c -0.27344,0.28516 -0.41798,0.57032 -0.48828,0.73438 l -0.0703,0.14062 c -0.125,0.28516 -0.28125,0.66797 -0.33984,1.05078 -0.0977,0.52735 -0.0781,0.98438 -0.0625,1.35157 l 0.0273,0.65625 c 0.0274,0.6875 0.0547,1.375 0.10547,2.0039 0.0352,0.76172 0.125,1.58203 0.28906,2.58985 0.0703,0.42578 0.14844,0.84765 0.22657,1.19921 0.14062,0.875 0.51953,1.96094 2.19531,2.64454 l 0.85547,0.35156 0.82422,-0.42578 c 1.57031,-0.81641 1.87109,-1.91016 1.9414,-2.80469 0.0508,-0.41406 0.0899,-0.83203 0.11719,-1.24609 0.0742,-1.01172 0.0898,-1.83985 0.0586,-2.54297 -0.0117,-0.66797 -0.043,-1.33203 -0.0781,-2 l -0.0391,-0.72657 c -0.0156,-0.36718 -0.0352,-0.82031 -0.16797,-1.28515 -0.10938,-0.42969 -0.29688,-0.79297 -0.44531,-1.0625 l -0.0586,-0.10547 -0.0273,-0.0352 c -0.082,-0.14453 -0.25,-0.41796 -0.55469,-0.6875 l -0.11719,-0.0937 c -0.40234,-0.29296 -0.90234,-0.48437 -1.62109,-0.61718 z m 0.60937,17.94141 -1.14453,1.27734 c -1.17578,1.30859 -1.17187,2.59766 -1.17187,3.36719 0,0.10937 0.004,0.21484 -0.004,0.36328 -0.0156,0.78906 -0.0312,1.6289 0.0117,2.48828 0.0547,1.14453 0.14062,2.28906 0.23047,3.43359 l 0.0898,1.26563 c 0.23828,3.33203 0.34765,6.32422 0.33985,9.13281 -0.0352,3.21875 -0.0938,6.11328 -0.46876,8.97656 -0.20312,1.64063 -0.46093,2.92969 -0.82421,4.07422 -0.13282,0.42969 -0.30469,0.84375 -0.46875,1.25391 -0.0899,0.21875 -0.17969,0.4414 -0.28516,0.71875 -0.11719,0.33203 -0.24609,0.64453 -0.37891,0.97265 -0.15234,0.35547 -0.30468,0.73438 -0.46875,1.17188 l -1.21875,3.3125 3.46875,-0.65625 c 1.27735,-0.24219 2.49219,-1 3.33985,-2.08203 0.72656,-0.85156 1.1289,-1.8086 1.45312,-2.57813 l 0.0625,-0.15625 c 0.57422,-1.44531 1.03125,-3.05078 1.42578,-5.04297 0.33594,-1.64843 0.49219,-3.23437 0.64844,-4.98046 0.13672,-1.48438 0.20703,-3.10157 0.21094,-4.9375 0.0195,-2.99219 -0.0859,-6.14454 -0.32031,-9.63282 -0.0977,-1.44922 -0.23047,-3.16406 -0.48047,-4.87109 -0.11328,-0.7461 -0.27735,-1.54688 -0.53516,-2.56641 -0.0273,-0.10156 -0.0508,-0.20312 -0.0742,-0.30468 -0.17968,-0.77735 -0.48047,-2.07813 -2,-3.06641 z M 91.097656,190.20703 c -2.015625,-0.11719 -3.617189,0.83203 -5.230468,1.63281 -1.621094,0.8086 -3.1875,1.73047 -4.703126,2.71485 -1.511718,0.99609 -3,2.02734 -4.40625,3.16797 -0.707031,0.5625 -1.441406,1.09375 -2.128906,1.68359 l -2.042968,1.78125 c -5.421876,4.78125 -10.269532,10.16406 -14.667969,15.87891 -2.074219,2.94531 -4.257813,5.82422 -6.039063,8.95703 -0.914062,1.55078 -1.929687,3.04687 -2.761718,4.64062 L 46.625,235.44922 c -3.023438,6.5 -6.371094,12.95703 -7.449219,20.16016 2.089844,-3.04688 3.304688,-6.36329 4.703125,-9.6211 l 2.28125,-4.80469 1.136719,-2.39843 c 0.386719,-0.79297 0.851563,-1.55078 1.273437,-2.32813 l 2.558594,-4.64844 c 0.839844,-1.55468 1.863282,-3.00391 2.785156,-4.51171 1.8125,-3.03126 3.972657,-5.83204 5.996094,-8.72266 4.3125,-5.58594 9.058594,-10.83594 14.347656,-15.48828 l 1.988282,-1.73438 c 0.667968,-0.57422 1.378906,-1.09375 2.0625,-1.64453 0.699218,-0.53515 1.367187,-1.10546 2.074218,-1.62891 0.710938,-0.51953 1.433594,-1.01953 2.128907,-1.55859 0.691406,-0.54297 1.421875,-1.02734 2.148437,-1.52734 0.722656,-0.4961 1.425782,-1.03516 2.171875,-1.4961 1.464844,-1.0039 3.011719,-1.74218 4.265625,-3.28906 z m 176.289064,12.38281 -2.86328,2.48047 c -1.62891,1.41016 -2.25781,3.25391 -2.58594,4.49219 -0.42969,1.53906 -0.70312,2.94141 -0.83984,4.28516 -0.32422,3.26562 0.10937,6.41797 1.25,9.10937 0.6289,1.50391 1.48828,2.89453 2.58593,4.16797 l 1.23047,1.36719 0.16406,0.20312 c 0.30861,0.3711 0.61329,0.74219 0.91407,1.16407 1.28125,1.73828 2.4375,3.73828 3.52734,6.10546 1.86719,4.10157 3.38672,8.69532 4.64844,14.05469 0.58984,2.44141 1.07422,4.90625 1.44531,7.33203 0.0899,0.57813 0.16406,1.15235 0.23828,1.72656 0.26172,2.01172 0.53126,4.09376 1.35156,6.27344 l 1.89844,5.02735 1.85156,-5.04688 c 1.05861,-2.88281 0.78516,-5.75 0.54297,-8.28125 l -0.043,-0.4414 c -0.27734,-2.69141 -0.67187,-5.35547 -1.17187,-7.9375 -1.20313,-5.91797 -2.78906,-10.96485 -4.84766,-15.41407 -1.27343,-2.78125 -2.64452,-5.15625 -4.16797,-7.24219 -0.37889,-0.52734 -0.78906,-1.03125 -1.20312,-1.53515 l -0.1875,-0.23047 -1.25781,-1.40234 c -0.64063,-0.75782 -1.15235,-1.57422 -1.51563,-2.44141 -0.73437,-1.71484 -1.08985,-3.80078 -1.05468,-6.19141 0.0234,-1.32812 0.10937,-2.41406 0.26953,-3.39843 0.24218,-1.39844 0.44531,-2.78907 0.25,-4.46485 z M 35.160156,265.36328 c -1.039062,0.19141 -1.140625,0.72266 -1.449218,1.17969 -0.269532,0.46875 -0.535157,0.94141 -0.75,1.42969 -0.433594,0.97656 -0.785157,1.98437 -1.144532,2.98437 l -2.140625,6.03125 c -0.714843,2.00781 -1.355469,4.04297 -2,6.07813 l -0.914062,3.07031 c -0.324219,1.01562 -0.648438,2.03125 -0.207031,3.32031 1.160156,-0.71875 1.550781,-1.71094 1.945312,-2.70312 l 1.238281,-2.95313 c 0.792969,-1.98047 1.585938,-3.96094 2.300781,-5.96875 l 2.164063,-6.01953 c 0.355469,-1.00391 0.722656,-2.00781 1.007813,-3.03516 0.140624,-0.51562 0.238281,-1.05078 0.324218,-1.58593 0.05078,-0.54688 0.308594,-1.01953 -0.375,-1.82813 z m 285.265624,2.47656 c -2.35156,-0.11328 -4.54297,1.16797 -5.60156,3.26563 l -52.42969,104.09765 c -0.36719,0.72266 -0.5625,1.46876 -0.62109,2.20704 l -93.67969,23.10937 c -1.18359,0.29297 -1.91797,1.47266 -1.65234,2.66016 0.22656,1.01562 1.12109,1.74219 2.16406,1.7539 l 121.83984,1.26953 c 0.19922,0.004 0.39844,-0.0195 0.59375,-0.0742 l 20.17969,-5.28516 c -4.00391,-1.53516 -7.33984,-2.45703 -8.20703,-3.24219 -2.15235,-1.9375 0.64453,-3.01172 0.64453,-3.01172 0,0 -0.64453,-2.15234 2.58203,-4.30468 3.11719,-2.07813 18.27734,-0.94141 27.83594,4.5664 l 10.1914,-2.66797 c -3.41795,-5.0664 -8.02343,-12.05859 -10.05859,-15.8789 -3.4414,-6.45703 4.26172,-7.72656 6.66797,-6.45703 7.08594,3.74218 13.16798,12.63281 16.76562,18.82812 l 7.15626,-1.875 c 1.00781,-3.87109 1.58593,-8.98828 0.60546,-15.23047 -2.36718,-15.05859 2.79688,-19.79298 4.08594,-19.14843 0.70313,0.35156 3.58203,5.43359 6.05078,9.98437 2.53125,4.65625 3.8789,9.86328 3.94532,15.16406 l 0.082,6.26172 h 3.51953 c 2.21875,0 4.25781,-1.23437 5.28125,-3.20703 l 51.27343,-98.69141 c 2.00391,-3.85546 -0.66406,-8.48828 -5,-8.6914 z"
         transform="translate(0,-15.8)" />
      <path
         style="fill:none;stroke-width:0.581651"
         d="m 382.14496,382.78467 c 1.9227,-0.25628 2.33464,-0.46467 1.55197,-0.78512 -0.586,-0.23993 -1.69841,-0.43624 -2.47202,-0.43624 -1.32339,0 -1.40715,-0.19775 -1.41665,-3.34449 -0.0174,-5.74825 -1.46635,-10.84867 -4.98259,-17.53856 -1.81066,-3.44491 -3.72904,-6.84272 -4.26307,-7.55069 -1.30532,-1.73051 -2.67949,-1.12308 -4.2868,1.89493 -1.10214,2.06946 -1.27909,3.3222 -1.28394,9.08927 -0.003,3.67895 0.12526,8.78294 0.28521,11.3422 l 0.29083,4.65321 -6.68899,-0.21812 -6.68899,-0.21813 -3.11599,-3.43212 c -4.4292,-4.87858 -7.54756,-6.89218 -10.67361,-6.89218 -3.44,0 -5.11407,1.25786 -5.11407,3.8426 0,1.11743 0.39934,2.80392 0.88741,3.74776 l 0.88741,1.71606 -3.65025,0.006 c -10.99359,0.0178 -60.72039,-2.51459 -61.36521,-3.12512 -0.55647,-0.52688 2.77568,-7.82831 15.17009,-33.24084 8.73575,-17.91112 19.62275,-40.41796 24.19331,-50.01521 4.57057,-9.59724 8.75847,-17.92154 9.30645,-18.49844 0.95978,-1.01044 2.5516,-0.98306 43.4097,0.74665 51.01163,2.15956 75.27669,2.77752 75.27669,1.91709 0,-0.33371 -0.7198,-0.76176 -1.59955,-0.95122 -2.54355,-0.54779 -23.21607,-1.94532 -52.78486,-3.56845 -39.96028,-2.19356 -43.9253,-2.44145 -40.7156,-2.54553 3.79144,-0.12295 91.48333,3.9516 93.25973,4.33326 2.29491,0.49305 4.16688,2.84318 4.16688,5.2312 0,1.67406 -5.50909,12.75225 -25.68414,51.64799 -14.12627,27.23425 -26.34629,50.23661 -27.15561,51.11635 -1.2629,1.37282 -1.88889,1.58716 -4.41632,1.51219 l -2.94485,-0.0874 z m -15.26465,-51.81102 c 6.21934,-2.82301 9.83552,-7.9925 9.3229,-13.32749 -0.52136,-5.42593 -4.33458,-8.45628 -10.63531,-8.45184 -10.4814,0.007 -18.87268,10.69132 -14.44968,18.39759 2.40694,4.19364 10.261,5.87873 15.76209,3.38174 z"
         id="path5311"
         transform="translate(0,-15.8)" />
      <path
         style="fill:none;stroke-width:0.581651"
         d="m 382.14496,382.78467 c 1.9227,-0.25628 2.33464,-0.46467 1.55197,-0.78512 -0.586,-0.23993 -1.69841,-0.43624 -2.47202,-0.43624 -1.32339,0 -1.40715,-0.19775 -1.41665,-3.34449 -0.0174,-5.74825 -1.46635,-10.84867 -4.98259,-17.53856 -1.81066,-3.44491 -3.72904,-6.84272 -4.26307,-7.55069 -1.30532,-1.73051 -2.67949,-1.12308 -4.2868,1.89493 -1.10214,2.06946 -1.27909,3.3222 -1.28394,9.08927 -0.003,3.67895 0.12526,8.78294 0.28521,11.3422 l 0.29083,4.65321 -6.68899,-0.21812 -6.68899,-0.21813 -3.11599,-3.43212 c -4.4292,-4.87858 -7.54756,-6.89218 -10.67361,-6.89218 -3.44,0 -5.11407,1.25786 -5.11407,3.8426 0,1.11743 0.39934,2.80392 0.88741,3.74776 l 0.88741,1.71606 -3.65025,0.006 c -10.99359,0.0178 -60.72039,-2.51459 -61.36521,-3.12512 -0.55647,-0.52688 2.77568,-7.82831 15.17009,-33.24084 8.73575,-17.91112 19.62275,-40.41796 24.19331,-50.01521 4.57057,-9.59724 8.75847,-17.92154 9.30645,-18.49844 0.95978,-1.01044 2.5516,-0.98306 43.4097,0.74665 51.01163,2.15956 75.27669,2.77752 75.27669,1.91709 0,-0.33371 -0.7198,-0.76176 -1.59955,-0.95122 -2.54355,-0.54779 -23.21607,-1.94532 -52.78486,-3.56845 -39.96028,-2.19356 -43.9253,-2.44145 -40.7156,-2.54553 3.79144,-0.12295 91.48333,3.9516 93.25973,4.33326 2.29491,0.49305 4.16688,2.84318 4.16688,5.2312 0,1.67406 -5.50909,12.75225 -25.68414,51.64799 -14.12627,27.23425 -26.34629,50.23661 -27.15561,51.11635 -1.2629,1.37282 -1.88889,1.58716 -4.41632,1.51219 l -2.94485,-0.0874 z m -15.26465,-51.81102 c 6.21934,-2.82301 9.83552,-7.9925 9.3229,-13.32749 -0.52136,-5.42593 -4.33458,-8.45628 -10.63531,-8.45184 -10.4814,0.007 -18.87268,10.69132 -14.44968,18.39759 2.40694,4.19364 10.261,5.87873 15.76209,3.38174 z"
         id="path5350"
         transform="translate(0,-15.8)" />
      <path
         style="fill:#d03372;fill-opacity:1;stroke-width:0.581651"
         d="m 382.14496,382.78467 c 1.9227,-0.25628 2.33464,-0.46467 1.55197,-0.78512 -0.586,-0.23993 -1.69841,-0.43624 -2.47202,-0.43624 -1.32339,0 -1.40715,-0.19775 -1.41665,-3.34449 -0.0174,-5.74825 -1.46635,-10.84867 -4.98259,-17.53856 -1.81066,-3.44491 -3.72904,-6.84272 -4.26307,-7.55069 -1.30532,-1.73051 -2.67949,-1.12308 -4.2868,1.89493 -1.10214,2.06946 -1.27909,3.3222 -1.28394,9.08927 -0.003,3.67895 0.12526,8.78294 0.28521,11.3422 l 0.29083,4.65321 -6.68899,-0.21812 -6.68899,-0.21813 -3.11599,-3.43212 c -4.4292,-4.87858 -7.54756,-6.89218 -10.67361,-6.89218 -3.44,0 -5.11407,1.25786 -5.11407,3.8426 0,1.11743 0.39934,2.80392 0.88741,3.74776 l 0.88741,1.71606 -3.65025,0.006 c -10.99359,0.0178 -60.72039,-2.51459 -61.36521,-3.12512 -0.55647,-0.52688 2.77568,-7.82831 15.17009,-33.24084 8.73575,-17.91112 19.62275,-40.41796 24.19331,-50.01521 4.57057,-9.59724 8.75847,-17.92154 9.30645,-18.49844 0.95978,-1.01044 2.5516,-0.98306 43.4097,0.74665 51.01163,2.15956 75.27669,2.77752 75.27669,1.91709 0,-0.33371 -0.7198,-0.76176 -1.59955,-0.95122 -2.54355,-0.54779 -23.21607,-1.94532 -52.78486,-3.56845 -39.96028,-2.19356 -43.9253,-2.44145 -40.7156,-2.54553 3.79144,-0.12295 91.48333,3.9516 93.25973,4.33326 2.29491,0.49305 4.16688,2.84318 4.16688,5.2312 0,1.67406 -5.50909,12.75225 -25.68414,51.64799 -14.12627,27.23425 -26.34629,50.23661 -27.15561,51.11635 -1.2629,1.37282 -1.88889,1.58716 -4.41632,1.51219 l -2.94485,-0.0874 z m -15.26465,-51.81102 c 6.21934,-2.82301 9.83552,-7.9925 9.3229,-13.32749 -0.52136,-5.42593 -4.33458,-8.45628 -10.63531,-8.45184 -10.4814,0.007 -18.87268,10.69132 -14.44968,18.39759 2.40694,4.19364 10.261,5.87873 15.76209,3.38174 z"
         id="path5389"
         transform="translate(0,-15.8)" />
    </g>
    <g
       id="change4_1">
      <path
         d="m 221.19141,8.191406 c 0.93359,1.125 1.99609,1.316406 3.03906,1.777344 l 3.08594,1.320312 c 2.03906,0.910157 4.0625,1.851563 6.01171,2.941407 3.88672,2.175781 7.53516,4.828125 10.67188,8.003906 3.10547,3.183594 6.04297,6.601563 8.25781,10.507813 1.27735,1.851562 2.14063,3.9375 3.17188,5.9375 l 0.375,0.757812 0.30078,0.792969 c 0.21875,0.515625 0.41015,1.046875 0.66797,1.554687 0.49609,1.023438 1.05468,2.027344 1.85156,2.980469 0.043,-1.203125 -0.15234,-2.359375 -0.41406,-3.496094 -0.29688,-1.121093 -0.56641,-2.265625 -1.08203,-3.308593 -0.95704,-2.117188 -1.75,-4.320313 -2.97657,-6.316407 -0.57812,-1.011719 -1.11718,-2.054687 -1.75781,-3.027343 L 250.36328,25.75 c -0.63672,-0.984375 -1.45703,-1.828125 -2.21094,-2.726562 -0.77734,-0.875 -1.51562,-1.789063 -2.39843,-2.566407 -3.29297,-3.34375 -7.11329,-6.140625 -11.19532,-8.4375 -1.0039,-0.605469 -2.08203,-1.074219 -3.12109,-1.613281 C 230.375,9.910156 229.28125,9.480469 228.18359,9.070312 227.06641,8.71875 225.95312,8.355469 224.79297,8.136719 223.65625,7.898438 222.5,7.523438 221.19141,8.191406 Z M 260.60547,52.3125 c 0.008,0.277344 0.0273,0.554688 0.0859,0.808594 0.11328,0.519531 0.33984,0.992187 0.52734,1.480468 0.39062,0.96875 0.77734,1.941407 1.19141,2.902344 0.39453,0.96875 0.85156,1.910156 1.33203,2.84375 0.23828,0.464844 0.48828,0.929688 0.74609,1.386719 0.24219,0.46875 0.46484,0.941406 1.45313,1.105469 0.58984,-0.808594 0.42187,-1.304688 0.26953,-1.804688 -0.13672,-0.507812 -0.28125,-1.015625 -0.4375,-1.515625 -0.3086,-1.003906 -0.64063,-1.996093 -1.03516,-2.964843 -0.375,-0.976563 -0.77734,-1.941407 -1.17187,-2.910157 -0.20704,-0.480469 -0.37891,-0.972656 -0.66016,-1.421875 -0.13672,-0.226562 -0.31641,-0.4375 -0.50781,-0.640625 -0.10938,-0.09766 -0.17578,-0.210937 -0.32032,-0.292969 -0.16406,-0.07422 -0.42968,-0.109374 -0.87109,-0.06641 -0.34375,0.277344 -0.51172,0.488282 -0.57422,0.65625 -0.0469,0.160156 -0.0156,0.285156 -0.0273,0.433594 z m 5.91015,153.08203 c -0.92187,-2.14844 -1.2539,-4.57031 -1.21875,-7.01953 0.0234,-1.22266 0.10157,-2.46875 0.30079,-3.69922 0.21484,-1.23828 0.39843,-2.45703 0.23437,-3.89453 -1.10937,0.96094 -1.62891,2.23437 -1.96875,3.51562 -0.35547,1.28125 -0.63672,2.60157 -0.77344,3.94922 -0.26953,2.6875 -0.004,5.52735 1.10547,8.13672 0.54297,1.30469 1.30078,2.52735 2.22656,3.60547 l 1.29297,1.4375 c 0.38672,0.47266 0.77735,0.94141 1.13672,1.44531 1.46485,1.98438 2.6875,4.1836 3.73828,6.46485 2.08594,4.58203 3.60547,9.46093 4.76953,14.41406 0.60157,2.47656 1.09766,4.98047 1.48438,7.5 0.38672,2.53125 0.51562,5.03516 1.48047,7.59375 0.95703,-2.60156 0.63281,-5.24609 0.39062,-7.83203 -0.26953,-2.59375 -0.64843,-5.17578 -1.14453,-7.74219 -1.03906,-5.11328 -2.48437,-10.17969 -4.70703,-14.98047 -1.09766,-2.40234 -2.38672,-4.73828 -3.97656,-6.91015 -0.39453,-0.55079 -0.82422,-1.07032 -1.25391,-1.59766 l -1.28906,-1.4375 c -0.75,-0.88281 -1.37891,-1.87109 -1.82813,-2.94922 z m 9.07813,-40.02734 c 0.86328,-0.16016 1.64844,-0.71094 2.16406,-1.38282 0.57031,-0.65625 0.88672,-1.44531 1.20703,-2.20703 0.60938,-1.53906 1.00782,-3.11718 1.32422,-4.69922 0.32031,-1.58203 0.47266,-3.17968 0.61328,-4.76562 0.14844,-1.58984 0.19922,-3.17969 0.20313,-4.76563 0.0234,-3.17578 -0.10156,-6.33593 -0.31641,-9.48828 -0.10547,-1.57422 -0.23437,-3.14843 -0.46484,-4.71093 -0.11328,-0.78125 -0.28906,-1.5586 -0.48047,-2.32813 -0.21094,-0.76562 -0.23047,-1.56641 -1.23828,-2.22266 -0.80469,0.89454 -0.63281,1.64844 -0.66797,2.4375 -0.0156,0.78516 -0.0312,1.57032 0.008,2.34766 0.0781,1.55469 0.21094,3.10156 0.32031,4.65234 0.21875,3.10157 0.35157,6.20313 0.34375,9.29688 -0.0351,3.08984 -0.0859,6.18359 -0.48437,9.20312 -0.1875,1.50782 -0.44922,3.00391 -0.89844,4.41407 -0.21484,0.70703 -0.51562,1.37109 -0.77344,2.04297 -0.24609,0.70703 -0.54296,1.32031 -0.85937,2.17578 z m 0.99219,-52.64844 c 0.0312,0.78906 0.0586,1.57813 0.11718,2.36719 0.0352,0.78515 0.14063,1.57031 0.26563,2.35547 0.0664,0.39453 0.14062,0.78515 0.22266,1.17578 0.0664,0.39453 0.11328,0.78515 0.98437,1.14062 0.83203,-0.43359 0.84375,-0.82812 0.87109,-1.22265 0.0508,-0.39844 0.0899,-0.79688 0.11719,-1.19141 0.0547,-0.79297 0.0859,-1.58594 0.0508,-2.375 -0.0156,-0.78906 -0.0586,-1.57812 -0.0976,-2.36719 -0.0274,-0.39062 -0.0156,-0.78906 -0.125,-1.17968 -0.0508,-0.19532 -0.14844,-0.38672 -0.25391,-0.58204 -0.0703,-0.0937 -0.0937,-0.1914 -0.20312,-0.28515 -0.125,-0.0937 -0.36329,-0.1836 -0.79297,-0.26172 -0.41797,0.11719 -0.64844,0.22656 -0.76172,0.33203 -0.10156,0.10156 -0.11719,0.20313 -0.17578,0.30469 -0.0899,0.20312 -0.16797,0.40234 -0.19922,0.60156 -0.0781,0.39844 -0.0274,0.78906 -0.0195,1.1875 z M 132.15625,151.17578 C 127.10547,136.42969 122.62109,117.32422 123.73438,97.816406 126.17969,55.0625 149.79297,9.871094 187.25,8.648438 c 0,0 43.54687,-24.425782 67.06641,8.847656 23.52343,33.273437 40.30468,122.488276 29.25781,150.597656 -3.21485,8.19141 -11.76172,16.05859 -10.54297,35.42187 17.90625,28.83985 13.28906,60.79297 12.98437,73.29688 -0.29296,12.03516 -10.75781,48.19141 -10.75781,48.19141 0,0 -10.16015,-6.8086 -18.76172,-15.34375 -0.13672,1.36718 -0.28515,2.73437 -0.46093,4.10156 -0.3125,2.49219 -0.67188,4.98047 -1.10157,7.46094 -0.43359,2.47265 -0.79297,4.99218 -2.33593,7.22265 -0.50391,-2.65234 -0.008,-5.05469 0.28125,-7.51953 0.28906,-2.46094 0.51562,-4.93359 0.6914,-7.40625 0.14453,-2.16406 0.27344,-4.33203 0.37891,-6.5 -2.8711,-3.10547 -5.40625,-6.36328 -7.08985,-9.55469 -8.17578,-15.48828 -6.45312,-31.26562 -8.17578,-50.77343 -0.83984,-9.52344 -6.02734,-16.41407 -12.44531,-23.17579 -0.0117,0.043 -0.0195,0.082 -0.0312,0.1211 -0.16016,0.65234 -0.3125,1.30859 -0.50781,1.94922 -0.35156,1.29687 -0.82813,2.55078 -1.28516,3.8125 -0.97265,2.5 -2.0664,4.95703 -3.23437,7.40625 -1.1875,2.4375 -2.53125,4.83203 -4.20703,7.08203 -1.71094,2.20703 -3.75782,4.35937 -6.60547,5.70703 l -0.0234,0.0117 c -0.32422,0.15234 -0.66406,0.19531 -0.99219,0.14844 -2.53125,-0.36329 -4.6289,-1.12891 -6.79297,-2.03125 -2.1289,-0.91407 -4.16015,-2.03125 -6.0625,-3.32422 -1.92187,-1.26953 -3.67578,-2.77344 -5.26562,-4.41407 -0.78125,-0.83593 -1.53906,-1.69531 -2.21094,-2.61328 -0.58984,-0.97265 -1.64844,-1.61718 -1.25391,-3.30078 0.89454,0.0195 1.3711,0.32031 1.77344,0.6875 0.38281,0.375 0.75,0.76563 1.15235,1.125 0.77734,0.73828 1.58203,1.4336 2.39453,2.11719 1.63281,1.35547 3.35156,2.58594 5.15234,3.66797 1.79688,1.08594 3.70703,1.98047 5.66016,2.70703 1.74609,0.65234 3.66015,1.15625 5.37109,1.45312 1.78906,-0.94531 3.44531,-2.47656 4.9375,-4.17578 1.63281,-1.88672 3.09766,-4 4.41797,-6.22265 1.33203,-2.21485 2.45312,-4.57422 3.46875,-6.97657 l 1.54687,-3.60546 0.79297,-1.80079 c 0.11719,-0.3125 0.26563,-0.61328 0.5,-0.89062 -6.44922,-6.62891 -13.88281,-13.29297 -19.38281,-22.36328 -11.47266,-18.9336 -1.71875,-38.29688 -1.71875,-38.29688 0.23047,-0.55078 0.45703,-1.08593 0.68359,-1.60156 -0.008,-0.008 -0.0195,-0.0156 -0.0273,-0.0234 2.9375,-7.70703 6.59375,-14.23828 6.59375,-14.23828 30.48438,-8.43359 33.57813,-59.214841 33.86719,-72.203122 C 223.22266,70.714844 209.48047,63.417969 200.86328,55.875 c -5.56641,9.046875 -16.0625,17.554688 -35.59375,20.847656 -0.19922,-2.648437 -0.47266,-5.167968 -0.73437,-7.238281 -0.39844,-3.144531 -2.26172,-5.828125 -4.82032,-7.328125 -0.16797,-0.09766 -0.34375,-0.1875 -0.52343,-0.277344 -0.0586,-0.03125 -0.1211,-0.0625 -0.17969,-0.08984 -0.16406,-0.07812 -0.33203,-0.15625 -0.50391,-0.226562 -0.0781,-0.03125 -0.16015,-0.05859 -0.23828,-0.08984 -0.21875,-0.08203 -0.44141,-0.15625 -0.66406,-0.21875 -0.17578,-0.05469 -0.35156,-0.105468 -0.53125,-0.144531 -0.11719,-0.02734 -0.23828,-0.04297 -0.35938,-0.06641 -0.16015,-0.02734 -0.32031,-0.05859 -0.48437,-0.07813 -0.11328,-0.01563 -0.22656,-0.02734 -0.33985,-0.03516 -0.1875,-0.01953 -0.375,-0.02734 -0.5625,-0.03125 -0.0977,-0.0039 -0.1914,-0.0078 -0.28906,-0.0078 -0.28515,0 -0.57422,0.01172 -0.86328,0.04297 -0.30469,0.03125 -0.60937,0.08203 -0.91797,0.144531 -0.0742,0.01563 -0.14844,0.03125 -0.22656,0.04687 -0.30469,0.07031 -0.61719,0.152344 -0.92578,0.257812 -0.004,0.0039 -0.004,0.0039 -0.004,0.0039 -0.32031,0.109375 -0.64453,0.242187 -0.96484,0.394531 -0.0586,0.02734 -0.11719,0.05469 -0.17578,0.08203 -0.65235,0.324219 -1.30469,0.734375 -1.94532,1.25 -0.0391,0.03125 -0.0781,0.06641 -0.12109,0.09766 -0.65625,0.539062 -1.30469,1.1875 -1.9375,1.964843 -0.0273,0.03906 -0.0586,0.07422 -0.0859,0.109375 -0.3164,0.394532 -0.6289,0.8125 -0.93359,1.273438 -0.91016,1.359375 -1.77734,3.007812 -2.57813,5.007812 -3.89453,9.738282 4.41797,19.710938 11.6836,23.300782 -0.23828,21.683593 6.13281,31.769533 6.13281,31.769533 0.33203,5.13281 -0.51172,9.42969 -2.22656,13.30859 -4.35156,3.39453 -14.45703,6.86719 -26.79297,11.23047 z m 69.16406,-62.01953 c 0.38281,-2.414062 -1.25781,-4.679688 -3.67187,-5.0625 -2.41016,-0.382812 -4.67578,1.257812 -5.0586,3.671875 -0.38672,2.410156 1.25782,4.675781 3.66797,5.058594 2.41406,0.386719 4.67969,-1.257813 5.0625,-3.667969 z m 27.57031,10.492188 c 2.41016,0.382812 4.67579,-1.257813 5.0586,-3.671876 0.38672,-2.410156 -1.25781,-4.675781 -3.66797,-5.0625 -2.41016,-0.382812 -4.67578,1.261719 -5.0625,3.671876 -0.38281,2.410156 1.26172,4.679687 3.67187,5.0625 z m -34.66015,25.011722 c -1.01172,-0.61719 -2.07422,-1.19922 -2.99219,-1.96094 -0.46875,-0.36719 -1.01562,-0.67578 -1.42969,-1.11328 l -0.69531,-0.60938 c -0.21875,-0.21875 -0.54297,-0.34375 -1.39453,-0.16015 -0.44922,0.6914 -0.37109,1.07031 -0.1875,1.36328 l 0.51562,0.91406 c 0.32422,0.63672 0.80469,1.14063 1.26954,1.67188 0.88671,1.11718 2.0664,1.89453 3.17578,2.75781 2.33203,1.54297 4.89453,2.73437 7.57422,3.32812 2.66796,0.64453 5.39453,0.72656 8.0625,0.73828 1.33593,0.004 2.66406,0.0391 3.99218,-0.0273 0.66407,-0.0195 1.32422,-0.12109 1.98438,-0.21875 l 0.98437,-0.21094 c 0.32813,-0.0742 0.65235,-0.27734 0.90235,-1 -0.39453,-0.65234 -0.71875,-0.80469 -1.03516,-0.82812 L 214,129.21484 c -0.64063,-0.0625 -1.26953,-0.0859 -1.90234,-0.11718 -1.26563,-0.043 -2.53516,-0.0664 -3.78516,-0.25391 -2.5,-0.375 -4.94922,-0.95312 -7.29297,-1.66016 -2.32422,-0.7539 -4.65234,-1.41406 -6.78906,-2.52343 z m 19.71875,-11.85547 c -0.13672,0.55078 -0.41016,1.16797 -0.71094,1.6875 -0.3125,0.52734 -0.71484,0.98828 -1.14844,1.41797 -0.47656,0.3789 -0.97265,0.74218 -1.53515,1.00781 -0.55078,0.27734 -1.14063,0.52734 -1.76563,0.71094 -0.30859,0.10156 -0.6289,0.19531 -0.95312,0.26172 -0.32813,0.0664 -0.625,0.25 -1.03907,0.90625 0.3086,0.72265 0.74219,0.89843 1.14063,0.92578 0.40234,0.0273 0.8125,0.0352 1.21875,0.008 0.81641,-0.0547 1.63281,-0.23828 2.40625,-0.55859 1.55469,-0.63672 2.94141,-1.75391 3.94141,-3.11329 0.52343,-0.67968 0.95312,-1.35937 1.30468,-2.17968 0.15235,-0.42578 0.32422,-0.8711 0.44532,-1.30078 l 0.21484,-1.25391 c 0.11328,-0.83203 0.11719,-1.625 0.12891,-2.42578 -0.0547,-0.77344 -0.0625,-1.57813 -0.17579,-2.32813 -0.33984,-3.0664 -1.30859,-5.92187 -2.29296,-8.722654 -0.50391,-1.398437 -1.01563,-2.789062 -1.63282,-4.136718 -0.30859,-0.675782 -0.64062,-1.339844 -0.99609,-1.996094 l -0.54688,-0.976563 c -0.16406,-0.328125 -0.46484,-0.613281 -1.32421,-0.660156 -0.59375,0.632813 -0.6211,1.027344 -0.52735,1.378906 l 0.22656,1.070313 c 0.16407,0.710937 0.31641,1.417968 0.5,2.121094 l 1.09766,4.175781 c 0.70313,2.781251 1.21875,5.585941 1.74609,8.292971 0.25391,1.35547 0.42579,2.69922 0.44922,3.96094 l -0.0234,0.92578 z m 12.57031,-31.613284 0.33594,0.117188 c 0.21875,0.0625 0.42969,0.128906 0.63672,0.191406 0.41015,0.113281 0.80468,0.15625 1.19531,0.273438 0.78516,0.199218 1.49609,0.546874 2.28125,0.699218 0.76953,0.195313 1.64062,0.28125 2.46875,0.566406 0.41406,0.140626 0.77344,0.378907 1.15234,0.585938 0.19141,0.109375 0.39844,0.1875 0.61328,0.261719 l 0.34766,0.08984 c 0.11328,0.03516 0.30469,-0.03906 0.85938,-0.457031 0.38671,-0.578125 0.40234,-0.808593 0.33593,-0.929687 -0.0625,-0.117188 -0.125,-0.246094 -0.19531,-0.359375 -0.15234,-0.222657 -0.31641,-0.429688 -0.50781,-0.597657 -0.38281,-0.347656 -0.8125,-0.617187 -1.20703,-0.960937 -0.79297,-0.671875 -1.64063,-1.378906 -2.65235,-1.789063 -0.99218,-0.476562 -2.14453,-0.496093 -3.23437,-0.445312 -0.55078,0.02734 -1.09375,0.06641 -1.625,0.242188 -0.26563,0.06641 -0.51953,0.191406 -0.76563,0.332031 l -0.36328,0.21875 c -0.12109,0.05078 -0.22265,0.253906 -0.1875,1.03125 0.26953,0.742187 0.40235,0.914062 0.51172,0.929687 z m -23.57812,-6.203125 c -0.32813,-0.246093 -0.66407,-0.480469 -1.01563,-0.675781 -0.70312,-0.40625 -1.45703,-0.683594 -2.21875,-0.964844 -1.51953,-0.539062 -3.12891,-1 -4.79297,-0.953125 -1.66015,-0.03516 -3.32031,0.433594 -4.87109,0.957031 -0.38672,0.144532 -0.77344,0.277344 -1.16406,0.394532 -0.38282,0.15625 -0.76172,0.3125 -1.12891,0.488281 -0.37891,0.15625 -0.72266,0.382813 -1.03906,0.65625 l -0.46485,0.410156 c -0.15234,0.136719 -0.24218,0.390625 -0.0586,1.066407 0.51953,0.496093 0.76172,0.578124 0.94141,0.539062 l 0.53515,-0.109375 c 0.33985,-0.105469 0.67578,-0.191406 1.01172,-0.277344 0.33203,-0.08984 0.65234,-0.214843 0.98047,-0.3125 0.33594,-0.07031 0.67578,-0.128906 1.01562,-0.175781 1.37891,-0.125 2.73829,0.0039 4.08594,0.148438 1.33594,0.179687 2.71485,0.183593 4.10156,0.40625 l 2.08985,0.382812 c 0.35547,0.05859 0.71484,0.101562 1.08203,0.148438 l 0.55469,0.06641 c 0.17578,0.04687 0.40234,-0.05469 0.92187,-0.65625 0.1875,-0.773438 0.0781,-1.039063 -0.0898,-1.148438 z M 315.48047,385.13281 c 1.71094,0.94531 3.41406,1.91406 5.0664,2.92188 0.83204,0.49218 1.64063,1.01172 2.4375,1.52343 0.78125,0.50782 1.58594,1.04688 2.17188,1.55469 l 1.15234,0.9961 c 0.48047,0.38671 0.91407,0.65234 1.38282,0.96484 l 1.35937,0.78516 1.375,0.67578 c 1.83203,0.86328 3.67188,1.63672 5.51953,2.3789 1.84766,0.73047 3.69531,1.45703 5.57813,2.07032 0.9375,0.32812 1.89062,0.60546 2.84375,0.8789 l 1.4414,0.38672 c 0.47266,0.14453 0.9961,0.16016 1.73828,-0.39844 -0.18359,-0.90625 -0.57421,-1.24218 -1.01953,-1.45703 l -1.30859,-0.6875 c -0.875,-0.44922 -1.74609,-0.90625 -2.63281,-1.32422 l -5.28907,-2.52734 c -1.75,-0.85938 -3.48437,-1.73438 -5.15625,-2.65625 -0.83203,-0.47266 -1.64453,-0.93359 -2.42578,-1.40234 -0.33593,-0.2461 -0.76172,-0.47657 -1.04297,-0.70313 l -0.41015,-0.32422 -0.69922,-0.58203 c -1.85938,-1.39453 -3.59766,-2.20703 -5.42188,-3.10547 -1.8125,-0.86328 -3.6289,-1.66406 -5.44921,-2.4414 l -5.41797,-2.41797 c -0.90625,-0.39063 -1.83203,-0.7461 -2.76172,-1.07813 l -1.41016,-0.47265 c -0.47265,-0.15625 -0.99609,-0.19532 -1.72265,0.24218 0.17187,0.82813 0.54687,1.1875 0.97265,1.4336 l 1.28125,0.73828 c 0.85938,0.48047 1.72656,0.9414 2.60156,1.3789 1.76172,0.86329 3.52344,1.71875 5.2461,2.64844 z m 36.71875,30.33594 -1.04297,0.23047 -1.01563,0.26562 c -0.35156,0.0586 -0.69921,0.10938 -1.03906,0.1836 -0.6914,0.12109 -1.36328,0.32422 -2.05469,0.41797 l -2.08984,0.17968 c -2.80469,0.0312 -5.57812,-0.30078 -8.30859,-0.86718 -2.71875,-0.60547 -5.47266,-1.16797 -8.16797,-2.0586 -1.34766,-0.4414 -2.66797,-0.96484 -4.00391,-1.46875 l -2.01562,-0.75781 -1.01172,-0.38672 c -0.32813,-0.14844 -0.71094,-0.17969 -1.44141,0.28125 -0.11719,0.85938 0.125,1.21094 0.42969,1.43359 l 0.90234,0.69922 c 0.61328,0.44532 1.23438,0.88282 1.88672,1.26563 1.29297,0.79297 2.66406,1.43359 4.04688,2.05469 2.77343,1.21093 5.68359,2.2539 8.73828,2.67187 3.04297,0.48047 6.17969,0.30469 9.20703,-0.12891 l 2.26953,-0.3789 c 0.75391,-0.14453 1.49219,-0.36719 2.23047,-0.56641 l 1.09766,-0.33594 c 0.35937,-0.13671 0.69921,-0.32812 1.04296,-0.48828 l 1.01954,-0.53906 c 0.33593,-0.17969 0.6289,-0.48047 0.6875,-1.23828 -0.6211,-0.50391 -1.01563,-0.54688 -1.36719,-0.46875 z m -19.85156,37.46094 c -0.58204,-0.23438 -1.17579,-0.39453 -1.72266,-0.66407 -1.08203,-0.5664 -2.07031,-1.2539 -2.9375,-2.11718 -1.72266,-1.73047 -3.03906,-3.92969 -4.05078,-6.29688 -1.02344,-2.36719 -1.73438,-4.90625 -2.30078,-7.48437 -0.54297,-2.58594 -1.0625,-5.19141 -1.4336,-7.83985 -0.78906,-5.28515 -1.34765,-10.66406 -1.61328,-16.0664 -0.10937,-2.70313 -0.10156,-5.41016 -0.0742,-8.11719 l 0.008,-4.06641 -0.0156,-0.89062 c 0.78516,0.69922 1.60156,1.37109 2.42969,2.02734 0.89844,0.67188 1.7539,1.39453 2.74219,1.96094 0.48828,0.28906 0.96484,0.58203 1.49609,0.8125 l 0.78516,0.34375 c 0.25,0.12891 0.58203,0.14844 1.23046,-0.35547 0.20313,-0.8125 0.0859,-1.10547 -0.10937,-1.28516 l -0.55469,-0.58593 c -0.3789,-0.36328 -0.72265,-0.78907 -1.10547,-1.15235 l -2.25,-2.23047 c -1.48047,-1.51562 -2.82812,-3.16406 -4.375,-4.625 -1.5,-1.51171 -3.10156,-2.95312 -4.61328,-4.49218 -0.75781,-0.76953 -1.42578,-1.61328 -2.1289,-2.42578 -0.35157,-0.41016 -0.72657,-0.80079 -1.11329,-1.17969 l -0.60156,-0.55469 c -0.19922,-0.1875 -0.5,-0.29687 -1.21875,-0.11719 -0.40234,0.625 -0.38281,0.95703 -0.25781,1.20703 l 0.375,0.75 c 0.26562,0.48438 0.55078,0.96094 0.87109,1.40625 l 1.94922,2.66407 c 1.25781,1.8125 2.50781,3.65625 3.96875,5.32812 0.23047,0.26953 0.48047,0.52735 0.72266,0.78906 -0.0391,0.14844 -0.0664,0.29688 -0.0899,0.44922 l -0.26953,2.04297 c -0.15625,1.36719 -0.2539,2.73438 -0.32812,4.10547 -0.13672,2.73828 -0.17969,5.48047 -0.22266,8.22656 -0.10937,5.49219 -0.0703,11.02344 0.60938,16.53907 0.32812,2.7539 0.79687,5.51562 1.54687,8.22656 0.72656,2.71094 1.6211,5.40625 2.90235,7.98437 1.26953,2.5625 2.875,5.10157 5.23437,7.00782 1.14453,0.97656 2.53125,1.6875 3.95703,2.17578 1.44531,0.25 2.98438,1.07812 4.41797,-0.33985 -0.67187,-0.84765 -1.24219,-1.05859 -1.85937,-1.16015 z m -67.1211,0.51953 -2.78515,0.98828 c -1.83204,0.71875 -3.77735,1.12891 -5.64454,1.72656 -3.74609,1.19922 -7.60546,2.02344 -11.41406,2.98828 -7.71875,1.59375 -15.51953,2.72266 -23.34765,3.70313 -3.92188,0.4375 -7.84375,0.91797 -11.78907,1.19922 -1.96875,0.19922 -3.9414,0.34765 -5.91797,0.46093 -1.97265,0.12891 -3.94921,0.26954 -5.92968,0.33594 -3.95703,0.16016 -7.91797,0.1836 -11.87891,0.15235 l -5.94531,-0.0234 -2.97266,0.004 c -0.99219,-0.004 -1.98437,0.10938 -3.03125,0.71875 0.94141,0.76563 1.9336,1.00782 2.92578,1.11329 l 2.98828,0.29687 c 1.99219,0.16797 3.98829,0.27734 5.98438,0.34375 1.99609,0.10156 3.99219,0.0937 5.99219,0.12109 1.99609,0.0508 3.99609,0.0234 5.99218,0.0234 2,0.0352 4,-0.008 6,-0.0351 2,-0.0117 4,-0.0625 6,-0.16016 4.00391,-0.13672 7.9961,-0.48438 11.9961,-0.78516 7.98047,-0.83203 15.89844,-2.28906 23.70312,-4.21484 3.86328,-1.12891 7.77735,-2.06641 11.52735,-3.57422 1.88672,-0.69922 3.78906,-1.34766 5.58984,-2.26562 l 2.73438,-1.28907 c 0.91406,-0.41406 1.77343,-0.96093 2.36718,-2.05078 -1.24218,-0.33203 -2.21875,-0.12109 -3.14453,0.22266 z M 174.0625,137.57812 c -1.72656,-1.32031 -3.34375,-2.78906 -4.92578,-4.28515 l -2.38281,-2.24219 -1.19141,-1.13281 c -0.40625,-0.3711 -0.89453,-0.66016 -1.75,-0.69141 -0.16797,0.83985 0.0547,1.40235 0.37109,1.875 l 1.01172,1.35938 c 0.69922,0.89062 1.4375,1.74609 2.21094,2.5664 1.5625,1.62891 3.23047,3.15625 4.9375,4.64453 3.39844,2.97657 7.0625,5.75782 11.16797,7.86719 2.04687,1.0625 4.1914,1.96485 6.41797,2.63281 2.24218,0.64454 4.51562,1.09375 6.88281,1.27344 2.35547,0.15625 4.76953,0.0781 7.09766,-0.54687 1.16015,-0.29297 2.29687,-0.71094 3.35546,-1.29297 0.53516,-0.28125 1.03907,-0.61719 1.53125,-0.96485 0.48438,-0.32812 1.01172,-0.76171 0.84766,-1.83203 -0.99609,-0.33984 -1.41016,-0.16797 -1.875,0.0703 -0.47266,0.19531 -0.95703,0.36328 -1.44922,0.50781 -0.98047,0.29297 -1.97656,0.51562 -2.99219,0.64453 -2.02343,0.27344 -4.09765,0.26562 -6.14843,-0.0508 -2.04297,-0.29688 -4.11719,-0.82422 -6.11328,-1.48047 -2.01172,-0.64453 -3.98829,-1.41016 -5.92969,-2.29297 -3.875,-1.77734 -7.6211,-3.98828 -11.07422,-6.62891 z M 86.550781,334.16016 c 10.703125,0.67578 21.324219,2.47656 31.871099,4.49609 10.53906,2.12109 20.99999,4.62891 31.4414,7.24609 10.17969,2.5625 20.28906,5.41016 30.36328,8.41016 0.16797,0.70312 0.32031,1.48437 0.4336,2.22266 0.16796,1.03906 0.28906,2.09765 0.39062,3.16015 0.1875,2.125 0.28906,4.27735 0.30859,6.4336 0.0352,2.15625 -0.0547,4.32031 -0.16796,6.48437 -0.13672,2.16406 -0.41407,4.30078 0.26562,6.60547 0.64453,-1.01172 1.00391,-2.07422 1.29297,-3.15234 0.24609,-1.07813 0.35156,-2.17969 0.49609,-3.27344 0.24219,-2.19531 0.46094,-4.39844 0.55469,-6.61719 0.10156,-2.21484 0.14844,-4.44531 0.008,-6.68359 -0.0312,-0.52735 -0.0703,-1.0586 -0.11328,-1.58985 2.90625,0.67578 5.875,0.44922 8.8086,0.34766 3.47656,-0.18359 6.95312,-0.53906 10.38671,-1.17578 6.8711,-1.21875 13.59766,-3.28125 20.00782,-6.0625 6.20312,-2.82422 12.76172,-4.6836 19.41406,-5.96094 6.56641,-1.20703 13.25,-1.69531 19.91016,-1.50391 l 6.84765,2.59766 1.65235,-3.28125 -7.54688,-2.73047 -0.0312,-0.0117 c -0.16797,-0.0586 -0.34766,-0.0937 -0.53906,-0.0976 -7.01563,-0.11719 -14.03906,0.55468 -20.89063,2.0039 -3.42968,0.73047 -6.8125,1.64453 -10.13281,2.73828 -1.66016,0.58204 -3.27344,1.10547 -4.94531,1.75391 -1.63672,0.63672 -3.24219,1.35156 -4.8125,2.05078 -6.19531,2.78125 -12.71485,4.82422 -19.37891,6.16406 -3.33594,0.64454 -6.69922,1.1836 -10.08984,1.50391 -2.91016,0.35156 -5.79688,0.20313 -8.7461,0.82031 -0.0312,-0.30859 -0.0586,-0.61718 -0.0977,-0.92578 -0.14453,-1.14844 -0.29688,-2.20312 -0.625,-3.46094 -0.11719,-0.43359 -0.44531,-0.80859 -0.89844,-0.95703 l -0.082,-0.0273 c -10.28125,-3.37891 -20.64453,-6.53516 -31.09766,-9.38672 -10.45312,-2.85937 -21.05078,-5.23047 -31.74609,-7.10156 -9.55078,-1.66797 -19.195312,-2.85938 -28.890625,-3.47656 -0.0078,-0.004 -0.01172,-0.0117 -0.01563,-0.0195 l -0.613281,-0.69531 c -0.417969,-0.45703 -0.839844,-0.91406 -1.28125,-1.34375 -0.894531,-0.85156 -1.882813,-1.58594 -2.839844,-2.375 -0.988281,-0.73828 -1.988281,-1.48047 -3.007813,-2.1914 -1.066406,-0.66016 -2.125,-1.31641 -3.28125,-1.82032 C 76.875,322.17578 74.402344,321.48437 71.914062,321 c -1.242187,-0.24609 -2.503906,-0.47266 -3.792968,-0.55469 -0.644532,-0.0234 -1.296875,0.004 -1.949219,0.10547 -0.328125,0.0547 -0.652344,0.14453 -0.972656,0.22266 -0.316407,0.0898 -0.664063,0.32422 -0.78125,1.07422 0.46875,0.58593 0.71875,0.73828 1,0.74609 0.277343,0.0273 0.550781,0.0508 0.828125,0.0898 l 1.65625,0.21875 c 1.109375,0.17578 2.230468,0.35938 3.308594,0.75782 2.15625,0.78515 4.195312,1.86328 6.210937,3 2.003906,1.13281 4.082031,2.1914 6.109375,3.39062 0.773438,0.48438 1.554688,0.96875 2.339844,1.44531 -5.164063,-0.21093 -10.347656,-0.2539 -15.527344,0.17969 -2.726562,0.21875 -5.441406,0.625 -8.132812,1.19141 -1.347657,0.28515 -2.6875,0.61718 -4.003907,1.04297 -1.289062,0.48046 -2.605469,1.11328 -3.539062,2.28125 1.453125,-0.0977 2.722656,-0.3086 4.023437,-0.57813 1.28125,-0.30078 2.574219,-0.57422 3.886719,-0.76562 2.621094,-0.41407 5.277344,-0.61329 7.9375,-0.79688 5.324219,-0.26953 10.683594,-0.24219 16.035156,0.10938 z m 90.718749,76.99218 c 0.44531,-0.16406 0.79688,-0.54687 0.90234,-1.04687 0.66407,-3.19531 1.35157,-6.38672 1.95313,-9.59766 l 0.93359,-4.8125 c 0.32422,-1.60156 0.6836,-3.1914 0.10938,-5.0039 -1.3125,1.37109 -1.69531,2.95703 -2.10938,4.53906 l -1.29297,4.72656 c -0.80078,2.86719 -1.53515,5.75391 -2.27734,8.64063 -8.15234,2.60937 -16.62109,4.28125 -25.16406,5.37109 -8.80078,1.11719 -17.66797,1.84766 -26.56641,2.28125 -8.89843,0.38672 -17.82812,0.57812 -26.753904,0.31641 -4.464844,-0.11719 -8.921875,-0.37891 -13.382812,-0.60938 l -6.691406,-0.35156 c -2.238282,-0.0586 -4.421876,-0.5625 -6.773438,0.33203 2.097656,1.41016 4.375,1.32812 6.597656,1.67578 2.226563,0.26953 4.460938,0.53906 6.699219,0.71875 4.472656,0.41016 8.960937,0.63672 13.445313,0.875 8.976562,0.42188 17.968752,0.78125 26.976562,0.5625 9.00391,-0.16016 18.02734,-0.74219 26.96875,-2.12109 8.93359,-1.36328 17.82812,-3.33985 26.37891,-6.47657 z m 202.28125,-44.1875 c 1.51563,-0.0781 3.03516,-0.20312 4.55859,-0.42968 -1.51953,-0.34766 -3.04687,-0.58985 -4.57421,-0.78125 z m 46.80078,-108.02343 -11.01953,-0.67579 -22.04297,-1.3164 -44.09375,-2.37891 -22.04687,-1.16015 -5.51172,-0.28907 -0.69141,-0.0352 c -0.21875,-0.0117 -0.44531,-0.0273 -0.80078,-0.0273 -0.64453,0.008 -1.28906,0.11328 -1.89844,0.3125 -1.22656,0.39844 -2.32031,1.1836 -3.09765,2.21485 -0.39063,0.49609 -0.70703,1.16406 -0.8711,1.50781 l -0.60156,1.23828 -1.20703,2.48438 -2.41797,4.96093 C 303.58594,279 297.26562,292.28906 290.87891,305.55078 l -18.96485,39.875 -4.72265,9.97656 -0.58985,1.25 c -0.23047,0.48047 -0.49609,1.22657 -0.52734,1.88672 -0.0899,1.3711 0.41015,2.7461 1.35156,3.71875 0.47266,0.48828 1.04688,0.87891 1.67578,1.13672 0.31641,0.12891 0.64453,0.21484 0.97656,0.28125 0.31641,0.0469 0.71875,0.0781 0.90235,0.0781 l 2.75781,0.0859 22.07031,0.69141 41.64844,1.45312 c -0.55469,-0.88281 -1.08203,-1.73437 -1.5625,-2.53515 l -39.98437,-1.66797 -22.05469,-0.99219 -2.75781,-0.125 c -0.27735,-0.008 -0.33594,-0.0312 -0.47266,-0.043 -0.11719,-0.0312 -0.23438,-0.0547 -0.34375,-0.10547 -0.21875,-0.0976 -0.41797,-0.23437 -0.58594,-0.41015 -0.33984,-0.35938 -0.49609,-0.86328 -0.46094,-1.32813 0.0274,-0.26172 0.0781,-0.39453 0.23829,-0.74218 l 0.60546,-1.23829 4.85938,-9.91406 19.35547,-39.69531 c 6.38281,-13.26563 12.83203,-26.49609 19.14062,-39.79688 l 3.5625,-7.47656 c 0.39063,-0.78125 0.82422,-1.83203 1.07422,-2.13672 0.32422,-0.4414 0.78906,-0.78515 1.31641,-0.96093 0.25781,-0.0859 0.53515,-0.13672 0.80859,-0.14063 0.10547,-0.004 0.33985,0.004 0.57813,0.0156 l 0.6914,0.0312 5.51172,0.23828 22.0586,0.94922 44.12109,1.84375 22.06641,0.79296 11.03515,0.37891 c 3.67578,0.12891 7.35938,0.14844 11.07031,-0.46484 -3.63671,-0.96485 -7.30468,-1.29688 -10.97656,-1.51953 z m -74.51562,105.19921 c 0.60156,0.78516 1.18359,1.57422 1.73828,2.36719 2.8125,0.082 5.62109,0.16406 8.43359,0.23047 l 3.58594,0.0937 c 0.0859,-0.64453 0.15234,-1.3125 0.20312,-2.00391 l -3.71093,-0.18359 c -3.41407,-0.18359 -6.83203,-0.34375 -10.25,-0.50391 z m 3.26953,4.625 c 0.48047,0.73047 0.9375,1.45313 1.36719,2.15625 l 1.60937,0.0195 c 1.99609,0.0312 4,-0.0469 6.02734,-0.75782 -1.96484,-0.86718 -3.95703,-1.09765 -5.95312,-1.22265 z m -168.91797,14.76172 -5.79297,1.55078 c -1.92969,0.52735 -3.83203,1.16407 -5.60937,2.31641 2.10937,0.19922 4.08984,-0.11328 6.04296,-0.53906 l 5.85547,-1.29297 c 3.91016,-0.83984 7.80078,-1.75391 11.69141,-2.66406 l 23.34375,-5.48438 23.39453,-5.23828 11.69531,-2.5625 c 1.94922,-0.42187 3.89063,-0.81641 5.82032,-1.17969 0.52734,-0.11328 0.83203,-0.12109 1.24609,-0.19531 0.34375,-0.10547 0.89062,-0.043 1.38281,-0.0234 l 2.99219,0.14063 c 15.96484,0.70312 31.92969,1.17187 47.89844,1.64062 7.98437,0.23438 15.96484,0.4961 23.95312,0.66016 0.1211,0.004 0.24219,0.004 0.35938,0.008 -0.63282,-0.96875 -1.26563,-1.9414 -1.875,-2.89844 -7.45313,-0.41406 -14.91016,-0.7539 -22.36719,-1.11328 -15.98438,-0.76953 -31.97266,-1.54297 -47.96094,-2.08203 l -3,-0.0898 c -0.87109,-0.11328 -2.3125,0.14844 -3.3125,0.33984 -1.99609,0.41016 -3.96094,0.84766 -5.91015,1.30469 l -11.6836,2.78125 -23.27734,5.83203 -23.27735,5.77734 c -3.8789,0.97657 -7.7539,1.95704 -11.60937,3.01172 z m 179.67187,-90.01562 c -7.02343,-0.0937 -13.9375,4.91797 -15.4414,11.1914 -1.50391,6.27344 2.97265,11.4336 9.99609,11.52735 7.02735,0.0937 13.94141,-4.91406 15.44531,-11.1875 1.50391,-6.27344 -2.97265,-11.4375 -10,-11.53125 z M 234.78125,368.125 c 2.26562,-1.01953 4.5,-2.10938 6.67578,-3.30469 1.91406,-1.04687 3.78516,-2.13672 5.65234,-3.30078 1.58204,0.89063 3.17579,1.73828 4.85157,2.50781 l 6.03125,-1.48828 -0.3125,-0.0586 c -0.48438,-0.0899 -1.33985,-0.1836 -1.51172,-0.21875 -0.8086,-0.1875 -1.79688,-0.57813 -2.73047,-0.98047 -1.88281,-0.82422 -3.79297,-1.78516 -5.63672,-2.76563 l -0.043,-0.0234 c -0.46484,-0.24219 -1.04687,-0.23047 -1.51172,0.0859 -1.96484,1.33985 -4.05078,2.63282 -6.13672,3.85547 -2.10156,1.21094 -4.20703,2.42578 -6.37109,3.51563 -2.16016,1.08594 -4.35547,2.12109 -6.60156,2.99609 -2.23047,0.83203 -4.41797,1.52735 -6.61328,2.83985 l 13.5039,-3.33204 c 0.25,-0.10937 0.50391,-0.21484 0.75391,-0.32812 z m 16.33594,-17.00391 14.78125,1.32032 -1.83203,3.64062 -3.6875,-0.375 0.375,0.19141 0.0195,0.008 c 0.11328,0.0625 0.22656,0.13672 0.32031,0.21484 l 2.06641,1.75782 -0.76563,1.52343 c -0.30078,0.59766 -0.48437,1.21094 -0.57422,1.82422 l -2.78515,-2.32812 -8.89844,-4.35547 c -0.89844,-0.4375 -1.26563,-1.51953 -0.82813,-2.41797 0.33594,-0.69141 1.0586,-1.07031 1.78125,-1.00781 l 0.0273,0.004"
         fill="#312e5f"
         id="path5246" />
    </g>
  </g>
</svg>
